<?xml version="1.0" encoding="UTF-8" standalone="no"?>
<!DOCTYPE svg PUBLIC "-//W3C//DTD SVG 1.1//EN"
 "http://www.w3.org/Graphics/SVG/1.1/DTD/svg11.dtd">
<!-- Generated by graphviz version 14.1.3 (20260303.0454)
 -->
<!-- Title: G Pages: 1 -->
<svg width="940pt" height="871pt"
 viewBox="0.00 0.00 940.00 871.00" xmlns="http://www.w3.org/2000/svg" xmlns:xlink="http://www.w3.org/1999/xlink">
<g id="graph0" class="graph" transform="scale(1 1) rotate(0) translate(4 867.28)">
<title>G</title>
<polygon fill="white" stroke="none" points="-4,4 -4,-867.28 935.75,-867.28 935.75,4 -4,4"/>
<!-- BIRDCHAMBER -->
<g id="node1" class="node">
<title>BIRDCHAMBER</title>
<ellipse fill="none" stroke="black" cx="360.88" cy="-729.12" rx="81.85" ry="40.66"/>
<text xml:space="preserve" text-anchor="middle" x="360.88" y="-740.57" font-family="Times,serif" font-size="14.00">BIRDCHAMBER</text>
<text xml:space="preserve" text-anchor="middle" x="360.88" y="-724.07" font-family="Times,serif" font-size="14.00">Bird chamber.</text>
<text xml:space="preserve" text-anchor="middle" x="360.88" y="-707.57" font-family="Times,serif" font-size="14.00">(bird)</text>
</g>
<!-- MISTWEST -->
<g id="node2" class="node">
<title>MISTWEST</title>
<ellipse fill="none" stroke="black" cx="551.88" cy="-122.49" rx="114.73" ry="28.99"/>
<text xml:space="preserve" text-anchor="middle" x="551.88" y="-125.69" font-family="Times,serif" font-size="14.00">MISTWEST</text>
<text xml:space="preserve" text-anchor="middle" x="551.88" y="-109.19" font-family="Times,serif" font-size="14.00">West end of Hall of Mists.</text>
</g>
<!-- ALIKE1 -->
<g id="node3" class="node">
<title>ALIKE1</title>
<polygon fill="none" stroke="black" points="427.75,-244.98 330,-244.98 330,-203.98 427.75,-203.98 427.75,-244.98"/>
<text xml:space="preserve" text-anchor="middle" x="378.88" y="-227.68" font-family="Times,serif" font-size="14.00">ALIKE1</text>
<text xml:space="preserve" text-anchor="middle" x="378.88" y="-211.18" font-family="Times,serif" font-size="14.00">Maze all alike.</text>
</g>
<!-- MISTWEST&#45;&gt;ALIKE1 -->
<g id="edge1" class="edge">
<title>MISTWEST&#45;&gt;ALIKE1</title>
<path fill="none" stroke="black" d="M477.59,-144.91C460.83,-151.44 443.64,-159.58 428.88,-169.48 418.5,-176.44 408.76,-185.96 400.68,-195.07"/>
<polygon fill="black" stroke="black" points="398.24,-192.53 394.45,-202.42 403.59,-197.05 398.24,-192.53"/>
<text xml:space="preserve" text-anchor="middle" x="470.88" y="-172.68" font-family="Times,serif" font-size="14.00">s,u,passa,climb</text>
</g>
<!-- ALIKE1&#45;&gt;MISTWEST -->
<g id="edge2" class="edge">
<title>ALIKE1&#45;&gt;MISTWEST</title>
<path fill="none" stroke="black" d="M427.95,-218.52C455.15,-213.75 488.32,-204.38 512.88,-185.98 521.44,-179.56 528.58,-170.66 534.3,-161.58"/>
<polygon fill="black" stroke="black" points="537.24,-163.5 539.2,-153.09 531.18,-160 537.24,-163.5"/>
<text xml:space="preserve" text-anchor="middle" x="531.6" y="-172.68" font-family="Times,serif" font-size="14.00">u</text>
</g>
<!-- ALIKE1&#45;&gt;ALIKE1 -->
<g id="edge3" class="edge">
<title>ALIKE1&#45;&gt;ALIKE1</title>
<path fill="none" stroke="black" d="M428.16,-232.94C438.39,-232.05 445.75,-229.23 445.75,-224.48 445.75,-221.74 443.29,-219.64 439.24,-218.18"/>
<polygon fill="black" stroke="black" points="440.13,-214.79 429.65,-216.31 438.79,-221.66 440.13,-214.79"/>
<text xml:space="preserve" text-anchor="middle" x="449.12" y="-219.43" font-family="Times,serif" font-size="14.00">n</text>
</g>
<!-- ALIKE2 -->
<g id="node4" class="node">
<title>ALIKE2</title>
<polygon fill="none" stroke="black" points="460.75,-338.48 363,-338.48 363,-297.48 460.75,-297.48 460.75,-338.48"/>
<text xml:space="preserve" text-anchor="middle" x="411.88" y="-321.18" font-family="Times,serif" font-size="14.00">ALIKE2</text>
<text xml:space="preserve" text-anchor="middle" x="411.88" y="-304.68" font-family="Times,serif" font-size="14.00">Maze all alike.</text>
</g>
<!-- ALIKE1&#45;&gt;ALIKE2 -->
<g id="edge4" class="edge">
<title>ALIKE1&#45;&gt;ALIKE2</title>
<path fill="none" stroke="black" d="M386.02,-245.3C390.34,-257.28 395.94,-272.81 400.83,-286.35"/>
<polygon fill="black" stroke="black" points="397.52,-287.49 404.2,-295.7 404.1,-285.11 397.52,-287.49"/>
<text xml:space="preserve" text-anchor="middle" x="401.33" y="-266.18" font-family="Times,serif" font-size="14.00">e</text>
</g>
<!-- ALIKE4 -->
<g id="node6" class="node">
<title>ALIKE4</title>
<polygon fill="none" stroke="black" points="259.75,-142.99 162,-142.99 162,-101.99 259.75,-101.99 259.75,-142.99"/>
<text xml:space="preserve" text-anchor="middle" x="210.88" y="-125.69" font-family="Times,serif" font-size="14.00">ALIKE4</text>
<text xml:space="preserve" text-anchor="middle" x="210.88" y="-109.19" font-family="Times,serif" font-size="14.00">Maze all alike.</text>
</g>
<!-- ALIKE1&#45;&gt;ALIKE4 -->
<g id="edge5" class="edge">
<title>ALIKE1&#45;&gt;ALIKE4</title>
<path fill="none" stroke="black" d="M329.66,-205.27C316.63,-199.73 302.81,-193.18 290.62,-185.98 273.31,-175.76 255.57,-162.22 241.22,-150.35"/>
<polygon fill="black" stroke="black" points="243.82,-147.96 233.92,-144.19 239.31,-153.31 243.82,-147.96"/>
<text xml:space="preserve" text-anchor="middle" x="293.25" y="-172.68" font-family="Times,serif" font-size="14.00">s</text>
</g>
<!-- ALIKE11 -->
<g id="node21" class="node">
<title>ALIKE11</title>
<polygon fill="none" stroke="black" points="395.75,-142.99 298,-142.99 298,-101.99 395.75,-101.99 395.75,-142.99"/>
<text xml:space="preserve" text-anchor="middle" x="346.88" y="-125.69" font-family="Times,serif" font-size="14.00">ALIKE11</text>
<text xml:space="preserve" text-anchor="middle" x="346.88" y="-109.19" font-family="Times,serif" font-size="14.00">Maze all alike.</text>
</g>
<!-- ALIKE1&#45;&gt;ALIKE11 -->
<g id="edge6" class="edge">
<title>ALIKE1&#45;&gt;ALIKE11</title>
<path fill="none" stroke="black" d="M358.56,-203.64C354.33,-198.33 350.46,-192.3 348.12,-185.98 344.51,-176.18 343.44,-164.9 343.51,-154.66"/>
<polygon fill="black" stroke="black" points="347,-154.91 343.96,-144.76 340,-154.59 347,-154.91"/>
<text xml:space="preserve" text-anchor="middle" x="353" y="-172.68" font-family="Times,serif" font-size="14.00">w</text>
</g>
<!-- ALIKE2&#45;&gt;ALIKE1 -->
<g id="edge7" class="edge">
<title>ALIKE2&#45;&gt;ALIKE1</title>
<path fill="none" stroke="black" d="M390.19,-297.35C385.68,-292.04 381.57,-285.95 379.12,-279.48 376.45,-272.4 375.44,-264.42 375.3,-256.81"/>
<polygon fill="black" stroke="black" points="378.8,-256.96 375.65,-246.84 371.81,-256.71 378.8,-256.96"/>
<text xml:space="preserve" text-anchor="middle" x="384" y="-266.18" font-family="Times,serif" font-size="14.00">w</text>
</g>
<!-- ALIKE3 -->
<g id="node5" class="node">
<title>ALIKE3</title>
<polygon fill="none" stroke="black" points="314.75,-431.98 217,-431.98 217,-390.98 314.75,-390.98 314.75,-431.98"/>
<text xml:space="preserve" text-anchor="middle" x="265.88" y="-414.68" font-family="Times,serif" font-size="14.00">ALIKE3</text>
<text xml:space="preserve" text-anchor="middle" x="265.88" y="-398.18" font-family="Times,serif" font-size="14.00">Maze all alike.</text>
</g>
<!-- ALIKE2&#45;&gt;ALIKE3 -->
<g id="edge8" class="edge">
<title>ALIKE2&#45;&gt;ALIKE3</title>
<path fill="none" stroke="black" d="M394.71,-338.87C384.33,-349.99 370.33,-363.49 355.88,-372.98 346.54,-379.11 336.03,-384.58 325.58,-389.31"/>
<polygon fill="black" stroke="black" points="324.38,-386.02 316.58,-393.19 327.15,-392.44 324.38,-386.02"/>
<text xml:space="preserve" text-anchor="middle" x="378.65" y="-359.68" font-family="Times,serif" font-size="14.00">s</text>
</g>
<!-- ALIKE2&#45;&gt;ALIKE4 -->
<g id="edge9" class="edge">
<title>ALIKE2&#45;&gt;ALIKE4</title>
<path fill="none" stroke="black" d="M362.68,-299.81C359.72,-298.97 356.76,-298.19 353.88,-297.48 303.62,-285.2 279.42,-311.62 238.88,-279.48 202.1,-250.33 201.9,-190.79 205.86,-154.29"/>
<polygon fill="black" stroke="black" points="209.27,-155.18 207.06,-144.82 202.33,-154.3 209.27,-155.18"/>
<text xml:space="preserve" text-anchor="middle" x="216.9" y="-219.43" font-family="Times,serif" font-size="14.00">e</text>
</g>
<!-- ALIKE3&#45;&gt;ALIKE2 -->
<g id="edge10" class="edge">
<title>ALIKE3&#45;&gt;ALIKE2</title>
<path fill="none" stroke="black" d="M296.47,-390.53C312.34,-380.25 332.08,-367.58 349.88,-356.48 356.11,-352.59 362.74,-348.52 369.24,-344.56"/>
<polygon fill="black" stroke="black" points="370.6,-347.83 377.34,-339.65 366.97,-341.84 370.6,-347.83"/>
<text xml:space="preserve" text-anchor="middle" x="352.88" y="-359.68" font-family="Times,serif" font-size="14.00">e</text>
</g>
<!-- MAZEEND3 -->
<g id="node9" class="node">
<title>MAZEEND3</title>
<polygon fill="none" stroke="black" points="228.75,-338.48 131,-338.48 131,-297.48 228.75,-297.48 228.75,-338.48"/>
<text xml:space="preserve" text-anchor="middle" x="179.88" y="-321.18" font-family="Times,serif" font-size="14.00">MAZEEND3</text>
<text xml:space="preserve" text-anchor="middle" x="179.88" y="-304.68" font-family="Times,serif" font-size="14.00">Maze all alike.</text>
</g>
<!-- ALIKE3&#45;&gt;MAZEEND3 -->
<g id="edge11" class="edge">
<title>ALIKE3&#45;&gt;MAZEEND3</title>
<path fill="none" stroke="black" d="M216.63,-397.78C204.11,-392.2 191.99,-384.25 184.12,-372.98 179.53,-366.4 177.53,-358.21 176.9,-350.21"/>
<polygon fill="black" stroke="black" points="180.4,-350.33 176.83,-340.35 173.4,-350.38 180.4,-350.33"/>
<text xml:space="preserve" text-anchor="middle" x="187.5" y="-359.68" font-family="Times,serif" font-size="14.00">d</text>
</g>
<!-- ALIKE6 -->
<g id="node11" class="node">
<title>ALIKE6</title>
<polygon fill="none" stroke="black" points="460.75,-533.97 363,-533.97 363,-492.97 460.75,-492.97 460.75,-533.97"/>
<text xml:space="preserve" text-anchor="middle" x="411.88" y="-516.67" font-family="Times,serif" font-size="14.00">ALIKE6</text>
<text xml:space="preserve" text-anchor="middle" x="411.88" y="-500.17" font-family="Times,serif" font-size="14.00">Maze all alike.</text>
</g>
<!-- ALIKE3&#45;&gt;ALIKE6 -->
<g id="edge12" class="edge">
<title>ALIKE3&#45;&gt;ALIKE6</title>
<path fill="none" stroke="black" d="M295.02,-432.44C317.49,-447.83 348.76,-469.25 373.3,-486.06"/>
<polygon fill="black" stroke="black" points="371.2,-488.86 381.43,-491.62 375.16,-483.09 371.2,-488.86"/>
<text xml:space="preserve" text-anchor="middle" x="345.88" y="-453.18" font-family="Times,serif" font-size="14.00">s</text>
</g>
<!-- MAZEEND9 -->
<g id="node23" class="node">
<title>MAZEEND9</title>
<polygon fill="none" stroke="black" points="344.75,-338.48 247,-338.48 247,-297.48 344.75,-297.48 344.75,-338.48"/>
<text xml:space="preserve" text-anchor="middle" x="295.88" y="-321.18" font-family="Times,serif" font-size="14.00">MAZEEND9</text>
<text xml:space="preserve" text-anchor="middle" x="295.88" y="-304.68" font-family="Times,serif" font-size="14.00">Maze all alike.</text>
</g>
<!-- ALIKE3&#45;&gt;MAZEEND9 -->
<g id="edge13" class="edge">
<title>ALIKE3&#45;&gt;MAZEEND9</title>
<path fill="none" stroke="black" d="M264.48,-390.72C264.37,-380.27 265.27,-367.37 269.12,-356.48 270.08,-353.78 271.3,-351.09 272.68,-348.48"/>
<polygon fill="black" stroke="black" points="275.56,-350.47 277.83,-340.12 269.6,-346.79 275.56,-350.47"/>
<text xml:space="preserve" text-anchor="middle" x="272.5" y="-359.68" font-family="Times,serif" font-size="14.00">n</text>
</g>
<!-- ALIKE4&#45;&gt;ALIKE1 -->
<g id="edge14" class="edge">
<title>ALIKE4&#45;&gt;ALIKE1</title>
<path fill="none" stroke="black" d="M246.53,-143.34C260.72,-151.34 277.14,-160.73 291.88,-169.48 307.03,-178.48 323.49,-188.61 337.97,-197.64"/>
<polygon fill="black" stroke="black" points="336.03,-200.55 346.36,-202.89 339.74,-194.62 336.03,-200.55"/>
<text xml:space="preserve" text-anchor="middle" x="323.24" y="-172.68" font-family="Times,serif" font-size="14.00">w</text>
</g>
<!-- ALIKE4&#45;&gt;ALIKE2 -->
<g id="edge15" class="edge">
<title>ALIKE4&#45;&gt;ALIKE2</title>
<path fill="none" stroke="black" d="M225.35,-143.22C244.27,-168.32 279.11,-212.32 314.12,-244.98 331.98,-261.63 353.68,-277.95 372.1,-290.84"/>
<polygon fill="black" stroke="black" points="369.93,-293.59 380.15,-296.38 373.9,-287.83 369.93,-293.59"/>
<text xml:space="preserve" text-anchor="middle" x="317.5" y="-219.43" font-family="Times,serif" font-size="14.00">n</text>
</g>
<!-- MAZEEND1 -->
<g id="node7" class="node">
<title>MAZEEND1</title>
<polygon fill="none" stroke="black" points="329.75,-41 232,-41 232,0 329.75,0 329.75,-41"/>
<text xml:space="preserve" text-anchor="middle" x="280.88" y="-23.7" font-family="Times,serif" font-size="14.00">MAZEEND1</text>
<text xml:space="preserve" text-anchor="middle" x="280.88" y="-7.2" font-family="Times,serif" font-size="14.00">Maze all alike.</text>
</g>
<!-- ALIKE4&#45;&gt;MAZEEND1 -->
<g id="edge16" class="edge">
<title>ALIKE4&#45;&gt;MAZEEND1</title>
<path fill="none" stroke="black" d="M223.87,-101.62C232.04,-89.25 242.9,-73.08 252.88,-59 254.88,-56.17 256.99,-53.25 259.12,-50.34"/>
<polygon fill="black" stroke="black" points="261.83,-52.55 264.97,-42.43 256.21,-48.39 261.83,-52.55"/>
<text xml:space="preserve" text-anchor="middle" x="255.88" y="-62.2" font-family="Times,serif" font-size="14.00">e</text>
</g>
<!-- MAZEEND2 -->
<g id="node8" class="node">
<title>MAZEEND2</title>
<polygon fill="none" stroke="black" points="97.75,-41 0,-41 0,0 97.75,0 97.75,-41"/>
<text xml:space="preserve" text-anchor="middle" x="48.88" y="-23.7" font-family="Times,serif" font-size="14.00">MAZEEND2</text>
<text xml:space="preserve" text-anchor="middle" x="48.88" y="-7.2" font-family="Times,serif" font-size="14.00">Maze all alike.</text>
</g>
<!-- ALIKE4&#45;&gt;MAZEEND2 -->
<g id="edge17" class="edge">
<title>ALIKE4&#45;&gt;MAZEEND2</title>
<path fill="none" stroke="black" d="M161.63,-113.32C134.69,-106.8 102.13,-95.33 78.62,-75.5 71.06,-69.12 65.09,-60.31 60.53,-51.65"/>
<polygon fill="black" stroke="black" points="63.75,-50.27 56.32,-42.71 57.42,-53.25 63.75,-50.27"/>
<text xml:space="preserve" text-anchor="middle" x="81.25" y="-62.2" font-family="Times,serif" font-size="14.00">s</text>
</g>
<!-- ALIKE14 -->
<g id="node28" class="node">
<title>ALIKE14</title>
<polygon fill="none" stroke="black" points="213.75,-41 116,-41 116,0 213.75,0 213.75,-41"/>
<text xml:space="preserve" text-anchor="middle" x="164.88" y="-23.7" font-family="Times,serif" font-size="14.00">ALIKE14</text>
<text xml:space="preserve" text-anchor="middle" x="164.88" y="-7.2" font-family="Times,serif" font-size="14.00">Maze all alike.</text>
</g>
<!-- ALIKE4&#45;&gt;ALIKE14 -->
<g id="edge18" class="edge">
<title>ALIKE4&#45;&gt;ALIKE14</title>
<path fill="none" stroke="black" d="M187.26,-101.71C180,-94.29 172.82,-85.26 168.62,-75.5 165.63,-68.53 164.15,-60.59 163.53,-52.98"/>
<polygon fill="black" stroke="black" points="167.03,-52.88 163.21,-43 160.03,-53.1 167.03,-52.88"/>
<text xml:space="preserve" text-anchor="middle" x="177.25" y="-62.2" font-family="Times,serif" font-size="14.00">u,d</text>
</g>
<!-- MAZEEND1&#45;&gt;ALIKE4 -->
<g id="edge19" class="edge">
<title>MAZEEND1&#45;&gt;ALIKE4</title>
<path fill="none" stroke="black" d="M274.06,-41.4C269.93,-52.02 264.08,-65.01 256.88,-75.5 252.49,-81.88 247.16,-88.14 241.7,-93.89"/>
<polygon fill="black" stroke="black" points="239.36,-91.27 234.78,-100.82 244.32,-96.22 239.36,-91.27"/>
<text xml:space="preserve" text-anchor="middle" x="280.82" y="-62.2" font-family="Times,serif" font-size="14.00">w,out</text>
</g>
<!-- MAZEEND2&#45;&gt;ALIKE4 -->
<g id="edge20" class="edge">
<title>MAZEEND2&#45;&gt;ALIKE4</title>
<path fill="none" stroke="black" d="M79.02,-41.28C94.94,-51.62 114.87,-64.41 132.88,-75.5 143.74,-82.19 155.55,-89.26 166.62,-95.8"/>
<polygon fill="black" stroke="black" points="164.83,-98.81 175.23,-100.86 168.38,-92.77 164.83,-98.81"/>
<text xml:space="preserve" text-anchor="middle" x="146.38" y="-62.2" font-family="Times,serif" font-size="14.00">e,out</text>
</g>
<!-- MAZEEND3&#45;&gt;ALIKE3 -->
<g id="edge21" class="edge">
<title>MAZEEND3&#45;&gt;ALIKE3</title>
<path fill="none" stroke="black" d="M198.5,-338.8C210.44,-351.5 226.12,-368.18 239.35,-382.26"/>
<polygon fill="black" stroke="black" points="236.78,-384.64 246.18,-389.53 241.88,-379.84 236.78,-384.64"/>
<text xml:space="preserve" text-anchor="middle" x="244.45" y="-359.68" font-family="Times,serif" font-size="14.00">u,out</text>
</g>
<!-- ALIKE5 -->
<g id="node10" class="node">
<title>ALIKE5</title>
<polygon fill="none" stroke="black" points="430.75,-431.98 333,-431.98 333,-390.98 430.75,-390.98 430.75,-431.98"/>
<text xml:space="preserve" text-anchor="middle" x="381.88" y="-414.68" font-family="Times,serif" font-size="14.00">ALIKE5</text>
<text xml:space="preserve" text-anchor="middle" x="381.88" y="-398.18" font-family="Times,serif" font-size="14.00">Maze all alike.</text>
</g>
<!-- ALIKE5&#45;&gt;ALIKE6 -->
<g id="edge22" class="edge">
<title>ALIKE5&#45;&gt;ALIKE6</title>
<path fill="none" stroke="black" d="M387.79,-432.2C392.06,-446.43 397.91,-465.92 402.77,-482.13"/>
<polygon fill="black" stroke="black" points="399.29,-482.7 405.51,-491.27 405.99,-480.69 399.29,-482.7"/>
<text xml:space="preserve" text-anchor="middle" x="400.77" y="-453.18" font-family="Times,serif" font-size="14.00">e</text>
</g>
<!-- ALIKE7 -->
<g id="node12" class="node">
<title>ALIKE7</title>
<polygon fill="none" stroke="black" points="584.75,-338.48 487,-338.48 487,-297.48 584.75,-297.48 584.75,-338.48"/>
<text xml:space="preserve" text-anchor="middle" x="535.88" y="-321.18" font-family="Times,serif" font-size="14.00">ALIKE7</text>
<text xml:space="preserve" text-anchor="middle" x="535.88" y="-304.68" font-family="Times,serif" font-size="14.00">Maze all alike.</text>
</g>
<!-- ALIKE5&#45;&gt;ALIKE7 -->
<g id="edge23" class="edge">
<title>ALIKE5&#45;&gt;ALIKE7</title>
<path fill="none" stroke="black" d="M387.85,-390.74C392.28,-379.23 399.43,-365.3 410.12,-356.48 410.49,-356.18 443.72,-346.28 475.92,-336.73"/>
<polygon fill="black" stroke="black" points="476.71,-340.14 485.31,-333.94 474.72,-333.43 476.71,-340.14"/>
<text xml:space="preserve" text-anchor="middle" x="415" y="-359.68" font-family="Times,serif" font-size="14.00">w</text>
</g>
<!-- ALIKE6&#45;&gt;ALIKE3 -->
<g id="edge24" class="edge">
<title>ALIKE6&#45;&gt;ALIKE3</title>
<path fill="none" stroke="black" d="M362.7,-494.91C345.7,-487.56 327.11,-478.02 311.88,-466.48 302.55,-459.42 293.81,-450.16 286.51,-441.31"/>
<polygon fill="black" stroke="black" points="289.32,-439.23 280.39,-433.53 283.82,-443.56 289.32,-439.23"/>
<text xml:space="preserve" text-anchor="middle" x="314.88" y="-453.18" font-family="Times,serif" font-size="14.00">e</text>
</g>
<!-- ALIKE6&#45;&gt;ALIKE5 -->
<g id="edge25" class="edge">
<title>ALIKE6&#45;&gt;ALIKE5</title>
<path fill="none" stroke="black" d="M394.43,-492.83C388.71,-485.15 383.07,-475.93 380.12,-466.48 377.89,-459.31 377.22,-451.35 377.37,-443.78"/>
<polygon fill="black" stroke="black" points="380.85,-444.12 378.04,-433.91 373.87,-443.65 380.85,-444.12"/>
<text xml:space="preserve" text-anchor="middle" x="385" y="-453.18" font-family="Times,serif" font-size="14.00">w</text>
</g>
<!-- ALIKE6&#45;&gt;ALIKE7 -->
<g id="edge26" class="edge">
<title>ALIKE6&#45;&gt;ALIKE7</title>
<path fill="none" stroke="black" d="M420.1,-492.54C433.38,-461.64 461.55,-401.09 495.88,-356.48 498.4,-353.2 501.23,-349.94 504.18,-346.81"/>
<polygon fill="black" stroke="black" points="506.49,-349.45 511.08,-339.9 501.54,-344.5 506.49,-349.45"/>
<text xml:space="preserve" text-anchor="middle" x="474.92" y="-406.43" font-family="Times,serif" font-size="14.00">d</text>
</g>
<!-- ALIKE8 -->
<g id="node13" class="node">
<title>ALIKE8</title>
<polygon fill="none" stroke="black" points="617.75,-635.97 520,-635.97 520,-594.97 617.75,-594.97 617.75,-635.97"/>
<text xml:space="preserve" text-anchor="middle" x="568.88" y="-618.67" font-family="Times,serif" font-size="14.00">ALIKE8</text>
<text xml:space="preserve" text-anchor="middle" x="568.88" y="-602.17" font-family="Times,serif" font-size="14.00">Maze all alike.</text>
</g>
<!-- ALIKE6&#45;&gt;ALIKE8 -->
<g id="edge27" class="edge">
<title>ALIKE6&#45;&gt;ALIKE8</title>
<path fill="none" stroke="black" d="M426.14,-534.22C436.81,-547.8 452.47,-565.41 469.62,-576.97 473.54,-579.6 490.22,-586.14 508.82,-593.02"/>
<polygon fill="black" stroke="black" points="507.58,-596.3 518.17,-596.46 509.99,-589.73 507.58,-596.3"/>
<text xml:space="preserve" text-anchor="middle" x="472.25" y="-563.67" font-family="Times,serif" font-size="14.00">s</text>
</g>
<!-- ALIKE7&#45;&gt;ALIKE5 -->
<g id="edge28" class="edge">
<title>ALIKE7&#45;&gt;ALIKE5</title>
<path fill="none" stroke="black" d="M486.71,-335.28C472.18,-341.04 456.57,-348.18 443.12,-356.48 431.19,-363.86 419.32,-373.61 409.26,-382.79"/>
<polygon fill="black" stroke="black" points="406.91,-380.19 402.02,-389.6 411.7,-385.29 406.91,-380.19"/>
<text xml:space="preserve" text-anchor="middle" x="448" y="-359.68" font-family="Times,serif" font-size="14.00">w</text>
</g>
<!-- ALIKE7&#45;&gt;ALIKE6 -->
<g id="edge29" class="edge">
<title>ALIKE7&#45;&gt;ALIKE6</title>
<path fill="none" stroke="black" d="M528.39,-338.62C519.11,-361.86 502.04,-401.26 481.88,-431.98 469.64,-450.62 453.44,-469.53 439.7,-484.33"/>
<polygon fill="black" stroke="black" points="437.31,-481.76 432.98,-491.44 442.4,-486.57 437.31,-481.76"/>
<text xml:space="preserve" text-anchor="middle" x="507.86" y="-406.43" font-family="Times,serif" font-size="14.00">u</text>
</g>
<!-- ALIKE7&#45;&gt;ALIKE8 -->
<g id="edge30" class="edge">
<title>ALIKE7&#45;&gt;ALIKE8</title>
<path fill="none" stroke="black" d="M550.58,-338.52C571.85,-368.19 610.16,-427.2 623.88,-484.48 629.87,-509.54 632.13,-518.05 623.88,-542.47 618.44,-558.53 607.83,-573.84 597.36,-586.17"/>
<polygon fill="black" stroke="black" points="594.9,-583.68 590.85,-593.47 600.12,-588.34 594.9,-583.68"/>
<text xml:space="preserve" text-anchor="middle" x="621.58" y="-453.18" font-family="Times,serif" font-size="14.00">e</text>
</g>
<!-- ALIKE9 -->
<g id="node14" class="node">
<title>ALIKE9</title>
<polygon fill="none" stroke="black" points="729.75,-244.98 632,-244.98 632,-203.98 729.75,-203.98 729.75,-244.98"/>
<text xml:space="preserve" text-anchor="middle" x="680.88" y="-227.68" font-family="Times,serif" font-size="14.00">ALIKE9</text>
<text xml:space="preserve" text-anchor="middle" x="680.88" y="-211.18" font-family="Times,serif" font-size="14.00">Maze all alike.</text>
</g>
<!-- ALIKE7&#45;&gt;ALIKE9 -->
<g id="edge31" class="edge">
<title>ALIKE7&#45;&gt;ALIKE9</title>
<path fill="none" stroke="black" d="M549.68,-297.1C558.35,-285.84 570.37,-272.2 583.62,-262.98 594.89,-255.16 608,-248.68 620.89,-243.43"/>
<polygon fill="black" stroke="black" points="622.12,-246.71 630.2,-239.86 619.61,-240.18 622.12,-246.71"/>
<text xml:space="preserve" text-anchor="middle" x="586.25" y="-266.18" font-family="Times,serif" font-size="14.00">s</text>
</g>
<!-- ALIKE8&#45;&gt;ALIKE6 -->
<g id="edge32" class="edge">
<title>ALIKE8&#45;&gt;ALIKE6</title>
<path fill="none" stroke="black" d="M519.61,-597.57C516.66,-596.66 513.73,-595.79 510.88,-594.97 478.04,-585.51 461.85,-599.46 436.12,-576.97 426.86,-568.86 421.11,-556.79 417.56,-545.41"/>
<polygon fill="black" stroke="black" points="420.98,-544.69 415.06,-535.9 414.21,-546.46 420.98,-544.69"/>
<text xml:space="preserve" text-anchor="middle" x="441" y="-563.67" font-family="Times,serif" font-size="14.00">w</text>
</g>
<!-- ALIKE8&#45;&gt;ALIKE7 -->
<g id="edge33" class="edge">
<title>ALIKE8&#45;&gt;ALIKE7</title>
<path fill="none" stroke="black" d="M544.89,-594.5C531.1,-581.35 515.1,-562.85 507.88,-542.47 482.46,-470.82 519.67,-448.17 530.88,-372.98 531.98,-365.59 532.88,-357.59 533.59,-350.06"/>
<polygon fill="black" stroke="black" points="537.06,-350.57 534.44,-340.3 530.09,-349.96 537.06,-350.57"/>
<text xml:space="preserve" text-anchor="middle" x="511.61" y="-453.18" font-family="Times,serif" font-size="14.00">e</text>
</g>
<!-- ALIKE8&#45;&gt;ALIKE8 -->
<g id="edge34" class="edge">
<title>ALIKE8&#45;&gt;ALIKE8</title>
<path fill="none" stroke="black" d="M618.16,-623.92C628.39,-623.03 635.75,-620.21 635.75,-615.47 635.75,-612.72 633.29,-610.62 629.24,-609.16"/>
<polygon fill="black" stroke="black" points="630.13,-605.77 619.65,-607.3 628.79,-612.64 630.13,-605.77"/>
<text xml:space="preserve" text-anchor="middle" x="638.38" y="-610.42" font-family="Times,serif" font-size="14.00">s</text>
</g>
<!-- ALIKE8&#45;&gt;ALIKE9 -->
<g id="edge35" class="edge">
<title>ALIKE8&#45;&gt;ALIKE9</title>
<path fill="none" stroke="black" d="M616.05,-594.49C646.66,-578.02 680.88,-551.36 680.88,-514.47 680.88,-514.47 680.88,-514.47 680.88,-316.98 680.88,-296.98 680.88,-274.51 680.88,-256.85"/>
<polygon fill="black" stroke="black" points="684.38,-256.99 680.88,-246.99 677.38,-256.99 684.38,-256.99"/>
<text xml:space="preserve" text-anchor="middle" x="684.25" y="-406.43" font-family="Times,serif" font-size="14.00">u</text>
</g>
<!-- ALIKE10 -->
<g id="node16" class="node">
<title>ALIKE10</title>
<polygon fill="none" stroke="black" points="558.75,-749.62 461,-749.62 461,-708.62 558.75,-708.62 558.75,-749.62"/>
<text xml:space="preserve" text-anchor="middle" x="509.88" y="-732.32" font-family="Times,serif" font-size="14.00">ALIKE10</text>
<text xml:space="preserve" text-anchor="middle" x="509.88" y="-715.82" font-family="Times,serif" font-size="14.00">Maze all alike.</text>
</g>
<!-- ALIKE8&#45;&gt;ALIKE10 -->
<g id="edge36" class="edge">
<title>ALIKE8&#45;&gt;ALIKE10</title>
<path fill="none" stroke="black" d="M561.29,-636.3C557.11,-646.66 551.62,-659.44 545.88,-670.47 540.96,-679.89 535.05,-689.83 529.45,-698.74"/>
<polygon fill="black" stroke="black" points="526.59,-696.71 524.14,-707.02 532.48,-700.49 526.59,-696.71"/>
<text xml:space="preserve" text-anchor="middle" x="556.94" y="-657.17" font-family="Times,serif" font-size="14.00">n</text>
</g>
<!-- MAZEEND11 -->
<g id="node27" class="node">
<title>MAZEEND11</title>
<polygon fill="none" stroke="black" points="614.75,-533.97 517,-533.97 517,-492.97 614.75,-492.97 614.75,-533.97"/>
<text xml:space="preserve" text-anchor="middle" x="565.88" y="-516.67" font-family="Times,serif" font-size="14.00">MAZEEND11</text>
<text xml:space="preserve" text-anchor="middle" x="565.88" y="-500.17" font-family="Times,serif" font-size="14.00">Maze all alike.</text>
</g>
<!-- ALIKE8&#45;&gt;MAZEEND11 -->
<g id="edge37" class="edge">
<title>ALIKE8&#45;&gt;MAZEEND11</title>
<path fill="none" stroke="black" d="M571.39,-594.65C572,-588.95 572.57,-582.72 572.88,-576.97 573.26,-569.64 573.43,-567.78 572.88,-560.47 572.5,-555.57 571.92,-550.41 571.23,-545.39"/>
<polygon fill="black" stroke="black" points="574.71,-544.96 569.75,-535.59 567.79,-546 574.71,-544.96"/>
<text xml:space="preserve" text-anchor="middle" x="576.61" y="-563.67" font-family="Times,serif" font-size="14.00">d</text>
</g>
<!-- ALIKE9&#45;&gt;ALIKE7 -->
<g id="edge38" class="edge">
<title>ALIKE9&#45;&gt;ALIKE7</title>
<path fill="none" stroke="black" d="M649.22,-245.46C627.97,-258.87 599.77,-276.66 576.82,-291.15"/>
<polygon fill="black" stroke="black" points="575.21,-288.02 568.62,-296.32 578.94,-293.94 575.21,-288.02"/>
<text xml:space="preserve" text-anchor="middle" x="626.24" y="-266.18" font-family="Times,serif" font-size="14.00">w</text>
</g>
<!-- ALIKE9&#45;&gt;ALIKE8 -->
<g id="edge39" class="edge">
<title>ALIKE9&#45;&gt;ALIKE8</title>
<path fill="none" stroke="black" d="M696.4,-245.31C708.72,-263.05 723.88,-290.3 723.88,-316.98 723.88,-514.47 723.88,-514.47 723.88,-514.47 723.88,-561.71 672.42,-587.71 628.8,-601.26"/>
<polygon fill="black" stroke="black" points="627.99,-597.85 619.37,-604.02 629.95,-604.57 627.99,-597.85"/>
<text xml:space="preserve" text-anchor="middle" x="727.25" y="-406.43" font-family="Times,serif" font-size="14.00">n</text>
</g>
<!-- MAZEEND4 -->
<g id="node15" class="node">
<title>MAZEEND4</title>
<polygon fill="none" stroke="black" points="782.75,-142.99 685,-142.99 685,-101.99 782.75,-101.99 782.75,-142.99"/>
<text xml:space="preserve" text-anchor="middle" x="733.88" y="-125.69" font-family="Times,serif" font-size="14.00">MAZEEND4</text>
<text xml:space="preserve" text-anchor="middle" x="733.88" y="-109.19" font-family="Times,serif" font-size="14.00">Maze all alike.</text>
</g>
<!-- ALIKE9&#45;&gt;MAZEEND4 -->
<g id="edge40" class="edge">
<title>ALIKE9&#45;&gt;MAZEEND4</title>
<path fill="none" stroke="black" d="M699.32,-203.81C703.84,-198.32 708.38,-192.16 711.88,-185.98 717.45,-176.13 721.99,-164.62 725.46,-154.18"/>
<polygon fill="black" stroke="black" points="728.74,-155.43 728.37,-144.85 722.05,-153.35 728.74,-155.43"/>
<text xml:space="preserve" text-anchor="middle" x="722.35" y="-172.68" font-family="Times,serif" font-size="14.00">s</text>
</g>
<!-- MAZEEND4&#45;&gt;ALIKE9 -->
<g id="edge41" class="edge">
<title>MAZEEND4&#45;&gt;ALIKE9</title>
<path fill="none" stroke="black" d="M700.17,-143.28C691.26,-150.33 682.77,-159.13 677.88,-169.48 674.57,-176.47 673.7,-184.55 674.04,-192.3"/>
<polygon fill="black" stroke="black" points="670.55,-192.57 675.16,-202.11 677.51,-191.78 670.55,-192.57"/>
<text xml:space="preserve" text-anchor="middle" x="692.88" y="-172.68" font-family="Times,serif" font-size="14.00">w,out</text>
</g>
<!-- ALIKE10&#45;&gt;ALIKE8 -->
<g id="edge42" class="edge">
<title>ALIKE10&#45;&gt;ALIKE8</title>
<path fill="none" stroke="black" d="M514.29,-708.3C518.28,-692.81 525.08,-671.09 535.12,-653.97 536.89,-650.96 538.91,-647.99 541.08,-645.11"/>
<polygon fill="black" stroke="black" points="543.72,-647.42 547.37,-637.47 538.31,-642.97 543.72,-647.42"/>
<text xml:space="preserve" text-anchor="middle" x="540" y="-657.17" font-family="Times,serif" font-size="14.00">w</text>
</g>
<!-- ALIKE10&#45;&gt;ALIKE10 -->
<g id="edge43" class="edge">
<title>ALIKE10&#45;&gt;ALIKE10</title>
<path fill="none" stroke="black" d="M559.16,-741.23C569.39,-739.95 576.75,-735.92 576.75,-729.12 576.75,-725.2 574.29,-722.19 570.24,-720.11"/>
<polygon fill="black" stroke="black" points="571.19,-716.74 560.62,-717.43 569.31,-723.48 571.19,-716.74"/>
<text xml:space="preserve" text-anchor="middle" x="580.12" y="-724.07" font-family="Times,serif" font-size="14.00">n</text>
</g>
<!-- MAZEEND5 -->
<g id="node17" class="node">
<title>MAZEEND5</title>
<polygon fill="none" stroke="black" points="501.75,-635.97 404,-635.97 404,-594.97 501.75,-594.97 501.75,-635.97"/>
<text xml:space="preserve" text-anchor="middle" x="452.88" y="-618.67" font-family="Times,serif" font-size="14.00">MAZEEND5</text>
<text xml:space="preserve" text-anchor="middle" x="452.88" y="-602.17" font-family="Times,serif" font-size="14.00">Maze all alike.</text>
</g>
<!-- ALIKE10&#45;&gt;MAZEEND5 -->
<g id="edge44" class="edge">
<title>ALIKE10&#45;&gt;MAZEEND5</title>
<path fill="none" stroke="black" d="M485.43,-708.2C474.81,-698.09 463.39,-684.9 457.12,-670.47 454.1,-663.5 452.56,-655.56 451.87,-647.95"/>
<polygon fill="black" stroke="black" points="455.37,-647.81 451.46,-637.97 448.37,-648.1 455.37,-647.81"/>
<text xml:space="preserve" text-anchor="middle" x="460.5" y="-657.17" font-family="Times,serif" font-size="14.00">d</text>
</g>
<!-- PITBRINK -->
<g id="node18" class="node">
<title>PITBRINK</title>
<polygon fill="none" stroke="black" points="720.62,-863.28 637.12,-863.28 637.12,-822.28 720.62,-822.28 720.62,-863.28"/>
<text xml:space="preserve" text-anchor="middle" x="678.88" y="-845.98" font-family="Times,serif" font-size="14.00">PITBRINK</text>
<text xml:space="preserve" text-anchor="middle" x="678.88" y="-829.48" font-family="Times,serif" font-size="14.00">Brink of pit.</text>
</g>
<!-- ALIKE10&#45;&gt;PITBRINK -->
<g id="edge45" class="edge">
<title>ALIKE10&#45;&gt;PITBRINK</title>
<path fill="none" stroke="black" d="M540.11,-750.1C567.79,-768.39 608.93,-795.57 639.23,-815.59"/>
<polygon fill="black" stroke="black" points="637.13,-818.39 647.4,-820.99 640.98,-812.55 637.13,-818.39"/>
<text xml:space="preserve" text-anchor="middle" x="622.39" y="-790.98" font-family="Times,serif" font-size="14.00">e</text>
</g>
<!-- MAZEEND5&#45;&gt;ALIKE10 -->
<g id="edge46" class="edge">
<title>MAZEEND5&#45;&gt;ALIKE10</title>
<path fill="none" stroke="black" d="M462.98,-636.26C471.7,-653.35 484.45,-678.32 494.45,-697.91"/>
<polygon fill="black" stroke="black" points="491.33,-699.5 499,-706.81 497.57,-696.32 491.33,-699.5"/>
<text xml:space="preserve" text-anchor="middle" x="493.54" y="-657.17" font-family="Times,serif" font-size="14.00">u,out</text>
</g>
<!-- PITBRINK&#45;&gt;BIRDCHAMBER -->
<g id="edge47" class="edge">
<title>PITBRINK&#45;&gt;BIRDCHAMBER</title>
<path fill="none" stroke="black" d="M636.76,-834.41C604.09,-828.09 557.95,-817.87 518.88,-804.28 487.52,-793.38 454.07,-778.23 426.06,-764.47"/>
<polygon fill="black" stroke="black" points="427.86,-761.46 417.35,-760.14 424.75,-767.72 427.86,-761.46"/>
<text xml:space="preserve" text-anchor="middle" x="539.88" y="-790.98" font-family="Times,serif" font-size="14.00">d,climb</text>
</g>
<!-- PITBRINK&#45;&gt;ALIKE10 -->
<g id="edge48" class="edge">
<title>PITBRINK&#45;&gt;ALIKE10</title>
<path fill="none" stroke="black" d="M637.01,-828.78C620.45,-822.65 601.69,-814.43 586.12,-804.28 566.73,-791.63 548.04,-773.59 534.02,-758.46"/>
<polygon fill="black" stroke="black" points="536.65,-756.15 527.35,-751.08 531.46,-760.84 536.65,-756.15"/>
<text xml:space="preserve" text-anchor="middle" x="591" y="-790.98" font-family="Times,serif" font-size="14.00">w</text>
</g>
<!-- MAZEEND6 -->
<g id="node19" class="node">
<title>MAZEEND6</title>
<polygon fill="none" stroke="black" points="699.75,-749.62 602,-749.62 602,-708.62 699.75,-708.62 699.75,-749.62"/>
<text xml:space="preserve" text-anchor="middle" x="650.88" y="-732.32" font-family="Times,serif" font-size="14.00">MAZEEND6</text>
<text xml:space="preserve" text-anchor="middle" x="650.88" y="-715.82" font-family="Times,serif" font-size="14.00">Maze all alike.</text>
</g>
<!-- PITBRINK&#45;&gt;MAZEEND6 -->
<g id="edge49" class="edge">
<title>PITBRINK&#45;&gt;MAZEEND6</title>
<path fill="none" stroke="black" d="M664.15,-822.05C660.76,-816.56 657.58,-810.41 655.62,-804.28 651.22,-790.5 649.76,-774.56 649.51,-761"/>
<polygon fill="black" stroke="black" points="653.01,-761.34 649.56,-751.32 646.01,-761.31 653.01,-761.34"/>
<text xml:space="preserve" text-anchor="middle" x="658.25" y="-790.98" font-family="Times,serif" font-size="14.00">s</text>
</g>
<!-- ALIKE12 -->
<g id="node24" class="node">
<title>ALIKE12</title>
<polygon fill="none" stroke="black" points="857.75,-749.62 760,-749.62 760,-708.62 857.75,-708.62 857.75,-749.62"/>
<text xml:space="preserve" text-anchor="middle" x="808.88" y="-732.32" font-family="Times,serif" font-size="14.00">ALIKE12</text>
<text xml:space="preserve" text-anchor="middle" x="808.88" y="-715.82" font-family="Times,serif" font-size="14.00">Maze all alike.</text>
</g>
<!-- PITBRINK&#45;&gt;ALIKE12 -->
<g id="edge50" class="edge">
<title>PITBRINK&#45;&gt;ALIKE12</title>
<path fill="none" stroke="black" d="M720.86,-823.27C730.88,-817.89 741.18,-811.49 749.88,-804.28 765.35,-791.45 779.5,-773.96 790.06,-759.2"/>
<polygon fill="black" stroke="black" points="792.78,-761.42 795.6,-751.2 787.03,-757.43 792.78,-761.42"/>
<text xml:space="preserve" text-anchor="middle" x="770.07" y="-790.98" font-family="Times,serif" font-size="14.00">n</text>
</g>
<!-- ALIKE13 -->
<g id="node25" class="node">
<title>ALIKE13</title>
<polygon fill="none" stroke="black" points="931.75,-635.97 834,-635.97 834,-594.97 931.75,-594.97 931.75,-635.97"/>
<text xml:space="preserve" text-anchor="middle" x="882.88" y="-618.67" font-family="Times,serif" font-size="14.00">ALIKE13</text>
<text xml:space="preserve" text-anchor="middle" x="882.88" y="-602.17" font-family="Times,serif" font-size="14.00">Maze all alike.</text>
</g>
<!-- PITBRINK&#45;&gt;ALIKE13 -->
<g id="edge51" class="edge">
<title>PITBRINK&#45;&gt;ALIKE13</title>
<path fill="none" stroke="black" d="M690.74,-821.81C693.87,-816.22 697.14,-810.09 699.88,-804.28 730.76,-738.76 706.83,-699.86 762.88,-653.97 782.65,-637.77 794.66,-642.95 822.53,-636.26"/>
<polygon fill="black" stroke="black" points="823.4,-639.65 832.1,-633.61 821.53,-632.91 823.4,-639.65"/>
<text xml:space="preserve" text-anchor="middle" x="735.55" y="-724.07" font-family="Times,serif" font-size="14.00">e</text>
</g>
<!-- MAZEEND6&#45;&gt;PITBRINK -->
<g id="edge52" class="edge">
<title>MAZEEND6&#45;&gt;PITBRINK</title>
<path fill="none" stroke="black" d="M655.84,-749.91C660.06,-766.77 666.21,-791.29 671.09,-810.75"/>
<polygon fill="black" stroke="black" points="667.67,-811.5 673.5,-820.35 674.46,-809.8 667.67,-811.5"/>
<text xml:space="preserve" text-anchor="middle" x="682.52" y="-790.98" font-family="Times,serif" font-size="14.00">e,out</text>
</g>
<!-- SECRET2 -->
<g id="node20" class="node">
<title>SECRET2</title>
<ellipse fill="none" stroke="black" cx="195.88" cy="-513.47" rx="65.41" ry="28.99"/>
<text xml:space="preserve" text-anchor="middle" x="195.88" y="-516.67" font-family="Times,serif" font-size="14.00">SECRET2</text>
<text xml:space="preserve" text-anchor="middle" x="195.88" y="-500.17" font-family="Times,serif" font-size="14.00">Secret canyon</text>
</g>
<!-- TOPSTALACTITE -->
<g id="node29" class="node">
<title>TOPSTALACTITE</title>
<polygon fill="none" stroke="black" points="227.5,-635.97 104.25,-635.97 104.25,-594.97 227.5,-594.97 227.5,-635.97"/>
<text xml:space="preserve" text-anchor="middle" x="165.88" y="-618.67" font-family="Times,serif" font-size="14.00">TOPSTALACTITE</text>
<text xml:space="preserve" text-anchor="middle" x="165.88" y="-602.17" font-family="Times,serif" font-size="14.00">Top of stalactite.</text>
</g>
<!-- SECRET2&#45;&gt;TOPSTALACTITE -->
<g id="edge53" class="edge">
<title>SECRET2&#45;&gt;TOPSTALACTITE</title>
<path fill="none" stroke="black" d="M187.46,-542.52C183.6,-555.37 179.02,-570.64 175.07,-583.8"/>
<polygon fill="black" stroke="black" points="171.76,-582.68 172.24,-593.26 178.46,-584.69 171.76,-582.68"/>
<text xml:space="preserve" text-anchor="middle" x="184.4" y="-563.67" font-family="Times,serif" font-size="14.00">s</text>
</g>
<!-- ALIKE11&#45;&gt;ALIKE1 -->
<g id="edge54" class="edge">
<title>ALIKE11&#45;&gt;ALIKE1</title>
<path fill="none" stroke="black" d="M353.18,-143.21C357.74,-157.44 363.98,-176.92 369.16,-193.13"/>
<polygon fill="black" stroke="black" points="365.71,-193.83 372.09,-202.29 372.38,-191.7 365.71,-193.83"/>
<text xml:space="preserve" text-anchor="middle" x="370.06" y="-172.68" font-family="Times,serif" font-size="14.00">n</text>
</g>
<!-- ALIKE11&#45;&gt;ALIKE11 -->
<g id="edge55" class="edge">
<title>ALIKE11&#45;&gt;ALIKE11</title>
<path fill="none" stroke="black" d="M396.16,-132.48C406.39,-131.43 413.75,-128.1 413.75,-122.49 413.75,-119.25 411.29,-116.77 407.24,-115.05"/>
<polygon fill="black" stroke="black" points="408.16,-111.67 397.63,-112.84 406.6,-118.49 408.16,-111.67"/>
<text xml:space="preserve" text-anchor="middle" x="416.38" y="-117.44" font-family="Times,serif" font-size="14.00">s</text>
</g>
<!-- MAZEEND8 -->
<g id="node22" class="node">
<title>MAZEEND8</title>
<polygon fill="none" stroke="black" points="445.75,-41 348,-41 348,0 445.75,0 445.75,-41"/>
<text xml:space="preserve" text-anchor="middle" x="396.88" y="-23.7" font-family="Times,serif" font-size="14.00">MAZEEND8</text>
<text xml:space="preserve" text-anchor="middle" x="396.88" y="-7.2" font-family="Times,serif" font-size="14.00">Maze all alike.</text>
</g>
<!-- ALIKE11&#45;&gt;MAZEEND8 -->
<g id="edge56" class="edge">
<title>ALIKE11&#45;&gt;MAZEEND8</title>
<path fill="none" stroke="black" d="M350.81,-101.56C353.82,-88.88 358.68,-72.39 365.88,-59 367.41,-56.14 369.19,-53.29 371.09,-50.52"/>
<polygon fill="black" stroke="black" points="373.78,-52.76 377.01,-42.67 368.19,-48.55 373.78,-52.76"/>
<text xml:space="preserve" text-anchor="middle" x="368.88" y="-62.2" font-family="Times,serif" font-size="14.00">e</text>
</g>
<!-- MAZEEND8&#45;&gt;ALIKE11 -->
<g id="edge57" class="edge">
<title>MAZEEND8&#45;&gt;ALIKE11</title>
<path fill="none" stroke="black" d="M388.03,-41.39C383.38,-51.66 377.49,-64.33 371.88,-75.5 369.19,-80.84 366.23,-86.48 363.32,-91.9"/>
<polygon fill="black" stroke="black" points="360.29,-90.16 358.58,-100.61 366.44,-93.5 360.29,-90.16"/>
<text xml:space="preserve" text-anchor="middle" x="394.74" y="-62.2" font-family="Times,serif" font-size="14.00">w,out</text>
</g>
<!-- MAZEEND9&#45;&gt;ALIKE3 -->
<g id="edge58" class="edge">
<title>MAZEEND9&#45;&gt;ALIKE3</title>
<path fill="none" stroke="black" d="M289.38,-338.8C285.45,-350.78 280.36,-366.31 275.92,-379.85"/>
<polygon fill="black" stroke="black" points="272.65,-378.6 272.86,-389.19 279.3,-380.78 272.65,-378.6"/>
<text xml:space="preserve" text-anchor="middle" x="296.69" y="-359.68" font-family="Times,serif" font-size="14.00">s,out</text>
</g>
<!-- ALIKE12&#45;&gt;PITBRINK -->
<g id="edge59" class="edge">
<title>ALIKE12&#45;&gt;PITBRINK</title>
<path fill="none" stroke="black" d="M805.15,-749.93C801.09,-766.47 793.02,-789.64 777.88,-804.28 765.19,-816.54 748.1,-824.88 731.7,-830.51"/>
<polygon fill="black" stroke="black" points="731.01,-827.06 722.51,-833.39 733.1,-833.74 731.01,-827.06"/>
<text xml:space="preserve" text-anchor="middle" x="792.48" y="-790.98" font-family="Times,serif" font-size="14.00">s</text>
</g>
<!-- ALIKE12&#45;&gt;ALIKE13 -->
<g id="edge60" class="edge">
<title>ALIKE12&#45;&gt;ALIKE13</title>
<path fill="none" stroke="black" d="M820.93,-708.4C830.25,-693.34 843.58,-672.15 855.88,-653.97 857.79,-651.13 859.82,-648.2 861.86,-645.29"/>
<polygon fill="black" stroke="black" points="864.53,-647.57 867.48,-637.4 858.83,-643.51 864.53,-647.57"/>
<text xml:space="preserve" text-anchor="middle" x="858.88" y="-657.17" font-family="Times,serif" font-size="14.00">e</text>
</g>
<!-- MAZEEND10 -->
<g id="node26" class="node">
<title>MAZEEND10</title>
<polygon fill="none" stroke="black" points="815.75,-635.97 718,-635.97 718,-594.97 815.75,-594.97 815.75,-635.97"/>
<text xml:space="preserve" text-anchor="middle" x="766.88" y="-618.67" font-family="Times,serif" font-size="14.00">MAZEEND10</text>
<text xml:space="preserve" text-anchor="middle" x="766.88" y="-602.17" font-family="Times,serif" font-size="14.00">Maze all alike.</text>
</g>
<!-- ALIKE12&#45;&gt;MAZEEND10 -->
<g id="edge61" class="edge">
<title>ALIKE12&#45;&gt;MAZEEND10</title>
<path fill="none" stroke="black" d="M791.61,-708.2C783.56,-697.7 774.76,-684.18 770.12,-670.47 767.72,-663.34 766.5,-655.39 765.96,-647.83"/>
<polygon fill="black" stroke="black" points="769.46,-647.84 765.65,-637.95 762.46,-648.06 769.46,-647.84"/>
<text xml:space="preserve" text-anchor="middle" x="775" y="-657.17" font-family="Times,serif" font-size="14.00">w</text>
</g>
<!-- ALIKE13&#45;&gt;PITBRINK -->
<g id="edge62" class="edge">
<title>ALIKE13&#45;&gt;PITBRINK</title>
<path fill="none" stroke="black" d="M886.55,-636.26C891.23,-667.71 895.59,-729.62 866.88,-769.78 836.18,-812.72 776.28,-830.05 732.32,-837.05"/>
<polygon fill="black" stroke="black" points="731.84,-833.58 722.44,-838.47 732.84,-840.51 731.84,-833.58"/>
<text xml:space="preserve" text-anchor="middle" x="893.18" y="-724.07" font-family="Times,serif" font-size="14.00">n</text>
</g>
<!-- ALIKE13&#45;&gt;ALIKE12 -->
<g id="edge63" class="edge">
<title>ALIKE13&#45;&gt;ALIKE12</title>
<path fill="none" stroke="black" d="M875.65,-636.42C871.45,-646.93 865.65,-659.82 858.88,-670.47 852.42,-680.61 844.26,-690.81 836.42,-699.75"/>
<polygon fill="black" stroke="black" points="833.88,-697.34 829.76,-707.1 839.07,-702.03 833.88,-697.34"/>
<text xml:space="preserve" text-anchor="middle" x="872.38" y="-657.17" font-family="Times,serif" font-size="14.00">w</text>
</g>
<!-- MAZEEND12 -->
<g id="node30" class="node">
<title>MAZEEND12</title>
<polygon fill="none" stroke="black" points="931,-533.97 834.75,-533.97 834.75,-492.97 931,-492.97 931,-533.97"/>
<text xml:space="preserve" text-anchor="middle" x="882.88" y="-516.67" font-family="Times,serif" font-size="14.00">MAZEEND12</text>
<text xml:space="preserve" text-anchor="middle" x="882.88" y="-500.17" font-family="Times,serif" font-size="14.00">Dead end</text>
</g>
<!-- ALIKE13&#45;&gt;MAZEEND12 -->
<g id="edge64" class="edge">
<title>ALIKE13&#45;&gt;MAZEEND12</title>
<path fill="none" stroke="black" d="M882.88,-594.71C882.88,-580.6 882.88,-561.35 882.88,-545.24"/>
<polygon fill="black" stroke="black" points="886.38,-545.7 882.88,-535.7 879.38,-545.7 886.38,-545.7"/>
<text xml:space="preserve" text-anchor="middle" x="891.12" y="-563.67" font-family="Times,serif" font-size="14.00">nw</text>
</g>
<!-- MAZEEND10&#45;&gt;ALIKE12 -->
<g id="edge65" class="edge">
<title>MAZEEND10&#45;&gt;ALIKE12</title>
<path fill="none" stroke="black" d="M774.32,-636.26C780.72,-653.27 790.05,-678.09 797.41,-697.64"/>
<polygon fill="black" stroke="black" points="794.04,-698.62 800.83,-706.75 800.59,-696.15 794.04,-698.62"/>
<text xml:space="preserve" text-anchor="middle" x="800.12" y="-657.17" font-family="Times,serif" font-size="14.00">e,out</text>
</g>
<!-- MAZEEND11&#45;&gt;ALIKE8 -->
<g id="edge66" class="edge">
<title>MAZEEND11&#45;&gt;ALIKE8</title>
<path fill="none" stroke="black" d="M550.51,-534.24C542.93,-546.42 536.34,-562.45 541.12,-576.97 542.03,-579.72 543.23,-582.45 544.63,-585.09"/>
<polygon fill="black" stroke="black" points="541.63,-586.9 549.92,-593.5 547.56,-583.18 541.63,-586.9"/>
<text xml:space="preserve" text-anchor="middle" x="555" y="-563.67" font-family="Times,serif" font-size="14.00">u,out</text>
</g>
<!-- ALIKE14&#45;&gt;ALIKE4 -->
<g id="edge67" class="edge">
<title>ALIKE14&#45;&gt;ALIKE4</title>
<path fill="none" stroke="black" d="M176.7,-41.49C179.83,-47.08 183.11,-53.21 185.88,-59 190.76,-69.22 195.53,-80.66 199.57,-90.93"/>
<polygon fill="black" stroke="black" points="196.24,-92.02 203.1,-100.09 202.77,-89.5 196.24,-92.02"/>
<text xml:space="preserve" text-anchor="middle" x="201.32" y="-62.2" font-family="Times,serif" font-size="14.00">u,d</text>
</g>
<!-- TOPSTALACTITE&#45;&gt;ALIKE4 -->
<g id="edge71" class="edge">
<title>TOPSTALACTITE&#45;&gt;ALIKE4</title>
<path fill="none" stroke="black" d="M143.84,-594.54C125.67,-575.84 102.88,-546.07 102.88,-514.47 102.88,-514.47 102.88,-514.47 102.88,-223.48 102.88,-190.94 129.61,-166.03 156.47,-149.21"/>
<polygon fill="black" stroke="black" points="158.2,-152.26 165.02,-144.15 154.63,-146.23 158.2,-152.26"/>
<text xml:space="preserve" text-anchor="middle" x="106.25" y="-359.68" font-family="Times,serif" font-size="14.00">d</text>
</g>
<!-- TOPSTALACTITE&#45;&gt;ALIKE6 -->
<g id="edge69" class="edge">
<title>TOPSTALACTITE&#45;&gt;ALIKE6</title>
<path fill="none" stroke="black" d="M215.07,-594.47C254.53,-578.43 310.09,-555.84 352.12,-538.76"/>
<polygon fill="black" stroke="black" points="353.42,-542.01 361.37,-535 350.79,-535.53 353.42,-542.01"/>
<text xml:space="preserve" text-anchor="middle" x="333.38" y="-563.67" font-family="Times,serif" font-size="14.00">d,jump,climb</text>
</g>
<!-- TOPSTALACTITE&#45;&gt;ALIKE9 -->
<g id="edge70" class="edge">
<title>TOPSTALACTITE&#45;&gt;ALIKE9</title>
<path fill="none" stroke="black" d="M111.76,-594.66C103.34,-589.83 95.31,-583.98 88.88,-576.97 68.77,-555.04 64.88,-544.23 64.88,-514.47 64.88,-514.47 64.88,-514.47 64.88,-316.98 64.88,-289.1 465.05,-246.72 620.32,-231.33"/>
<polygon fill="black" stroke="black" points="620.39,-234.84 630,-230.37 619.7,-227.87 620.39,-234.84"/>
<text xml:space="preserve" text-anchor="middle" x="68.25" y="-406.43" font-family="Times,serif" font-size="14.00">d</text>
</g>
<!-- TOPSTALACTITE&#45;&gt;SECRET2 -->
<g id="edge68" class="edge">
<title>TOPSTALACTITE&#45;&gt;SECRET2</title>
<path fill="none" stroke="black" d="M164.89,-594.58C164.92,-584.21 165.81,-571.43 169.12,-560.47 170,-557.58 171.08,-554.68 172.31,-551.83"/>
<polygon fill="black" stroke="black" points="175.33,-553.61 176.6,-543.09 169.05,-550.52 175.33,-553.61"/>
<text xml:space="preserve" text-anchor="middle" x="172.5" y="-563.67" font-family="Times,serif" font-size="14.00">n</text>
</g>
<!-- MAZEEND12&#45;&gt;ALIKE13 -->
<g id="edge72" class="edge">
<title>MAZEEND12&#45;&gt;ALIKE13</title>
<path fill="none" stroke="black" d="M873.51,-534.35C868.88,-546.58 864.82,-562.61 867.62,-576.97 868.08,-579.28 868.67,-581.64 869.37,-583.98"/>
<polygon fill="black" stroke="black" points="866.01,-584.99 872.66,-593.24 872.61,-582.64 866.01,-584.99"/>
<text xml:space="preserve" text-anchor="middle" x="873.25" y="-563.67" font-family="Times,serif" font-size="14.00">se</text>
</g>
</g>
</svg>
