<?xml version="1.0" encoding="UTF-8" standalone="no"?>
<!DOCTYPE svg PUBLIC "-//W3C//DTD SVG 1.1//EN"
 "http://www.w3.org/Graphics/SVG/1.1/DTD/svg11.dtd">
<!-- Generated by graphviz version 14.1.3 (20260303.0454)
 -->
<!-- Title: G Pages: 1 -->
<svg width="2049pt" height="1315pt"
 viewBox="0.00 0.00 2049.00 1315.00" xmlns="http://www.w3.org/2000/svg" xmlns:xlink="http://www.w3.org/1999/xlink">
<g id="graph0" class="graph" transform="scale(1 1) rotate(0) translate(4 1310.97)">
<title>G</title>
<polygon fill="white" stroke="none" points="-4,4 -4,-1310.97 2044.75,-1310.97 2044.75,4 -4,4"/>
<!-- LONGWEST -->
<g id="node1" class="node">
<title>LONGWEST</title>
<ellipse fill="none" stroke="black" cx="1224" cy="-1277.97" rx="69.12" ry="28.99"/>
<text xml:space="preserve" text-anchor="middle" x="1224" y="-1281.17" font-family="Times,serif" font-size="14.00">LONGWEST</text>
<text xml:space="preserve" text-anchor="middle" x="1224" y="-1264.67" font-family="Times,serif" font-size="14.00">Maze all alike.</text>
</g>
<!-- DIFFERENT1 -->
<g id="node2" class="node">
<title>DIFFERENT1</title>
<polygon fill="none" stroke="black" points="1281.12,-1196.48 1166.88,-1196.48 1166.88,-1155.48 1281.12,-1155.48 1281.12,-1196.48"/>
<text xml:space="preserve" text-anchor="middle" x="1224" y="-1179.18" font-family="Times,serif" font-size="14.00">DIFFERENT1</text>
<text xml:space="preserve" text-anchor="middle" x="1224" y="-1162.68" font-family="Times,serif" font-size="14.00">Maze all different</text>
</g>
<!-- LONGWEST&#45;&gt;DIFFERENT1 -->
<g id="edge1" class="edge">
<title>LONGWEST&#45;&gt;DIFFERENT1</title>
<path fill="none" stroke="black" d="M1216.58,-1248.71C1214.62,-1238 1213.39,-1225.7 1214.75,-1214.48 1215.02,-1212.29 1215.37,-1210.03 1215.78,-1207.77"/>
<polygon fill="black" stroke="black" points="1219.17,-1208.66 1217.88,-1198.15 1212.33,-1207.17 1219.17,-1208.66"/>
<text xml:space="preserve" text-anchor="middle" x="1217.38" y="-1217.68" font-family="Times,serif" font-size="14.00">s</text>
</g>
<!-- DIFFERENT1&#45;&gt;LONGWEST -->
<g id="edge11" class="edge">
<title>DIFFERENT1&#45;&gt;LONGWEST</title>
<path fill="none" stroke="black" d="M1224,-1196.87C1224,-1208.43 1224,-1223.42 1224,-1237.29"/>
<polygon fill="black" stroke="black" points="1220.5,-1237.07 1224,-1247.07 1227.5,-1237.07 1220.5,-1237.07"/>
<text xml:space="preserve" text-anchor="middle" x="1227.38" y="-1217.68" font-family="Times,serif" font-size="14.00">d</text>
</g>
<!-- DIFFERENT3 -->
<g id="node4" class="node">
<title>DIFFERENT3</title>
<polygon fill="none" stroke="black" points="921,-354.98 803,-354.98 803,-313.98 921,-313.98 921,-354.98"/>
<text xml:space="preserve" text-anchor="middle" x="862" y="-337.68" font-family="Times,serif" font-size="14.00">DIFFERENT3</text>
<text xml:space="preserve" text-anchor="middle" x="862" y="-321.18" font-family="Times,serif" font-size="14.00">Maze all different.</text>
</g>
<!-- DIFFERENT1&#45;&gt;DIFFERENT3 -->
<g id="edge2" class="edge">
<title>DIFFERENT1&#45;&gt;DIFFERENT3</title>
<path fill="none" stroke="black" d="M1166.69,-1174.67C957.52,-1173.31 245.44,-1166.56 207,-1137.48 99.8,-1056.41 114,-984.14 114,-849.73 114,-849.73 114,-849.73 114,-660.73 114,-500.29 181.11,-427.53 332,-372.98 414.55,-343.14 667.26,-336.94 791.52,-335.73"/>
<polygon fill="black" stroke="black" points="791.29,-339.23 801.26,-335.64 791.23,-332.23 791.29,-339.23"/>
<text xml:space="preserve" text-anchor="middle" x="116.62" y="-750.18" font-family="Times,serif" font-size="14.00">s</text>
</g>
<!-- DIFFERENT4 -->
<g id="node5" class="node">
<title>DIFFERENT4</title>
<polygon fill="none" stroke="black" points="1067,-448.48 949,-448.48 949,-407.48 1067,-407.48 1067,-448.48"/>
<text xml:space="preserve" text-anchor="middle" x="1008" y="-431.18" font-family="Times,serif" font-size="14.00">DIFFERENT4</text>
<text xml:space="preserve" text-anchor="middle" x="1008" y="-414.68" font-family="Times,serif" font-size="14.00">Maze all different.</text>
</g>
<!-- DIFFERENT1&#45;&gt;DIFFERENT4 -->
<g id="edge3" class="edge">
<title>DIFFERENT1&#45;&gt;DIFFERENT4</title>
<path fill="none" stroke="black" d="M1166.61,-1174.89C958.91,-1174.28 256.68,-1169.85 222,-1137.48 167.47,-1086.6 228.14,-865.44 242,-840.48 298.06,-739.55 367.64,-761.53 438,-669.98 460.77,-640.35 456.67,-627.05 475,-594.48 508.14,-535.61 499.12,-501.33 557,-466.48 588.71,-447.39 818.19,-436.08 937.04,-431.45"/>
<polygon fill="black" stroke="black" points="937.16,-434.95 947.02,-431.06 936.89,-427.95 937.16,-434.95"/>
<text xml:space="preserve" text-anchor="middle" x="296.42" y="-796.93" font-family="Times,serif" font-size="14.00">sw</text>
</g>
<!-- DIFFERENT5 -->
<g id="node6" class="node">
<title>DIFFERENT5</title>
<polygon fill="none" stroke="black" points="1487,-541.98 1369,-541.98 1369,-500.98 1487,-500.98 1487,-541.98"/>
<text xml:space="preserve" text-anchor="middle" x="1428" y="-524.68" font-family="Times,serif" font-size="14.00">DIFFERENT5</text>
<text xml:space="preserve" text-anchor="middle" x="1428" y="-508.18" font-family="Times,serif" font-size="14.00">Maze all different.</text>
</g>
<!-- DIFFERENT1&#45;&gt;DIFFERENT5 -->
<g id="edge4" class="edge">
<title>DIFFERENT1&#45;&gt;DIFFERENT5</title>
<path fill="none" stroke="black" d="M1281.34,-1173.86C1456.46,-1170.23 1974.28,-1157.83 2004,-1137.48 2025.67,-1122.65 2028,-1109.75 2028,-1083.48 2028,-1083.48 2028,-1083.48 2028,-660.73 2028,-597.64 1985.96,-584.9 1928,-559.98 1852.73,-527.63 1617.83,-522.58 1498.74,-522.17"/>
<polygon fill="black" stroke="black" points="1498.76,-518.67 1488.75,-522.15 1498.74,-525.67 1498.76,-518.67"/>
<text xml:space="preserve" text-anchor="middle" x="2034.38" y="-843.68" font-family="Times,serif" font-size="14.00">ne</text>
</g>
<!-- DIFFERENT6 -->
<g id="node7" class="node">
<title>DIFFERENT6</title>
<polygon fill="none" stroke="black" points="1234,-635.48 1116,-635.48 1116,-594.48 1234,-594.48 1234,-635.48"/>
<text xml:space="preserve" text-anchor="middle" x="1175" y="-618.18" font-family="Times,serif" font-size="14.00">DIFFERENT6</text>
<text xml:space="preserve" text-anchor="middle" x="1175" y="-601.68" font-family="Times,serif" font-size="14.00">Maze all different.</text>
</g>
<!-- DIFFERENT1&#45;&gt;DIFFERENT6 -->
<g id="edge5" class="edge">
<title>DIFFERENT1&#45;&gt;DIFFERENT6</title>
<path fill="none" stroke="black" d="M1281.43,-1172.52C1374.63,-1168.02 1554.5,-1157.07 1615,-1137.48 1660.11,-1122.88 1707,-1130.89 1707,-1083.48 1707,-1083.48 1707,-1083.48 1707,-847.73 1707,-794.23 1652.34,-806.85 1621,-763.48 1599.12,-733.19 1614.77,-709.19 1584,-687.98 1547.98,-663.17 1430.52,-680.26 1388,-669.98 1368.91,-665.37 1365.77,-659.26 1347,-653.48 1327.98,-647.63 1283.78,-638.02 1244.96,-630"/>
<polygon fill="black" stroke="black" points="1246.16,-626.67 1235.66,-628.09 1244.75,-633.53 1246.16,-626.67"/>
<text xml:space="preserve" text-anchor="middle" x="1712.62" y="-890.43" font-family="Times,serif" font-size="14.00">se</text>
</g>
<!-- DIFFERENT7 -->
<g id="node8" class="node">
<title>DIFFERENT7</title>
<polygon fill="none" stroke="black" points="1223,-728.98 1105,-728.98 1105,-687.98 1223,-687.98 1223,-728.98"/>
<text xml:space="preserve" text-anchor="middle" x="1164" y="-711.68" font-family="Times,serif" font-size="14.00">DIFFERENT7</text>
<text xml:space="preserve" text-anchor="middle" x="1164" y="-695.18" font-family="Times,serif" font-size="14.00">Maze all different.</text>
</g>
<!-- DIFFERENT1&#45;&gt;DIFFERENT7 -->
<g id="edge6" class="edge">
<title>DIFFERENT1&#45;&gt;DIFFERENT7</title>
<path fill="none" stroke="black" d="M1243.94,-1155.01C1248.64,-1149.62 1253.34,-1143.58 1257,-1137.48 1265.44,-1123.44 1267.06,-1119.1 1270,-1102.98 1280.71,-1044.17 1282.17,-1027.01 1270,-968.48 1266.6,-952.11 1265.08,-947.32 1255,-933.98 1246.86,-923.21 1166.78,-869.19 1161,-856.98 1151.6,-837.14 1156.14,-777.72 1160.16,-740.63"/>
<polygon fill="black" stroke="black" points="1163.61,-741.29 1161.26,-730.96 1156.65,-740.5 1163.61,-741.29"/>
<text xml:space="preserve" text-anchor="middle" x="1268.5" y="-937.18" font-family="Times,serif" font-size="14.00">u</text>
</g>
<!-- DIFFERENT8 -->
<g id="node9" class="node">
<title>DIFFERENT8</title>
<polygon fill="none" stroke="black" points="967,-822.48 849,-822.48 849,-781.48 967,-781.48 967,-822.48"/>
<text xml:space="preserve" text-anchor="middle" x="908" y="-805.18" font-family="Times,serif" font-size="14.00">DIFFERENT8</text>
<text xml:space="preserve" text-anchor="middle" x="908" y="-788.68" font-family="Times,serif" font-size="14.00">Maze all different.</text>
</g>
<!-- DIFFERENT1&#45;&gt;DIFFERENT8 -->
<g id="edge7" class="edge">
<title>DIFFERENT1&#45;&gt;DIFFERENT8</title>
<path fill="none" stroke="black" d="M1220.52,-1155.28C1211.84,-1111.08 1185.61,-1002.56 1127,-933.98 1126.79,-933.74 1014.73,-866.76 951.01,-828.68"/>
<polygon fill="black" stroke="black" points="952.9,-825.73 942.52,-823.61 949.31,-831.74 952.9,-825.73"/>
<text xml:space="preserve" text-anchor="middle" x="1181.61" y="-983.93" font-family="Times,serif" font-size="14.00">nw</text>
</g>
<!-- DIFFERENT9 -->
<g id="node10" class="node">
<title>DIFFERENT9</title>
<polygon fill="none" stroke="black" points="1519,-915.98 1401,-915.98 1401,-874.98 1519,-874.98 1519,-915.98"/>
<text xml:space="preserve" text-anchor="middle" x="1460" y="-898.68" font-family="Times,serif" font-size="14.00">DIFFERENT9</text>
<text xml:space="preserve" text-anchor="middle" x="1460" y="-882.18" font-family="Times,serif" font-size="14.00">Maze all different.</text>
</g>
<!-- DIFFERENT1&#45;&gt;DIFFERENT9 -->
<g id="edge8" class="edge">
<title>DIFFERENT1&#45;&gt;DIFFERENT9</title>
<path fill="none" stroke="black" d="M1281.52,-1173.3C1380.45,-1169.82 1574.28,-1160.15 1595,-1137.48 1656.01,-1070.72 1650.11,-1005.69 1595,-933.98 1586.53,-922.96 1558.7,-914.3 1530.49,-908.1"/>
<polygon fill="black" stroke="black" points="1531.27,-904.68 1520.76,-906.06 1529.84,-911.54 1531.27,-904.68"/>
<text xml:space="preserve" text-anchor="middle" x="1641.57" y="-1030.68" font-family="Times,serif" font-size="14.00">e</text>
</g>
<!-- DIFFERENT10 -->
<g id="node11" class="node">
<title>DIFFERENT10</title>
<polygon fill="none" stroke="black" points="833,-1009.48 715,-1009.48 715,-968.48 833,-968.48 833,-1009.48"/>
<text xml:space="preserve" text-anchor="middle" x="774" y="-992.18" font-family="Times,serif" font-size="14.00">DIFFERENT10</text>
<text xml:space="preserve" text-anchor="middle" x="774" y="-975.68" font-family="Times,serif" font-size="14.00">Maze all different.</text>
</g>
<!-- DIFFERENT1&#45;&gt;DIFFERENT10 -->
<g id="edge9" class="edge">
<title>DIFFERENT1&#45;&gt;DIFFERENT10</title>
<path fill="none" stroke="black" d="M1166.45,-1173.46C1049.29,-1169.91 791.26,-1159.65 758,-1137.48 729.32,-1118.36 732.76,-1095.63 740.25,-1061.98 743.49,-1047.46 749.98,-1032.39 756.42,-1019.83"/>
<polygon fill="black" stroke="black" points="759.37,-1021.72 761.02,-1011.25 753.21,-1018.41 759.37,-1021.72"/>
<text xml:space="preserve" text-anchor="middle" x="745.12" y="-1077.43" font-family="Times,serif" font-size="14.00">w</text>
</g>
<!-- DIFFERENT11 -->
<g id="node12" class="node">
<title>DIFFERENT11</title>
<polygon fill="none" stroke="black" points="999,-1102.98 881,-1102.98 881,-1061.98 999,-1061.98 999,-1102.98"/>
<text xml:space="preserve" text-anchor="middle" x="940" y="-1085.68" font-family="Times,serif" font-size="14.00">DIFFERENT11</text>
<text xml:space="preserve" text-anchor="middle" x="940" y="-1069.18" font-family="Times,serif" font-size="14.00">Maze all different.</text>
</g>
<!-- DIFFERENT1&#45;&gt;DIFFERENT11 -->
<g id="edge10" class="edge">
<title>DIFFERENT1&#45;&gt;DIFFERENT11</title>
<path fill="none" stroke="black" d="M1166.46,-1159.82C1142.74,-1153.32 1115.06,-1145.41 1090.25,-1137.48 1061.47,-1128.29 1029.97,-1117.14 1003.27,-1107.36"/>
<polygon fill="black" stroke="black" points="1004.54,-1104.1 993.95,-1103.93 1002.13,-1110.67 1004.54,-1104.1"/>
<text xml:space="preserve" text-anchor="middle" x="1093.62" y="-1124.18" font-family="Times,serif" font-size="14.00">n</text>
</g>
<!-- DIFFERENT2 -->
<g id="node3" class="node">
<title>DIFFERENT2</title>
<polygon fill="none" stroke="black" points="1205.12,-261.48 1090.88,-261.48 1090.88,-220.48 1205.12,-220.48 1205.12,-261.48"/>
<text xml:space="preserve" text-anchor="middle" x="1148" y="-244.18" font-family="Times,serif" font-size="14.00">DIFFERENT2</text>
<text xml:space="preserve" text-anchor="middle" x="1148" y="-227.68" font-family="Times,serif" font-size="14.00">Maze all different</text>
</g>
<!-- DIFFERENT2&#45;&gt;DIFFERENT3 -->
<g id="edge12" class="edge">
<title>DIFFERENT2&#45;&gt;DIFFERENT3</title>
<path fill="none" stroke="black" d="M1090.77,-260.29C1045.06,-274.92 980.82,-295.47 932.05,-311.07"/>
<polygon fill="black" stroke="black" points="931.16,-307.68 922.7,-314.06 933.29,-314.35 931.16,-307.68"/>
<text xml:space="preserve" text-anchor="middle" x="1038.12" y="-282.68" font-family="Times,serif" font-size="14.00">sw</text>
</g>
<!-- DIFFERENT2&#45;&gt;DIFFERENT4 -->
<g id="edge13" class="edge">
<title>DIFFERENT2&#45;&gt;DIFFERENT4</title>
<path fill="none" stroke="black" d="M1132.91,-261.92C1108.07,-294.75 1058.45,-360.32 1029.79,-398.19"/>
<polygon fill="black" stroke="black" points="1027.14,-395.89 1023.9,-405.98 1032.72,-400.12 1027.14,-395.89"/>
<text xml:space="preserve" text-anchor="middle" x="1095.29" y="-329.43" font-family="Times,serif" font-size="14.00">n</text>
</g>
<!-- DIFFERENT2&#45;&gt;DIFFERENT5 -->
<g id="edge14" class="edge">
<title>DIFFERENT2&#45;&gt;DIFFERENT5</title>
<path fill="none" stroke="black" d="M1205.4,-244.35C1264.22,-247.99 1350.3,-257.08 1374,-279.48 1432.26,-334.57 1434.22,-437.78 1431.04,-489.41"/>
<polygon fill="black" stroke="black" points="1427.56,-489.04 1430.32,-499.27 1434.54,-489.55 1427.56,-489.04"/>
<text xml:space="preserve" text-anchor="middle" x="1428.8" y="-376.18" font-family="Times,serif" font-size="14.00">e</text>
</g>
<!-- DIFFERENT2&#45;&gt;DIFFERENT6 -->
<g id="edge15" class="edge">
<title>DIFFERENT2&#45;&gt;DIFFERENT6</title>
<path fill="none" stroke="black" d="M1205.51,-246.32C1251.87,-251.16 1311.76,-260.87 1327,-279.48 1401.76,-370.8 1374.39,-462.68 1287,-541.98 1267.95,-559.27 1254.1,-546.82 1232,-559.98 1220.23,-567 1208.91,-576.83 1199.5,-586.19"/>
<polygon fill="black" stroke="black" points="1197.24,-583.49 1192.82,-593.12 1202.28,-588.35 1197.24,-583.49"/>
<text xml:space="preserve" text-anchor="middle" x="1377.11" y="-422.93" font-family="Times,serif" font-size="14.00">nw</text>
</g>
<!-- DIFFERENT2&#45;&gt;DIFFERENT7 -->
<g id="edge16" class="edge">
<title>DIFFERENT2&#45;&gt;DIFFERENT7</title>
<path fill="none" stroke="black" d="M1205.45,-243.44C1346.06,-247.32 1699.67,-259 1749,-279.48 1782.44,-293.36 1810,-297.27 1810,-333.48 1810,-522.48 1810,-522.48 1810,-522.48 1810,-641.1 1402.4,-688 1234.74,-702.28"/>
<polygon fill="black" stroke="black" points="1234.51,-698.78 1224.84,-703.1 1235.09,-705.76 1234.51,-698.78"/>
<text xml:space="preserve" text-anchor="middle" x="1815.62" y="-469.68" font-family="Times,serif" font-size="14.00">se</text>
</g>
<!-- DIFFERENT2&#45;&gt;DIFFERENT8 -->
<g id="edge17" class="edge">
<title>DIFFERENT2&#45;&gt;DIFFERENT8</title>
<path fill="none" stroke="black" d="M1090.63,-242.86C906.69,-245.89 341.84,-257 310,-279.48 273.36,-305.35 280.6,-328.96 272,-372.98 251.39,-478.42 462.77,-711.89 557,-763.48 593.62,-783.53 702.49,-777.02 744,-781.48 774.7,-784.79 808.6,-788.76 837.57,-792.26"/>
<polygon fill="black" stroke="black" points="836.98,-795.71 847.32,-793.44 837.82,-788.76 836.98,-795.71"/>
<text xml:space="preserve" text-anchor="middle" x="342.65" y="-516.43" font-family="Times,serif" font-size="14.00">ne</text>
</g>
<!-- DIFFERENT2&#45;&gt;DIFFERENT9 -->
<g id="edge18" class="edge">
<title>DIFFERENT2&#45;&gt;DIFFERENT9</title>
<path fill="none" stroke="black" d="M1205.38,-242.57C1374.21,-244.62 1861.61,-252.79 1928,-279.48 1961.9,-293.11 1990,-296.94 1990,-333.48 1990,-569.23 1990,-569.23 1990,-569.23 1990,-685.11 1998.58,-730.58 1928,-822.48 1908.56,-847.8 1895.53,-847.65 1865,-856.98 1857.1,-859.4 1644.47,-878.31 1530.55,-888.32"/>
<polygon fill="black" stroke="black" points="1530.34,-884.82 1520.68,-889.18 1530.95,-891.79 1530.34,-884.82"/>
<text xml:space="preserve" text-anchor="middle" x="1994.88" y="-563.18" font-family="Times,serif" font-size="14.00">w</text>
</g>
<!-- DIFFERENT2&#45;&gt;DIFFERENT10 -->
<g id="edge19" class="edge">
<title>DIFFERENT2&#45;&gt;DIFFERENT10</title>
<path fill="none" stroke="black" d="M1090.38,-242.65C909.98,-244.98 363.51,-254.08 288,-279.48 248.04,-292.93 210,-291.32 210,-333.48 210,-475.73 210,-475.73 210,-475.73 210,-697.95 259.83,-796.19 447,-915.98 525.27,-966.07 633.29,-981.68 703.39,-986.34"/>
<polygon fill="black" stroke="black" points="703.03,-989.83 713.22,-986.93 703.45,-982.84 703.03,-989.83"/>
<text xml:space="preserve" text-anchor="middle" x="226.39" y="-609.93" font-family="Times,serif" font-size="14.00">d</text>
</g>
<!-- DIFFERENT2&#45;&gt;DIFFERENT11 -->
<g id="edge20" class="edge">
<title>DIFFERENT2&#45;&gt;DIFFERENT11</title>
<path fill="none" stroke="black" d="M1090.51,-242.96C897.78,-246.4 281.8,-258.91 195,-279.48 138.49,-292.87 76,-275.4 76,-333.48 76,-756.23 76,-756.23 76,-756.23 76,-951.16 218.78,-993.28 407,-1043.98 504.36,-1070.21 755.71,-1046.34 869.3,-1061.14"/>
<polygon fill="black" stroke="black" points="868.6,-1064.58 879.01,-1062.58 869.63,-1057.65 868.6,-1064.58"/>
<text xml:space="preserve" text-anchor="middle" x="79.38" y="-656.68" font-family="Times,serif" font-size="14.00">u</text>
</g>
<!-- DEADEND13 -->
<g id="node13" class="node">
<title>DEADEND13</title>
<polygon fill="none" stroke="black" points="1195.38,-167.98 1100.62,-167.98 1100.62,-110.48 1195.38,-110.48 1195.38,-167.98"/>
<text xml:space="preserve" text-anchor="middle" x="1148" y="-150.68" font-family="Times,serif" font-size="14.00">DEADEND13</text>
<text xml:space="preserve" text-anchor="middle" x="1148" y="-134.18" font-family="Times,serif" font-size="14.00">Dead end</text>
<text xml:space="preserve" text-anchor="middle" x="1148" y="-117.68" font-family="Times,serif" font-size="14.00">(vend)</text>
</g>
<!-- DIFFERENT2&#45;&gt;DEADEND13 -->
<g id="edge21" class="edge">
<title>DIFFERENT2&#45;&gt;DEADEND13</title>
<path fill="none" stroke="black" d="M1142.2,-220.3C1140.78,-214.6 1139.46,-208.34 1138.75,-202.48 1137.85,-195.06 1138.09,-187.17 1138.93,-179.57"/>
<polygon fill="black" stroke="black" points="1142.36,-180.29 1140.36,-169.89 1135.43,-179.27 1142.36,-180.29"/>
<text xml:space="preserve" text-anchor="middle" x="1141.38" y="-189.18" font-family="Times,serif" font-size="14.00">s</text>
</g>
<!-- DIFFERENT3&#45;&gt;DIFFERENT1 -->
<g id="edge22" class="edge">
<title>DIFFERENT3&#45;&gt;DIFFERENT1</title>
<path fill="none" stroke="black" d="M802.83,-337.3C676.73,-341.51 385.1,-353.11 288,-372.98 242.76,-382.24 232.97,-390.58 190,-407.48 121.42,-434.46 38,-400.04 38,-473.73 38,-1083.48 38,-1083.48 38,-1083.48 38,-1152.25 115.55,-1124.07 183,-1137.48 369.83,-1174.63 954.09,-1176.03 1155.19,-1175.37"/>
<polygon fill="black" stroke="black" points="1154.96,-1178.87 1164.95,-1175.33 1154.93,-1171.87 1154.96,-1178.87"/>
<text xml:space="preserve" text-anchor="middle" x="42.88" y="-750.18" font-family="Times,serif" font-size="14.00">w</text>
</g>
<!-- DIFFERENT3&#45;&gt;DIFFERENT2 -->
<g id="edge31" class="edge">
<title>DIFFERENT3&#45;&gt;DIFFERENT2</title>
<path fill="none" stroke="black" d="M895.69,-313.61C916.28,-302.21 943.47,-288.43 969,-279.48 1004.54,-267.03 1045.56,-258.07 1079.37,-252.04"/>
<polygon fill="black" stroke="black" points="1079.79,-255.52 1089.04,-250.36 1078.59,-248.62 1079.79,-255.52"/>
<text xml:space="preserve" text-anchor="middle" x="972" y="-282.68" font-family="Times,serif" font-size="14.00">e</text>
</g>
<!-- DIFFERENT3&#45;&gt;DIFFERENT4 -->
<g id="edge23" class="edge">
<title>DIFFERENT3&#45;&gt;DIFFERENT4</title>
<path fill="none" stroke="black" d="M921.41,-348.39C938.55,-354.02 956.51,-361.95 971,-372.98 979.54,-379.49 986.82,-388.54 992.6,-397.38"/>
<polygon fill="black" stroke="black" points="989.53,-399.07 997.69,-405.82 995.52,-395.45 989.53,-399.07"/>
<text xml:space="preserve" text-anchor="middle" x="991.62" y="-376.18" font-family="Times,serif" font-size="14.00">se</text>
</g>
<!-- DIFFERENT3&#45;&gt;DIFFERENT5 -->
<g id="edge24" class="edge">
<title>DIFFERENT3&#45;&gt;DIFFERENT5</title>
<path fill="none" stroke="black" d="M921.3,-341.11C1010.56,-349.77 1170.2,-366.09 1181,-372.98 1214.22,-394.18 1195.51,-425.47 1227.5,-448.48 1256.21,-469.13 1271.44,-455.33 1305,-466.48 1329.34,-474.58 1355.48,-485.68 1377.37,-495.72"/>
<polygon fill="black" stroke="black" points="1375.83,-498.87 1386.37,-499.91 1378.78,-492.52 1375.83,-498.87"/>
<text xml:space="preserve" text-anchor="middle" x="1235.75" y="-422.93" font-family="Times,serif" font-size="14.00">nw</text>
</g>
<!-- DIFFERENT3&#45;&gt;DIFFERENT6 -->
<g id="edge25" class="edge">
<title>DIFFERENT3&#45;&gt;DIFFERENT6</title>
<path fill="none" stroke="black" d="M921.25,-344.17C967.4,-353.41 1030.97,-371.84 1076,-407.48 1117.34,-440.2 1126.33,-453.39 1149,-500.98 1161.46,-527.14 1168.13,-559.6 1171.58,-583.01"/>
<polygon fill="black" stroke="black" points="1168.1,-583.4 1172.9,-592.84 1175.04,-582.47 1168.1,-583.4"/>
<text xml:space="preserve" text-anchor="middle" x="1147.29" y="-469.68" font-family="Times,serif" font-size="14.00">sw</text>
</g>
<!-- DIFFERENT3&#45;&gt;DIFFERENT7 -->
<g id="edge26" class="edge">
<title>DIFFERENT3&#45;&gt;DIFFERENT7</title>
<path fill="none" stroke="black" d="M861.31,-355.35C860.6,-408.34 866.08,-554.52 943,-635.48 963.98,-657.56 1037.04,-678.63 1093.48,-692.21"/>
<polygon fill="black" stroke="black" points="1092.52,-695.58 1103.06,-694.48 1094.13,-688.77 1092.52,-695.58"/>
<text xml:space="preserve" text-anchor="middle" x="894.51" y="-516.43" font-family="Times,serif" font-size="14.00">ne</text>
</g>
<!-- DIFFERENT3&#45;&gt;DIFFERENT8 -->
<g id="edge27" class="edge">
<title>DIFFERENT3&#45;&gt;DIFFERENT8</title>
<path fill="none" stroke="black" d="M802.78,-341.44C717.08,-353.38 570.86,-387.82 592,-482.98 618.18,-600.8 611.83,-654.76 707,-728.98 740.2,-754.87 760.63,-732.08 800,-746.98 813.51,-752.1 815.22,-756.74 828,-763.48 836.1,-767.76 844.78,-772.08 853.32,-776.19"/>
<polygon fill="black" stroke="black" points="851.72,-779.31 862.25,-780.44 854.72,-772.98 851.72,-779.31"/>
<text xml:space="preserve" text-anchor="middle" x="614.04" y="-563.18" font-family="Times,serif" font-size="14.00">u</text>
</g>
<!-- DIFFERENT3&#45;&gt;DIFFERENT9 -->
<g id="edge28" class="edge">
<title>DIFFERENT3&#45;&gt;DIFFERENT9</title>
<path fill="none" stroke="black" d="M921.19,-341.36C1021.14,-351.3 1214.06,-370.62 1229,-372.98 1449.01,-407.83 1524.16,-415.85 1694,-559.98 1751.75,-608.99 1746.07,-659.46 1716,-728.98 1682.13,-807.27 1647.79,-815.97 1573,-856.98 1568.5,-859.45 1550.52,-865.63 1530.18,-872.29"/>
<polygon fill="black" stroke="black" points="1529.26,-868.91 1520.83,-875.32 1531.42,-875.56 1529.26,-868.91"/>
<text xml:space="preserve" text-anchor="middle" x="1741.2" y="-609.93" font-family="Times,serif" font-size="14.00">d</text>
</g>
<!-- DIFFERENT3&#45;&gt;DIFFERENT10 -->
<g id="edge29" class="edge">
<title>DIFFERENT3&#45;&gt;DIFFERENT10</title>
<path fill="none" stroke="black" d="M802.65,-344.06C741.5,-353.1 653.05,-366.88 638,-372.98 525.21,-418.68 484.1,-447.36 438,-559.98 398.31,-656.92 618.66,-887.03 702,-950.48 707.59,-954.74 713.74,-958.76 720.01,-962.48"/>
<polygon fill="black" stroke="black" points="718.16,-965.46 728.59,-967.32 721.6,-959.36 718.16,-965.46"/>
<text xml:space="preserve" text-anchor="middle" x="461.89" y="-656.68" font-family="Times,serif" font-size="14.00">n</text>
</g>
<!-- DIFFERENT3&#45;&gt;DIFFERENT11 -->
<g id="edge30" class="edge">
<title>DIFFERENT3&#45;&gt;DIFFERENT11</title>
<path fill="none" stroke="black" d="M802.73,-344.29C777.56,-347.87 747.88,-351.88 721,-354.98 520.43,-378.1 279.7,-341.94 307,-541.98 338.92,-775.95 286.6,-909.94 481,-1043.98 515.05,-1067.46 796.69,-1056.07 869.45,-1061.58"/>
<polygon fill="black" stroke="black" points="868.67,-1065.02 879,-1062.65 869.45,-1058.06 868.67,-1065.02"/>
<text xml:space="preserve" text-anchor="middle" x="324.55" y="-703.43" font-family="Times,serif" font-size="14.00">s</text>
</g>
<!-- DIFFERENT4&#45;&gt;DIFFERENT1 -->
<g id="edge32" class="edge">
<title>DIFFERENT4&#45;&gt;DIFFERENT1</title>
<path fill="none" stroke="black" d="M948.68,-428.79C878.87,-430.06 760.13,-436.97 663,-466.48 631.33,-476.1 620.71,-477.88 597,-500.98 495.82,-599.57 481.12,-644.27 447.5,-781.48 423.22,-880.57 412.84,-927.83 474,-1009.48 551.93,-1113.53 611.54,-1103.45 737,-1137.48 813.85,-1158.33 1040.03,-1168.77 1155.09,-1172.86"/>
<polygon fill="black" stroke="black" points="1154.91,-1176.35 1165.03,-1173.2 1155.15,-1169.36 1154.91,-1176.35"/>
<text xml:space="preserve" text-anchor="middle" x="455.75" y="-796.93" font-family="Times,serif" font-size="14.00">nw</text>
</g>
<!-- DIFFERENT4&#45;&gt;DIFFERENT2 -->
<g id="edge41" class="edge">
<title>DIFFERENT4&#45;&gt;DIFFERENT2</title>
<path fill="none" stroke="black" d="M1042.95,-407.04C1062.76,-394.28 1086.75,-376.17 1103,-354.98 1121.89,-330.36 1133.92,-296.77 1140.74,-272.62"/>
<polygon fill="black" stroke="black" points="1144.09,-273.63 1143.29,-263.07 1137.33,-271.83 1144.09,-273.63"/>
<text xml:space="preserve" text-anchor="middle" x="1131.41" y="-329.43" font-family="Times,serif" font-size="14.00">se</text>
</g>
<!-- DIFFERENT4&#45;&gt;DIFFERENT3 -->
<g id="edge33" class="edge">
<title>DIFFERENT4&#45;&gt;DIFFERENT3</title>
<path fill="none" stroke="black" d="M983.37,-407.2C969.54,-396.5 951.74,-383.38 935,-372.98 928.18,-368.75 920.82,-364.56 913.49,-360.6"/>
<polygon fill="black" stroke="black" points="915.39,-357.64 904.91,-356.07 912.12,-363.83 915.39,-357.64"/>
<text xml:space="preserve" text-anchor="middle" x="961.19" y="-376.18" font-family="Times,serif" font-size="14.00">u</text>
</g>
<!-- DIFFERENT4&#45;&gt;DIFFERENT5 -->
<g id="edge34" class="edge">
<title>DIFFERENT4&#45;&gt;DIFFERENT5</title>
<path fill="none" stroke="black" d="M1067.39,-433.27C1110.2,-437.86 1168.69,-447.29 1217,-466.48 1229.46,-471.43 1229.85,-477.9 1242.25,-482.98 1278.78,-497.96 1321.88,-507.13 1357.37,-512.66"/>
<polygon fill="black" stroke="black" points="1356.7,-516.1 1367.11,-514.1 1357.73,-509.17 1356.7,-516.1"/>
<text xml:space="preserve" text-anchor="middle" x="1245.62" y="-469.68" font-family="Times,serif" font-size="14.00">n</text>
</g>
<!-- DIFFERENT4&#45;&gt;DIFFERENT6 -->
<g id="edge35" class="edge">
<title>DIFFERENT4&#45;&gt;DIFFERENT6</title>
<path fill="none" stroke="black" d="M1067.35,-444.2C1080.52,-449.63 1093.63,-456.88 1104,-466.48 1104.3,-466.76 1139.9,-540.87 1160.57,-583.93"/>
<polygon fill="black" stroke="black" points="1157.34,-585.27 1164.82,-592.77 1163.65,-582.24 1157.34,-585.27"/>
<text xml:space="preserve" text-anchor="middle" x="1142.28" y="-516.43" font-family="Times,serif" font-size="14.00">s</text>
</g>
<!-- DIFFERENT4&#45;&gt;DIFFERENT7 -->
<g id="edge36" class="edge">
<title>DIFFERENT4&#45;&gt;DIFFERENT7</title>
<path fill="none" stroke="black" d="M1014.34,-448.68C1032.41,-504.66 1083.39,-661.2 1091,-669.98 1094.7,-674.25 1099,-678.09 1103.62,-681.54"/>
<polygon fill="black" stroke="black" points="1101.34,-684.22 1111.6,-686.86 1105.22,-678.4 1101.34,-684.22"/>
<text xml:space="preserve" text-anchor="middle" x="1060.86" y="-563.18" font-family="Times,serif" font-size="14.00">w</text>
</g>
<!-- DIFFERENT4&#45;&gt;DIFFERENT8 -->
<g id="edge37" class="edge">
<title>DIFFERENT4&#45;&gt;DIFFERENT8</title>
<path fill="none" stroke="black" d="M1001.66,-448.91C985.97,-498.74 944.62,-633 918,-746.98 916.28,-754.36 914.66,-762.35 913.25,-769.87"/>
<polygon fill="black" stroke="black" points="909.82,-769.19 911.49,-779.65 916.71,-770.43 909.82,-769.19"/>
<text xml:space="preserve" text-anchor="middle" x="965.33" y="-609.93" font-family="Times,serif" font-size="14.00">sw</text>
</g>
<!-- DIFFERENT4&#45;&gt;DIFFERENT9 -->
<g id="edge38" class="edge">
<title>DIFFERENT4&#45;&gt;DIFFERENT9</title>
<path fill="none" stroke="black" d="M1067.26,-447.48C1089.33,-454.58 1111.55,-462.04 1122,-466.48 1203.88,-501.28 1244.94,-489.33 1299,-559.98 1319.9,-587.3 1304.05,-603.23 1316,-635.48 1338.39,-695.89 1352.72,-707.17 1384,-763.48 1403.5,-798.59 1426.78,-838.43 1442.39,-864.87"/>
<polygon fill="black" stroke="black" points="1439.3,-866.51 1447.41,-873.34 1445.33,-862.95 1439.3,-866.51"/>
<text xml:space="preserve" text-anchor="middle" x="1336.48" y="-656.68" font-family="Times,serif" font-size="14.00">ne</text>
</g>
<!-- DIFFERENT4&#45;&gt;DIFFERENT10 -->
<g id="edge39" class="edge">
<title>DIFFERENT4&#45;&gt;DIFFERENT10</title>
<path fill="none" stroke="black" d="M960.36,-448.92C886.17,-480.42 749.99,-540.15 736,-559.98 690.3,-624.76 690.85,-839.86 713,-915.98 717.83,-932.59 720.3,-936.9 731,-950.48 733.61,-953.79 736.53,-957.03 739.6,-960.14"/>
<polygon fill="black" stroke="black" points="737.15,-962.65 746.83,-966.97 741.96,-957.56 737.15,-962.65"/>
<text xml:space="preserve" text-anchor="middle" x="705.1" y="-703.43" font-family="Times,serif" font-size="14.00">e</text>
</g>
<!-- DIFFERENT4&#45;&gt;DIFFERENT11 -->
<g id="edge40" class="edge">
<title>DIFFERENT4&#45;&gt;DIFFERENT11</title>
<path fill="none" stroke="black" d="M948.62,-433.84C855.13,-442.54 679.2,-463.46 630,-500.98 600.29,-523.64 478,-763.62 478,-800.98 478,-989.98 478,-989.98 478,-989.98 478,-1016.25 480.33,-1029.15 502,-1043.98 534.18,-1066.02 798.71,-1056.3 869.42,-1061.62"/>
<polygon fill="black" stroke="black" points="869.02,-1065.1 879.34,-1062.73 869.8,-1058.14 869.02,-1065.1"/>
<text xml:space="preserve" text-anchor="middle" x="498.09" y="-750.18" font-family="Times,serif" font-size="14.00">d</text>
</g>
<!-- DIFFERENT5&#45;&gt;DIFFERENT1 -->
<g id="edge42" class="edge">
<title>DIFFERENT5&#45;&gt;DIFFERENT1</title>
<path fill="none" stroke="black" d="M1487.19,-533.68C1525.41,-540.98 1576.19,-550.83 1621,-559.98 1802.59,-597.08 1990,-568.9 1990,-754.23 1990,-1083.48 1990,-1083.48 1990,-1083.48 1990,-1153.34 1481.24,-1170.11 1292.97,-1173.92"/>
<polygon fill="black" stroke="black" points="1293.02,-1170.42 1283.09,-1174.11 1293.15,-1177.42 1293.02,-1170.42"/>
<text xml:space="preserve" text-anchor="middle" x="1993.38" y="-843.68" font-family="Times,serif" font-size="14.00">u</text>
</g>
<!-- DIFFERENT5&#45;&gt;DIFFERENT2 -->
<g id="edge51" class="edge">
<title>DIFFERENT5&#45;&gt;DIFFERENT2</title>
<path fill="none" stroke="black" d="M1439.45,-500.85C1442.14,-495.26 1444.62,-489.04 1446,-482.98 1447.63,-475.83 1446.12,-473.82 1446,-466.48 1444.54,-380.35 1469.77,-322.28 1395,-279.48 1365.41,-262.55 1279.01,-252.27 1216.73,-246.86"/>
<polygon fill="black" stroke="black" points="1217.17,-243.38 1206.91,-246.03 1216.59,-250.36 1217.17,-243.38"/>
<text xml:space="preserve" text-anchor="middle" x="1451.58" y="-376.18" font-family="Times,serif" font-size="14.00">s</text>
</g>
<!-- DIFFERENT5&#45;&gt;DIFFERENT3 -->
<g id="edge43" class="edge">
<title>DIFFERENT5&#45;&gt;DIFFERENT3</title>
<path fill="none" stroke="black" d="M1399.7,-500.52C1382.94,-489.37 1360.94,-475.87 1340,-466.48 1314.69,-455.14 1303.6,-463.44 1280.25,-448.48 1259.77,-435.36 1261.41,-424.47 1244,-407.48 1226.96,-390.85 1224.89,-382.36 1203,-372.98 1196.84,-370.34 1030.54,-352.85 932.5,-342.72"/>
<polygon fill="black" stroke="black" points="933,-339.25 922.69,-341.71 932.28,-346.21 933,-339.25"/>
<text xml:space="preserve" text-anchor="middle" x="1283.62" y="-422.93" font-family="Times,serif" font-size="14.00">d</text>
</g>
<!-- DIFFERENT5&#45;&gt;DIFFERENT4 -->
<g id="edge44" class="edge">
<title>DIFFERENT5&#45;&gt;DIFFERENT4</title>
<path fill="none" stroke="black" d="M1368.65,-504.46C1345.65,-498.05 1319.14,-490.44 1295.25,-482.98 1273.61,-476.23 1269,-471.93 1247,-466.48 1190.95,-452.61 1126.17,-442.83 1078.21,-436.74"/>
<polygon fill="black" stroke="black" points="1078.87,-433.29 1068.51,-435.53 1078,-440.24 1078.87,-433.29"/>
<text xml:space="preserve" text-anchor="middle" x="1300.12" y="-469.68" font-family="Times,serif" font-size="14.00">w</text>
</g>
<!-- DIFFERENT5&#45;&gt;DIFFERENT6 -->
<g id="edge45" class="edge">
<title>DIFFERENT5&#45;&gt;DIFFERENT6</title>
<path fill="none" stroke="black" d="M1368.77,-538.12C1363.11,-539.48 1357.46,-540.79 1352,-541.98 1307.99,-551.59 1293.78,-542.53 1252.25,-559.98 1240.57,-564.89 1239.37,-569.2 1229,-576.48 1223.92,-580.05 1218.56,-583.79 1213.27,-587.48"/>
<polygon fill="black" stroke="black" points="1211.36,-584.54 1205.15,-593.13 1215.35,-590.29 1211.36,-584.54"/>
<text xml:space="preserve" text-anchor="middle" x="1258.62" y="-563.18" font-family="Times,serif" font-size="14.00">ne</text>
</g>
<!-- DIFFERENT5&#45;&gt;DIFFERENT7 -->
<g id="edge46" class="edge">
<title>DIFFERENT5&#45;&gt;DIFFERENT7</title>
<path fill="none" stroke="black" d="M1420.25,-542.43C1409.58,-567.47 1388.08,-610.17 1357,-635.48 1346.84,-643.76 1285.04,-666.16 1234.07,-683.8"/>
<polygon fill="black" stroke="black" points="1233.13,-680.42 1224.81,-686.99 1235.41,-687.04 1233.13,-680.42"/>
<text xml:space="preserve" text-anchor="middle" x="1400.12" y="-609.93" font-family="Times,serif" font-size="14.00">sw</text>
</g>
<!-- DIFFERENT5&#45;&gt;DIFFERENT8 -->
<g id="edge47" class="edge">
<title>DIFFERENT5&#45;&gt;DIFFERENT8</title>
<path fill="none" stroke="black" d="M1389.88,-542.34C1360.91,-557.42 1325.73,-575.7 1324,-576.48 1303.6,-585.65 1295.18,-581.45 1277,-594.48 1257.76,-608.28 1263.39,-623.46 1243,-635.48 1205.98,-657.31 1187.8,-637.28 1148,-653.48 1122.31,-663.94 1116.49,-669.29 1096,-687.98 1078.72,-703.75 1082.84,-716.59 1063,-728.98 1032.46,-748.07 1016.87,-732.27 984,-746.98 975.23,-750.91 958.25,-762.8 942.57,-774.43"/>
<polygon fill="black" stroke="black" points="940.67,-771.48 934.76,-780.28 944.86,-777.09 940.67,-771.48"/>
<text xml:space="preserve" text-anchor="middle" x="1151" y="-656.68" font-family="Times,serif" font-size="14.00">e</text>
</g>
<!-- DIFFERENT5&#45;&gt;DIFFERENT9 -->
<g id="edge48" class="edge">
<title>DIFFERENT5&#45;&gt;DIFFERENT9</title>
<path fill="none" stroke="black" d="M1487.2,-534.42C1500.72,-539.96 1513.56,-548.09 1522,-559.98 1598.41,-667.7 1599.17,-743.88 1531,-856.98 1528.68,-860.83 1525.81,-864.31 1522.58,-867.45"/>
<polygon fill="black" stroke="black" points="1520.58,-864.56 1515.05,-873.6 1525.01,-869.98 1520.58,-864.56"/>
<text xml:space="preserve" text-anchor="middle" x="1584.15" y="-703.43" font-family="Times,serif" font-size="14.00">n</text>
</g>
<!-- DIFFERENT5&#45;&gt;DIFFERENT10 -->
<g id="edge49" class="edge">
<title>DIFFERENT5&#45;&gt;DIFFERENT10</title>
<path fill="none" stroke="black" d="M1438.18,-542.24C1440.58,-547.83 1442.78,-554.02 1444,-559.98 1445.47,-567.17 1444.67,-569.18 1444,-576.48 1441.55,-603.04 1440.85,-609.99 1433,-635.48 1406.29,-722.21 1411.35,-754.7 1351,-822.48 1271.45,-911.83 1199.51,-834.33 1087,-874.98 1031.58,-895.01 1032.42,-927.87 978,-950.48 935.69,-968.06 885.04,-977.43 844.8,-982.41"/>
<polygon fill="black" stroke="black" points="844.5,-978.92 834.97,-983.55 845.31,-985.87 844.5,-978.92"/>
<text xml:space="preserve" text-anchor="middle" x="1408.45" y="-750.18" font-family="Times,serif" font-size="14.00">nw</text>
</g>
<!-- DIFFERENT5&#45;&gt;DIFFERENT11 -->
<g id="edge50" class="edge">
<title>DIFFERENT5&#45;&gt;DIFFERENT11</title>
<path fill="none" stroke="black" d="M1487.25,-540.65C1488.85,-541.1 1490.43,-541.55 1492,-541.98 1523.79,-550.79 1536.03,-542.51 1564,-559.98 1637.41,-605.84 1773.58,-846.48 1722,-915.98 1637.27,-1030.14 1187.22,-1067.58 1010.92,-1077.98"/>
<polygon fill="black" stroke="black" points="1010.75,-1074.48 1000.97,-1078.55 1011.15,-1081.47 1010.75,-1074.48"/>
<text xml:space="preserve" text-anchor="middle" x="1731.46" y="-796.93" font-family="Times,serif" font-size="14.00">se</text>
</g>
<!-- DIFFERENT6&#45;&gt;DIFFERENT1 -->
<g id="edge52" class="edge">
<title>DIFFERENT6&#45;&gt;DIFFERENT1</title>
<path fill="none" stroke="black" d="M1234.28,-628.1C1247.04,-630.62 1260.46,-633.2 1273,-635.48 1321.31,-644.28 1335.49,-637.74 1382,-653.48 1396.78,-658.49 1398.04,-665.52 1413,-669.98 1497.25,-695.13 1526.34,-660.93 1610,-687.98 1687.64,-713.09 1699.64,-736.93 1768,-781.48 1804.16,-805.05 1926,-851.32 1926,-894.48 1926,-1083.48 1926,-1083.48 1926,-1083.48 1926,-1146.89 1469.83,-1167.53 1292.94,-1173.15"/>
<polygon fill="black" stroke="black" points="1292.85,-1169.65 1282.96,-1173.46 1293.06,-1176.65 1292.85,-1169.65"/>
<text xml:space="preserve" text-anchor="middle" x="1932.38" y="-890.43" font-family="Times,serif" font-size="14.00">ne</text>
</g>
<!-- DIFFERENT6&#45;&gt;DIFFERENT2 -->
<g id="edge61" class="edge">
<title>DIFFERENT6&#45;&gt;DIFFERENT2</title>
<path fill="none" stroke="black" d="M1185.4,-594.06C1191.22,-583.56 1198.92,-570.68 1207,-559.98 1235.42,-522.35 1258.25,-524.82 1280,-482.98 1295.55,-453.08 1298.53,-439.15 1287,-407.48 1266.19,-350.36 1216.05,-299.25 1182.03,-269.42"/>
<polygon fill="black" stroke="black" points="1184.35,-266.8 1174.48,-262.93 1179.78,-272.11 1184.35,-266.8"/>
<text xml:space="preserve" text-anchor="middle" x="1301.5" y="-422.93" font-family="Times,serif" font-size="14.00">sw</text>
</g>
<!-- DIFFERENT6&#45;&gt;DIFFERENT3 -->
<g id="edge53" class="edge">
<title>DIFFERENT6&#45;&gt;DIFFERENT3</title>
<path fill="none" stroke="black" d="M1115.81,-604.3C1093.01,-598.67 1067.53,-589.93 1047,-576.48 963.78,-521.99 902.78,-417 876.42,-365.48"/>
<polygon fill="black" stroke="black" points="879.62,-364.06 872,-356.69 873.36,-367.2 879.62,-364.06"/>
<text xml:space="preserve" text-anchor="middle" x="952.84" y="-469.68" font-family="Times,serif" font-size="14.00">n</text>
</g>
<!-- DIFFERENT6&#45;&gt;DIFFERENT4 -->
<g id="edge54" class="edge">
<title>DIFFERENT6&#45;&gt;DIFFERENT4</title>
<path fill="none" stroke="black" d="M1151.5,-594.01C1136.19,-580.31 1116.38,-561.19 1101.5,-541.98 1077.78,-511.37 1083.68,-495.47 1058,-466.48 1054.84,-462.92 1051.3,-459.48 1047.59,-456.22"/>
<polygon fill="black" stroke="black" points="1049.88,-453.57 1039.93,-449.93 1045.45,-458.98 1049.88,-453.57"/>
<text xml:space="preserve" text-anchor="middle" x="1109.75" y="-516.43" font-family="Times,serif" font-size="14.00">nw</text>
</g>
<!-- DIFFERENT6&#45;&gt;DIFFERENT5 -->
<g id="edge55" class="edge">
<title>DIFFERENT6&#45;&gt;DIFFERENT5</title>
<path fill="none" stroke="black" d="M1223.82,-594.03C1250.05,-583.52 1283.01,-570.64 1312.75,-559.98 1327.25,-554.79 1342.89,-549.49 1357.83,-544.59"/>
<polygon fill="black" stroke="black" points="1358.69,-547.98 1367.11,-541.56 1356.52,-541.33 1358.69,-547.98"/>
<text xml:space="preserve" text-anchor="middle" x="1318.38" y="-563.18" font-family="Times,serif" font-size="14.00">se</text>
</g>
<!-- DIFFERENT6&#45;&gt;DIFFERENT7 -->
<g id="edge56" class="edge">
<title>DIFFERENT6&#45;&gt;DIFFERENT7</title>
<path fill="none" stroke="black" d="M1172.62,-635.8C1171.19,-647.66 1169.35,-663 1167.73,-676.44"/>
<polygon fill="black" stroke="black" points="1164.29,-675.78 1166.57,-686.13 1171.24,-676.62 1164.29,-675.78"/>
<text xml:space="preserve" text-anchor="middle" x="1173.49" y="-656.68" font-family="Times,serif" font-size="14.00">e</text>
</g>
<!-- DIFFERENT6&#45;&gt;DIFFERENT8 -->
<g id="edge57" class="edge">
<title>DIFFERENT6&#45;&gt;DIFFERENT8</title>
<path fill="none" stroke="black" d="M1115.61,-632.75C1098.57,-638.43 1080.21,-645.42 1064,-653.48 1039.58,-665.63 1034.78,-671.24 1013.25,-687.98 991.57,-704.85 989.48,-713.19 967,-728.98 953.33,-738.59 945.51,-734.87 934,-746.98 927.55,-753.77 922.42,-762.46 918.48,-770.87"/>
<polygon fill="black" stroke="black" points="915.37,-769.25 914.71,-779.83 921.82,-771.97 915.37,-769.25"/>
<text xml:space="preserve" text-anchor="middle" x="1016.62" y="-703.43" font-family="Times,serif" font-size="14.00">d</text>
</g>
<!-- DIFFERENT6&#45;&gt;DIFFERENT9 -->
<g id="edge58" class="edge">
<title>DIFFERENT6&#45;&gt;DIFFERENT9</title>
<path fill="none" stroke="black" d="M1234.44,-630.7C1255.27,-636.71 1278.55,-644.39 1299,-653.48 1301.3,-654.5 1452.72,-744.82 1454,-746.98 1475.06,-782.58 1471.95,-831.91 1466.78,-863.52"/>
<polygon fill="black" stroke="black" points="1463.36,-862.74 1465.01,-873.21 1470.25,-864 1463.36,-862.74"/>
<text xml:space="preserve" text-anchor="middle" x="1464.39" y="-750.18" font-family="Times,serif" font-size="14.00">s</text>
</g>
<!-- DIFFERENT6&#45;&gt;DIFFERENT10 -->
<g id="edge59" class="edge">
<title>DIFFERENT6&#45;&gt;DIFFERENT10</title>
<path fill="none" stroke="black" d="M1115.7,-621.17C1047.3,-627.66 939.33,-639.64 901,-653.48 896.38,-655.15 753.61,-742.82 751,-746.98 711.06,-810.69 726.57,-842.6 743,-915.98 746.23,-930.4 752.3,-945.55 758.21,-958.2"/>
<polygon fill="black" stroke="black" points="754.89,-959.37 762.42,-966.82 761.18,-956.3 754.89,-959.37"/>
<text xml:space="preserve" text-anchor="middle" x="736.63" y="-796.93" font-family="Times,serif" font-size="14.00">u</text>
</g>
<!-- DIFFERENT6&#45;&gt;DIFFERENT11 -->
<g id="edge60" class="edge">
<title>DIFFERENT6&#45;&gt;DIFFERENT11</title>
<path fill="none" stroke="black" d="M1196.71,-635.71C1209.69,-649.02 1224.98,-667.81 1232,-687.98 1251.29,-743.44 1238.44,-904.44 1202,-950.48 1190.65,-964.82 1180.54,-958.84 1165,-968.48 1139.7,-984.19 1137.73,-994.49 1112,-1009.48 1079.45,-1028.44 1040.96,-1045.04 1008.66,-1057.5"/>
<polygon fill="black" stroke="black" points="1007.47,-1054.21 999.37,-1061.03 1009.96,-1060.75 1007.47,-1054.21"/>
<text xml:space="preserve" text-anchor="middle" x="1240.67" y="-843.68" font-family="Times,serif" font-size="14.00">w</text>
</g>
<!-- DIFFERENT7&#45;&gt;DIFFERENT1 -->
<g id="edge62" class="edge">
<title>DIFFERENT7&#45;&gt;DIFFERENT1</title>
<path fill="none" stroke="black" d="M1169.2,-729.24C1170.58,-734.94 1171.96,-741.18 1173,-746.98 1181.65,-795.45 1157.93,-816.54 1186,-856.98 1195.97,-871.35 1207.05,-864.43 1221,-874.98 1261.77,-905.83 1277.78,-918.39 1288,-968.48 1303.06,-1042.3 1319.73,-1076.87 1275,-1137.48 1272.36,-1141.06 1269.28,-1144.45 1265.96,-1147.61"/>
<polygon fill="black" stroke="black" points="1263.82,-1144.84 1258.51,-1154.01 1268.37,-1150.15 1263.82,-1144.84"/>
<text xml:space="preserve" text-anchor="middle" x="1286.93" y="-937.18" font-family="Times,serif" font-size="14.00">n</text>
</g>
<!-- DIFFERENT7&#45;&gt;DIFFERENT2 -->
<g id="edge71" class="edge">
<title>DIFFERENT7&#45;&gt;DIFFERENT2</title>
<path fill="none" stroke="black" d="M1223.37,-703.31C1274.67,-698.6 1350.39,-688.95 1414,-669.98 1451.61,-658.77 1735,-561.73 1735,-522.48 1735,-522.48 1735,-522.48 1735,-333.48 1735,-281.57 1371.92,-254.72 1216.86,-245.62"/>
<polygon fill="black" stroke="black" points="1217.32,-242.14 1207.13,-245.05 1216.91,-249.12 1217.32,-242.14"/>
<text xml:space="preserve" text-anchor="middle" x="1738.38" y="-469.68" font-family="Times,serif" font-size="14.00">u</text>
</g>
<!-- DIFFERENT7&#45;&gt;DIFFERENT3 -->
<g id="edge63" class="edge">
<title>DIFFERENT7&#45;&gt;DIFFERENT3</title>
<path fill="none" stroke="black" d="M1104.53,-695.33C1092.14,-692.85 1079.15,-690.3 1067,-687.98 998.85,-675 967.16,-686.37 920,-635.48 886.72,-599.57 875.94,-588.84 861.75,-541.98 842.09,-477.08 858.06,-457.29 857,-389.48 856.89,-382.15 856.51,-380.3 857,-372.98 857.14,-370.91 857.32,-368.78 857.53,-366.63"/>
<polygon fill="black" stroke="black" points="860.99,-367.13 858.68,-356.79 854.04,-366.31 860.99,-367.13"/>
<text xml:space="preserve" text-anchor="middle" x="867.38" y="-516.43" font-family="Times,serif" font-size="14.00">se</text>
</g>
<!-- DIFFERENT7&#45;&gt;DIFFERENT4 -->
<g id="edge64" class="edge">
<title>DIFFERENT7&#45;&gt;DIFFERENT4</title>
<path fill="none" stroke="black" d="M1106.94,-687.69C1097.33,-682.81 1087.91,-676.95 1080,-669.98 1018.71,-616.02 1008.54,-512.29 1007.52,-460.3"/>
<polygon fill="black" stroke="black" points="1011.02,-460.33 1007.43,-450.36 1004.02,-460.39 1011.02,-460.33"/>
<text xml:space="preserve" text-anchor="middle" x="1027.67" y="-563.18" font-family="Times,serif" font-size="14.00">d</text>
</g>
<!-- DIFFERENT7&#45;&gt;DIFFERENT5 -->
<g id="edge65" class="edge">
<title>DIFFERENT7&#45;&gt;DIFFERENT5</title>
<path fill="none" stroke="black" d="M1196.57,-687.63C1219.37,-673.52 1250.4,-653.87 1277,-635.48 1317.88,-607.22 1363.37,-572.74 1393.63,-549.36"/>
<polygon fill="black" stroke="black" points="1395.56,-552.3 1401.32,-543.4 1391.27,-546.76 1395.56,-552.3"/>
<text xml:space="preserve" text-anchor="middle" x="1335.78" y="-609.93" font-family="Times,serif" font-size="14.00">s</text>
</g>
<!-- DIFFERENT7&#45;&gt;DIFFERENT6 -->
<g id="edge66" class="edge">
<title>DIFFERENT7&#45;&gt;DIFFERENT6</title>
<path fill="none" stroke="black" d="M1159.39,-687.58C1157.71,-677.32 1156.72,-664.64 1159,-653.48 1159.48,-651.15 1160.1,-648.79 1160.83,-646.44"/>
<polygon fill="black" stroke="black" points="1164.08,-647.75 1164.29,-637.16 1157.52,-645.31 1164.08,-647.75"/>
<text xml:space="preserve" text-anchor="middle" x="1162" y="-656.68" font-family="Times,serif" font-size="14.00">e</text>
</g>
<!-- DIFFERENT7&#45;&gt;DIFFERENT8 -->
<g id="edge67" class="edge">
<title>DIFFERENT7&#45;&gt;DIFFERENT8</title>
<path fill="none" stroke="black" d="M1104.71,-725.62C1100.08,-726.79 1095.47,-727.92 1091,-728.98 1052.69,-738.07 1040.35,-731.25 1004.25,-746.98 992.63,-752.04 991.83,-756.9 981,-763.48 974.05,-767.7 966.57,-771.91 959.15,-775.89"/>
<polygon fill="black" stroke="black" points="957.67,-772.71 950.45,-780.46 960.93,-778.91 957.67,-772.71"/>
<text xml:space="preserve" text-anchor="middle" x="1009.12" y="-750.18" font-family="Times,serif" font-size="14.00">w</text>
</g>
<!-- DIFFERENT7&#45;&gt;DIFFERENT9 -->
<g id="edge68" class="edge">
<title>DIFFERENT7&#45;&gt;DIFFERENT9</title>
<path fill="none" stroke="black" d="M1197.15,-729.41C1204.96,-734.71 1213.04,-740.72 1220,-746.98 1267.8,-790 1259.01,-823.64 1314,-856.98 1336.81,-870.81 1364.59,-879.57 1389.78,-885.11"/>
<polygon fill="black" stroke="black" points="1388.79,-888.48 1399.29,-887.06 1390.19,-881.62 1388.79,-888.48"/>
<text xml:space="preserve" text-anchor="middle" x="1282.46" y="-796.93" font-family="Times,serif" font-size="14.00">sw</text>
</g>
<!-- DIFFERENT7&#45;&gt;DIFFERENT10 -->
<g id="edge69" class="edge">
<title>DIFFERENT7&#45;&gt;DIFFERENT10</title>
<path fill="none" stroke="black" d="M1123.61,-729.33C1113.97,-734.64 1103.89,-740.67 1095,-746.98 1076.4,-760.19 1071.53,-763.9 1057,-781.48 1000.98,-849.3 1025.87,-899.77 954,-950.48 922.34,-972.82 880.25,-982.4 844.72,-986.31"/>
<polygon fill="black" stroke="black" points="844.57,-982.81 834.95,-987.24 845.24,-989.77 844.57,-982.81"/>
<text xml:space="preserve" text-anchor="middle" x="1028.94" y="-843.68" font-family="Times,serif" font-size="14.00">ne</text>
</g>
<!-- DIFFERENT7&#45;&gt;DIFFERENT11 -->
<g id="edge70" class="edge">
<title>DIFFERENT7&#45;&gt;DIFFERENT11</title>
<path fill="none" stroke="black" d="M1138.85,-729.13C1132.43,-734.63 1125.72,-740.79 1120,-746.98 1107.15,-760.89 1104.93,-765.36 1095,-781.48 1036.47,-876.52 979.27,-996.12 953.79,-1051.19"/>
<polygon fill="black" stroke="black" points="950.63,-1049.7 949.62,-1060.25 956.98,-1052.63 950.63,-1049.7"/>
<text xml:space="preserve" text-anchor="middle" x="1049.06" y="-890.43" font-family="Times,serif" font-size="14.00">nw</text>
</g>
<!-- DIFFERENT8&#45;&gt;DIFFERENT1 -->
<g id="edge72" class="edge">
<title>DIFFERENT8&#45;&gt;DIFFERENT1</title>
<path fill="none" stroke="black" d="M956.74,-822.8C970.44,-828.44 985.33,-834.64 999,-840.48 1033.86,-855.37 1044.92,-854.79 1077,-874.98 1100.75,-889.93 1099.54,-904.19 1125,-915.98 1170.35,-936.99 1203.61,-895.92 1236,-933.98 1286.73,-993.6 1257.01,-1094.59 1237.25,-1144.79"/>
<polygon fill="black" stroke="black" points="1234.09,-1143.29 1233.55,-1153.87 1240.57,-1145.93 1234.09,-1143.29"/>
<text xml:space="preserve" text-anchor="middle" x="1266.65" y="-983.93" font-family="Times,serif" font-size="14.00">e</text>
</g>
<!-- DIFFERENT8&#45;&gt;DIFFERENT2 -->
<g id="edge81" class="edge">
<title>DIFFERENT8&#45;&gt;DIFFERENT2</title>
<path fill="none" stroke="black" d="M848.68,-793.03C797.44,-783.96 723.18,-765.41 668,-728.98 545.12,-647.86 517.36,-536.68 588,-407.48 635.84,-319.99 940.83,-269.24 1079.52,-250.42"/>
<polygon fill="black" stroke="black" points="1079.86,-253.91 1089.31,-249.11 1078.93,-246.97 1079.86,-253.91"/>
<text xml:space="preserve" text-anchor="middle" x="556.67" y="-516.43" font-family="Times,serif" font-size="14.00">n</text>
</g>
<!-- DIFFERENT8&#45;&gt;DIFFERENT3 -->
<g id="edge73" class="edge">
<title>DIFFERENT8&#45;&gt;DIFFERENT3</title>
<path fill="none" stroke="black" d="M875.82,-781.18C831.75,-751.3 758,-690.2 758,-615.98 758,-615.98 758,-615.98 758,-426.98 758,-398.11 780.88,-376.19 805.17,-361.06"/>
<polygon fill="black" stroke="black" points="806.69,-364.22 813.56,-356.15 803.16,-358.18 806.69,-364.22"/>
<text xml:space="preserve" text-anchor="middle" x="762.88" y="-563.18" font-family="Times,serif" font-size="14.00">w</text>
</g>
<!-- DIFFERENT8&#45;&gt;DIFFERENT4 -->
<g id="edge74" class="edge">
<title>DIFFERENT8&#45;&gt;DIFFERENT4</title>
<path fill="none" stroke="black" d="M908.19,-781.2C908.43,-770.97 908.93,-758.28 910,-746.98 920.59,-634.94 925.96,-604.54 970,-500.98 976.11,-486.61 984.02,-471.24 991.05,-458.4"/>
<polygon fill="black" stroke="black" points="993.89,-460.48 995.7,-450.04 987.78,-457.08 993.89,-460.48"/>
<text xml:space="preserve" text-anchor="middle" x="937.73" y="-609.93" font-family="Times,serif" font-size="14.00">u</text>
</g>
<!-- DIFFERENT8&#45;&gt;DIFFERENT5 -->
<g id="edge75" class="edge">
<title>DIFFERENT8&#45;&gt;DIFFERENT5</title>
<path fill="none" stroke="black" d="M967.21,-791.58C1032.93,-780.28 1141.64,-759.02 1232,-728.98 1292.59,-708.84 1307.53,-701.62 1363,-669.98 1386.14,-656.79 1398.1,-658.2 1412,-635.48 1427.04,-610.9 1430.15,-577.78 1430.04,-553.76"/>
<polygon fill="black" stroke="black" points="1433.54,-553.86 1429.79,-543.96 1426.55,-554.04 1433.54,-553.86"/>
<text xml:space="preserve" text-anchor="middle" x="1402.91" y="-656.68" font-family="Times,serif" font-size="14.00">sw</text>
</g>
<!-- DIFFERENT8&#45;&gt;DIFFERENT6 -->
<g id="edge76" class="edge">
<title>DIFFERENT8&#45;&gt;DIFFERENT6</title>
<path fill="none" stroke="black" d="M922.52,-780.99C931.78,-769.54 944.71,-755.75 959,-746.98 983.09,-732.2 996.15,-744.16 1020,-728.98 1040.52,-715.92 1039.43,-705.55 1056.25,-687.98 1071.52,-672.03 1073.73,-665.88 1092,-653.48 1098.66,-648.97 1105.95,-644.77 1113.35,-640.93"/>
<polygon fill="black" stroke="black" points="1114.7,-644.17 1122.12,-636.6 1111.61,-637.89 1114.7,-644.17"/>
<text xml:space="preserve" text-anchor="middle" x="1059.62" y="-703.43" font-family="Times,serif" font-size="14.00">d</text>
</g>
<!-- DIFFERENT8&#45;&gt;DIFFERENT7 -->
<g id="edge77" class="edge">
<title>DIFFERENT8&#45;&gt;DIFFERENT7</title>
<path fill="none" stroke="black" d="M967.5,-782.43C982.91,-776.95 999.3,-770.52 1014,-763.48 1026.6,-757.45 1028.02,-752.73 1040.75,-746.98 1050.95,-742.38 1072.03,-735.64 1093.91,-729.14"/>
<polygon fill="black" stroke="black" points="1094.61,-732.58 1103.22,-726.4 1092.64,-725.86 1094.61,-732.58"/>
<text xml:space="preserve" text-anchor="middle" x="1043.38" y="-750.18" font-family="Times,serif" font-size="14.00">s</text>
</g>
<!-- DIFFERENT8&#45;&gt;DIFFERENT9 -->
<g id="edge78" class="edge">
<title>DIFFERENT8&#45;&gt;DIFFERENT9</title>
<path fill="none" stroke="black" d="M967.37,-814.3C1027.54,-825.64 1123.35,-843.32 1206.5,-856.98 1268.13,-867.11 1338.4,-877.41 1389.3,-884.64"/>
<polygon fill="black" stroke="black" points="1388.61,-888.08 1399,-886.02 1389.59,-881.15 1388.61,-888.08"/>
<text xml:space="preserve" text-anchor="middle" x="1214.75" y="-843.68" font-family="Times,serif" font-size="14.00">nw</text>
</g>
<!-- DIFFERENT8&#45;&gt;DIFFERENT10 -->
<g id="edge79" class="edge">
<title>DIFFERENT8&#45;&gt;DIFFERENT10</title>
<path fill="none" stroke="black" d="M860.04,-822.93C851.42,-827.86 842.97,-833.71 836,-840.48 803.35,-872.2 787.1,-923.76 779.62,-956.75"/>
<polygon fill="black" stroke="black" points="776.2,-956.01 777.57,-966.51 783.05,-957.45 776.2,-956.01"/>
<text xml:space="preserve" text-anchor="middle" x="814.4" y="-890.43" font-family="Times,serif" font-size="14.00">se</text>
</g>
<!-- DIFFERENT8&#45;&gt;DIFFERENT11 -->
<g id="edge80" class="edge">
<title>DIFFERENT8&#45;&gt;DIFFERENT11</title>
<path fill="none" stroke="black" d="M913.42,-822.77C920.12,-848.25 931.23,-894.03 936,-933.98 940.78,-974 941.19,-1020.54 940.81,-1050.47"/>
<polygon fill="black" stroke="black" points="937.31,-1050.26 940.63,-1060.32 944.31,-1050.38 937.31,-1050.26"/>
<text xml:space="preserve" text-anchor="middle" x="943.97" y="-937.18" font-family="Times,serif" font-size="14.00">ne</text>
</g>
<!-- DIFFERENT9&#45;&gt;DIFFERENT1 -->
<g id="edge82" class="edge">
<title>DIFFERENT9&#45;&gt;DIFFERENT1</title>
<path fill="none" stroke="black" d="M1456.35,-916.16C1446.75,-962.25 1416.36,-1077.8 1344,-1137.48 1329.29,-1149.62 1310.64,-1157.83 1292.46,-1163.4"/>
<polygon fill="black" stroke="black" points="1291.69,-1159.98 1283,-1166.05 1293.57,-1166.72 1291.69,-1159.98"/>
<text xml:space="preserve" text-anchor="middle" x="1425.81" y="-1030.68" font-family="Times,serif" font-size="14.00">se</text>
</g>
<!-- DIFFERENT9&#45;&gt;DIFFERENT2 -->
<g id="edge91" class="edge">
<title>DIFFERENT9&#45;&gt;DIFFERENT2</title>
<path fill="none" stroke="black" d="M1519.22,-890.69C1620.38,-883.18 1820.96,-863.46 1877,-822.48 1904.22,-802.58 1914,-789.96 1914,-756.23 1914,-756.23 1914,-756.23 1914,-333.48 1914,-270.1 1843.81,-293.54 1782,-279.48 1676.12,-255.39 1357.86,-246.17 1216.71,-243.2"/>
<polygon fill="black" stroke="black" points="1216.82,-239.7 1206.75,-243 1216.67,-246.7 1216.82,-239.7"/>
<text xml:space="preserve" text-anchor="middle" x="1918.88" y="-563.18" font-family="Times,serif" font-size="14.00">w</text>
</g>
<!-- DIFFERENT9&#45;&gt;DIFFERENT3 -->
<g id="edge83" class="edge">
<title>DIFFERENT9&#45;&gt;DIFFERENT3</title>
<path fill="none" stroke="black" d="M1519.41,-887.43C1593.26,-877.34 1713.02,-856.2 1741,-822.48 1805.75,-744.46 1788.23,-687.98 1749,-594.48 1623.55,-295.54 1383.36,-378.2 1060,-354.98 1017.69,-351.94 970.42,-347.33 932.67,-343.36"/>
<polygon fill="black" stroke="black" points="933.1,-339.89 922.78,-342.31 932.36,-346.85 933.1,-339.89"/>
<text xml:space="preserve" text-anchor="middle" x="1771.55" y="-609.93" font-family="Times,serif" font-size="14.00">ne</text>
</g>
<!-- DIFFERENT9&#45;&gt;DIFFERENT4 -->
<g id="edge84" class="edge">
<title>DIFFERENT9&#45;&gt;DIFFERENT4</title>
<path fill="none" stroke="black" d="M1518.69,-874.55C1529.57,-869.62 1540.49,-863.77 1550,-856.98 1586.52,-830.92 1579.77,-806.52 1617,-781.48 1636.94,-768.07 1652.51,-781.86 1668,-763.48 1726.33,-694.31 1731.64,-629.73 1674,-559.98 1656.54,-538.85 1641.08,-550.45 1615,-541.98 1561.79,-524.71 1550.1,-515.21 1496,-500.98 1414.26,-479.49 1392.52,-479.38 1309,-466.48 1230.4,-454.35 1139.79,-443.48 1078.69,-436.61"/>
<polygon fill="black" stroke="black" points="1079.09,-433.13 1068.76,-435.5 1078.31,-440.09 1079.09,-433.13"/>
<text xml:space="preserve" text-anchor="middle" x="1717.21" y="-656.68" font-family="Times,serif" font-size="14.00">s</text>
</g>
<!-- DIFFERENT9&#45;&gt;DIFFERENT5 -->
<g id="edge85" class="edge">
<title>DIFFERENT9&#45;&gt;DIFFERENT5</title>
<path fill="none" stroke="black" d="M1474.5,-874.71C1477.85,-869.22 1481.01,-863.08 1483,-856.98 1511.11,-770.76 1504.73,-743.92 1498,-653.48 1494.88,-611.58 1506.49,-595.48 1484,-559.98 1481.64,-556.25 1478.75,-552.81 1475.56,-549.64"/>
<polygon fill="black" stroke="black" points="1478.09,-547.21 1468.22,-543.35 1473.53,-552.52 1478.09,-547.21"/>
<text xml:space="preserve" text-anchor="middle" x="1506.79" y="-703.43" font-family="Times,serif" font-size="14.00">d</text>
</g>
<!-- DIFFERENT9&#45;&gt;DIFFERENT6 -->
<g id="edge86" class="edge">
<title>DIFFERENT9&#45;&gt;DIFFERENT6</title>
<path fill="none" stroke="black" d="M1460.64,-874.49C1460.52,-842.94 1455.49,-781.61 1421,-746.98 1399.24,-725.14 1380.92,-744.02 1354,-728.98 1311.32,-705.14 1315.44,-679.42 1274,-653.48 1264.98,-647.84 1254.98,-642.83 1244.9,-638.45"/>
<polygon fill="black" stroke="black" points="1246.38,-635.28 1235.8,-634.71 1243.71,-641.75 1246.38,-635.28"/>
<text xml:space="preserve" text-anchor="middle" x="1437.1" y="-750.18" font-family="Times,serif" font-size="14.00">u</text>
</g>
<!-- DIFFERENT9&#45;&gt;DIFFERENT7 -->
<g id="edge87" class="edge">
<title>DIFFERENT9&#45;&gt;DIFFERENT7</title>
<path fill="none" stroke="black" d="M1419.08,-874.53C1409.03,-869.18 1398.45,-863.16 1389,-856.98 1343.85,-827.48 1337.62,-813.2 1294,-781.48 1271.57,-765.17 1266.11,-760.69 1242,-746.98 1234.47,-742.7 1226.37,-738.45 1218.35,-734.42"/>
<polygon fill="black" stroke="black" points="1220.15,-731.41 1209.63,-730.13 1217.06,-737.69 1220.15,-731.41"/>
<text xml:space="preserve" text-anchor="middle" x="1351.71" y="-796.93" font-family="Times,serif" font-size="14.00">nw</text>
</g>
<!-- DIFFERENT9&#45;&gt;DIFFERENT8 -->
<g id="edge88" class="edge">
<title>DIFFERENT9&#45;&gt;DIFFERENT8</title>
<path fill="none" stroke="black" d="M1400.81,-887.7C1365.18,-882.26 1319.48,-872.82 1281.25,-856.98 1268.87,-851.85 1268.62,-844.99 1256,-840.48 1206.57,-822.83 1065.4,-811.92 978.8,-806.7"/>
<polygon fill="black" stroke="black" points="979.18,-803.22 968.99,-806.12 978.76,-810.2 979.18,-803.22"/>
<text xml:space="preserve" text-anchor="middle" x="1284.62" y="-843.68" font-family="Times,serif" font-size="14.00">n</text>
</g>
<!-- DIFFERENT9&#45;&gt;DIFFERENT10 -->
<g id="edge89" class="edge">
<title>DIFFERENT9&#45;&gt;DIFFERENT10</title>
<path fill="none" stroke="black" d="M1400.76,-901.28C1335.76,-907.04 1228.47,-917.95 1137,-933.98 1105.52,-939.5 1098.45,-944.78 1067,-950.48 991.51,-964.17 904.18,-974.67 844.64,-981.03"/>
<polygon fill="black" stroke="black" points="844.57,-977.52 834.99,-982.05 845.3,-984.48 844.57,-977.52"/>
<text xml:space="preserve" text-anchor="middle" x="1144.5" y="-937.18" font-family="Times,serif" font-size="14.00">sw</text>
</g>
<!-- DIFFERENT9&#45;&gt;DIFFERENT11 -->
<g id="edge90" class="edge">
<title>DIFFERENT9&#45;&gt;DIFFERENT11</title>
<path fill="none" stroke="black" d="M1430.65,-916.39C1379.41,-949.91 1269.12,-1016.65 1165,-1043.98 1114.08,-1057.35 1055.38,-1066.95 1010.7,-1073.08"/>
<polygon fill="black" stroke="black" points="1010.31,-1069.6 1000.87,-1074.41 1011.25,-1076.54 1010.31,-1069.6"/>
<text xml:space="preserve" text-anchor="middle" x="1345.36" y="-983.93" font-family="Times,serif" font-size="14.00">e</text>
</g>
<!-- DIFFERENT10&#45;&gt;DIFFERENT1 -->
<g id="edge92" class="edge">
<title>DIFFERENT10&#45;&gt;DIFFERENT1</title>
<path fill="none" stroke="black" d="M776.83,-1009.73C779.09,-1020.55 783.07,-1033.79 790,-1043.98 813.89,-1079.13 826.65,-1085.21 865.25,-1102.98 960.06,-1146.64 1080.96,-1163.92 1155.4,-1170.69"/>
<polygon fill="black" stroke="black" points="1154.71,-1174.14 1164.98,-1171.52 1155.32,-1167.17 1154.71,-1174.14"/>
<text xml:space="preserve" text-anchor="middle" x="868.62" y="-1077.43" font-family="Times,serif" font-size="14.00">d</text>
</g>
<!-- DIFFERENT10&#45;&gt;DIFFERENT2 -->
<g id="edge101" class="edge">
<title>DIFFERENT10&#45;&gt;DIFFERENT2</title>
<path fill="none" stroke="black" d="M714.5,-984.76C653.6,-980.47 556.58,-970.91 475,-950.48 363.02,-922.44 316.18,-916.36 249,-822.48 129.96,-656.12 80.7,-565.45 150,-372.98 168.53,-321.53 179.99,-301.62 230,-279.48 306.82,-245.47 878.93,-242.04 1079.09,-241.89"/>
<polygon fill="black" stroke="black" points="1079.09,-245.4 1089.09,-241.89 1079.09,-238.4 1079.09,-245.4"/>
<text xml:space="preserve" text-anchor="middle" x="145.78" y="-609.93" font-family="Times,serif" font-size="14.00">nw</text>
</g>
<!-- DIFFERENT10&#45;&gt;DIFFERENT3 -->
<g id="edge93" class="edge">
<title>DIFFERENT10&#45;&gt;DIFFERENT3</title>
<path fill="none" stroke="black" d="M714.74,-981.25C628.97,-967.95 473.07,-929.59 405,-822.48 387.64,-795.17 371,-933.87 430,-559.98 441.68,-485.95 443.61,-454.48 502,-407.48 536.34,-379.84 552.26,-383.78 595,-372.98 597.4,-372.38 713.24,-356.19 791.53,-345.29"/>
<polygon fill="black" stroke="black" points="791.87,-348.77 801.29,-343.93 790.9,-341.84 791.87,-348.77"/>
<text xml:space="preserve" text-anchor="middle" x="417.96" y="-656.68" font-family="Times,serif" font-size="14.00">e</text>
</g>
<!-- DIFFERENT10&#45;&gt;DIFFERENT4 -->
<g id="edge94" class="edge">
<title>DIFFERENT10&#45;&gt;DIFFERENT4</title>
<path fill="none" stroke="black" d="M736.14,-968.12C728.81,-963.08 721.66,-957.16 716,-950.48 705.18,-937.73 705.22,-932.16 701,-915.98 664.95,-777.7 656.56,-728.56 706,-594.48 722.38,-550.07 719.31,-529.62 757,-500.98 782.58,-481.55 796.15,-491.93 827,-482.98 849.88,-476.35 855.22,-473.45 878,-466.48 897.34,-460.57 918.37,-454.39 937.77,-448.8"/>
<polygon fill="black" stroke="black" points="938.57,-452.21 947.21,-446.08 936.63,-445.48 938.57,-452.21"/>
<text xml:space="preserve" text-anchor="middle" x="684.26" y="-703.43" font-family="Times,serif" font-size="14.00">ne</text>
</g>
<!-- DIFFERENT10&#45;&gt;DIFFERENT5 -->
<g id="edge95" class="edge">
<title>DIFFERENT10&#45;&gt;DIFFERENT5</title>
<path fill="none" stroke="black" d="M833.08,-985.73C947.01,-981.03 1193.17,-969.05 1276,-950.48 1295.97,-946.01 1299.05,-938.57 1319,-933.98 1364.43,-923.53 1489.63,-942.46 1528,-915.98 1646.55,-834.16 1637.64,-721.13 1569,-594.48 1559.59,-577.12 1557.25,-571.21 1541,-559.98 1536.76,-557.06 1518.71,-550.73 1498.23,-544.09"/>
<polygon fill="black" stroke="black" points="1499.4,-540.79 1488.81,-541.07 1497.26,-547.45 1499.4,-540.79"/>
<text xml:space="preserve" text-anchor="middle" x="1622.59" y="-750.18" font-family="Times,serif" font-size="14.00">u</text>
</g>
<!-- DIFFERENT10&#45;&gt;DIFFERENT6 -->
<g id="edge96" class="edge">
<title>DIFFERENT10&#45;&gt;DIFFERENT6</title>
<path fill="none" stroke="black" d="M756.47,-968.07C752.09,-962.58 747.62,-956.48 744,-950.48 713.74,-900.28 717.44,-880.87 712.25,-822.48 710.64,-804.33 706.82,-798.88 712.25,-781.48 719.79,-757.36 757.06,-703.52 777,-687.98 811.45,-661.14 826.59,-663.88 869,-653.48 912.2,-642.89 1028.31,-630.25 1104.43,-622.68"/>
<polygon fill="black" stroke="black" points="1104.71,-626.17 1114.31,-621.7 1104.02,-619.2 1104.71,-626.17"/>
<text xml:space="preserve" text-anchor="middle" x="717.12" y="-796.93" font-family="Times,serif" font-size="14.00">w</text>
</g>
<!-- DIFFERENT10&#45;&gt;DIFFERENT7 -->
<g id="edge97" class="edge">
<title>DIFFERENT10&#45;&gt;DIFFERENT7</title>
<path fill="none" stroke="black" d="M798.35,-968.14C805.34,-962.44 812.97,-956.21 820,-950.48 826.94,-944.82 1062.26,-751.49 1070,-746.98 1078.07,-742.28 1086.85,-737.91 1095.69,-733.94"/>
<polygon fill="black" stroke="black" points="1096.87,-737.24 1104.66,-730.06 1094.1,-730.81 1096.87,-737.24"/>
<text xml:space="preserve" text-anchor="middle" x="956.47" y="-843.68" font-family="Times,serif" font-size="14.00">n</text>
</g>
<!-- DIFFERENT10&#45;&gt;DIFFERENT8 -->
<g id="edge98" class="edge">
<title>DIFFERENT10&#45;&gt;DIFFERENT8</title>
<path fill="none" stroke="black" d="M788.39,-968.06C798.59,-953.75 812.46,-933.89 824,-915.98 845.15,-883.14 844.7,-871.07 869,-840.48 871.61,-837.2 874.49,-833.92 877.47,-830.75"/>
<polygon fill="black" stroke="black" points="879.88,-833.3 884.42,-823.73 874.9,-828.37 879.88,-833.3"/>
<text xml:space="preserve" text-anchor="middle" x="849.07" y="-890.43" font-family="Times,serif" font-size="14.00">s</text>
</g>
<!-- DIFFERENT10&#45;&gt;DIFFERENT9 -->
<g id="edge99" class="edge">
<title>DIFFERENT10&#45;&gt;DIFFERENT9</title>
<path fill="none" stroke="black" d="M833.41,-983.47C908,-977.49 1039.79,-965.86 1152,-950.48 1175.11,-947.32 1305.99,-924.07 1389.53,-909.12"/>
<polygon fill="black" stroke="black" points="1390.02,-912.59 1399.25,-907.39 1388.79,-905.7 1390.02,-912.59"/>
<text xml:space="preserve" text-anchor="middle" x="1247.34" y="-937.18" font-family="Times,serif" font-size="14.00">se</text>
</g>
<!-- DIFFERENT10&#45;&gt;DIFFERENT11 -->
<g id="edge100" class="edge">
<title>DIFFERENT10&#45;&gt;DIFFERENT11</title>
<path fill="none" stroke="black" d="M792.18,-1009.84C803.35,-1021.1 818.46,-1034.74 834,-1043.98 845.1,-1050.58 857.53,-1056.27 869.88,-1061.08"/>
<polygon fill="black" stroke="black" points="868.65,-1064.36 879.24,-1064.56 871.09,-1057.8 868.65,-1064.36"/>
<text xml:space="preserve" text-anchor="middle" x="841.5" y="-1030.68" font-family="Times,serif" font-size="14.00">sw</text>
</g>
<!-- DIFFERENT11&#45;&gt;DIFFERENT1 -->
<g id="edge102" class="edge">
<title>DIFFERENT11&#45;&gt;DIFFERENT1</title>
<path fill="none" stroke="black" d="M999.18,-1095.16C1028.87,-1101.64 1065.19,-1110.5 1097,-1120.98 1122.05,-1129.23 1149.03,-1140.37 1171.66,-1150.39"/>
<polygon fill="black" stroke="black" points="1170.12,-1153.54 1180.68,-1154.43 1172.98,-1147.15 1170.12,-1153.54"/>
<text xml:space="preserve" text-anchor="middle" x="1147.16" y="-1124.18" font-family="Times,serif" font-size="14.00">sw</text>
</g>
<!-- DIFFERENT11&#45;&gt;DIFFERENT2 -->
<g id="edge111" class="edge">
<title>DIFFERENT11&#45;&gt;DIFFERENT2</title>
<path fill="none" stroke="black" d="M880.5,-1062.8C878.99,-1062.5 877.49,-1062.23 876,-1061.98 725.62,-1036.98 325.76,-1082.61 192,-1009.48 68.07,-941.73 0,-897.48 0,-756.23 0,-756.23 0,-756.23 0,-333.48 0,-285.69 47.08,-292.73 93,-279.48 187.12,-252.34 859.88,-244.38 1079.12,-242.49"/>
<polygon fill="black" stroke="black" points="1078.96,-245.99 1088.93,-242.41 1078.9,-238.99 1078.96,-245.99"/>
<text xml:space="preserve" text-anchor="middle" x="6.38" y="-656.68" font-family="Times,serif" font-size="14.00">ne</text>
</g>
<!-- DIFFERENT11&#45;&gt;DIFFERENT3 -->
<g id="edge103" class="edge">
<title>DIFFERENT11&#45;&gt;DIFFERENT3</title>
<path fill="none" stroke="black" d="M880.5,-1062.82C878.99,-1062.52 877.49,-1062.24 876,-1061.98 783.7,-1046.21 545.2,-1069.13 455,-1043.98 304.61,-1002.06 316.51,-884.18 299.5,-728.98 283.91,-586.76 225.06,-517.94 316,-407.48 341.39,-376.64 360.17,-382.38 399,-372.98 471.39,-355.47 680.36,-343.71 791.13,-338.51"/>
<polygon fill="black" stroke="black" points="791.17,-342.01 801,-338.06 790.85,-335.02 791.17,-342.01"/>
<text xml:space="preserve" text-anchor="middle" x="307.75" y="-703.43" font-family="Times,serif" font-size="14.00">nw</text>
</g>
<!-- DIFFERENT11&#45;&gt;DIFFERENT4 -->
<g id="edge104" class="edge">
<title>DIFFERENT11&#45;&gt;DIFFERENT4</title>
<path fill="none" stroke="black" d="M880.78,-1063.23C879.17,-1062.8 877.58,-1062.39 876,-1061.98 730.82,-1024.75 538.21,-1081.63 564,-933.98 599.19,-732.48 572.93,-643.15 720,-500.98 750.71,-471.3 862.37,-449.87 937.3,-438.45"/>
<polygon fill="black" stroke="black" points="937.66,-441.94 947.03,-437 936.62,-435.01 937.66,-441.94"/>
<text xml:space="preserve" text-anchor="middle" x="592.87" y="-750.18" font-family="Times,serif" font-size="14.00">e</text>
</g>
<!-- DIFFERENT11&#45;&gt;DIFFERENT5 -->
<g id="edge105" class="edge">
<title>DIFFERENT11&#45;&gt;DIFFERENT5</title>
<path fill="none" stroke="black" d="M999.31,-1079.42C1092.47,-1075.64 1278.59,-1065.88 1435,-1043.98 1510.49,-1033.42 1531.59,-1036.14 1603,-1009.48 1720.35,-965.68 1776.14,-964.74 1840,-856.98 1928.25,-708.06 1747.86,-626.41 1588,-559.98 1551.2,-544.69 1536.59,-551.02 1498.13,-543.23"/>
<polygon fill="black" stroke="black" points="1499.21,-539.88 1488.69,-541.11 1497.68,-546.71 1499.21,-539.88"/>
<text xml:space="preserve" text-anchor="middle" x="1868.11" y="-796.93" font-family="Times,serif" font-size="14.00">w</text>
</g>
<!-- DIFFERENT11&#45;&gt;DIFFERENT6 -->
<g id="edge106" class="edge">
<title>DIFFERENT11&#45;&gt;DIFFERENT6</title>
<path fill="none" stroke="black" d="M923.89,-1061.8C904.9,-1038.86 872.1,-1000.06 842,-968.48 818.68,-944.02 800.29,-947.05 787,-915.98 779.83,-899.23 782.35,-892.6 787,-874.98 824.52,-732.72 895.21,-705.04 1033,-653.48 1055.88,-644.92 1081.53,-637.51 1104.67,-631.6"/>
<polygon fill="black" stroke="black" points="1105.48,-635 1114.33,-629.18 1103.78,-628.21 1105.48,-635"/>
<text xml:space="preserve" text-anchor="middle" x="800.77" y="-843.68" font-family="Times,serif" font-size="14.00">n</text>
</g>
<!-- DIFFERENT11&#45;&gt;DIFFERENT7 -->
<g id="edge107" class="edge">
<title>DIFFERENT11&#45;&gt;DIFFERENT7</title>
<path fill="none" stroke="black" d="M970.86,-1061.6C1008.92,-1037.59 1076.08,-996.9 1137,-968.48 1158.03,-958.68 1172.72,-969.51 1186,-950.48 1204.47,-924.02 1168.12,-950.36 1136,-856.98 1125.08,-825.23 1126.22,-814.37 1133,-781.48 1135.98,-767.01 1142.01,-751.86 1147.97,-739.21"/>
<polygon fill="black" stroke="black" points="1150.93,-741.12 1152.22,-730.6 1144.65,-738.02 1150.93,-741.12"/>
<text xml:space="preserve" text-anchor="middle" x="1169.88" y="-890.43" font-family="Times,serif" font-size="14.00">d</text>
</g>
<!-- DIFFERENT11&#45;&gt;DIFFERENT8 -->
<g id="edge108" class="edge">
<title>DIFFERENT11&#45;&gt;DIFFERENT8</title>
<path fill="none" stroke="black" d="M936.69,-1061.56C932.53,-1035.92 925.36,-989.98 920.75,-950.48 916.07,-910.32 912.32,-863.81 910.14,-833.93"/>
<polygon fill="black" stroke="black" points="913.64,-833.82 909.43,-824.09 906.65,-834.32 913.64,-833.82"/>
<text xml:space="preserve" text-anchor="middle" x="926.38" y="-937.18" font-family="Times,serif" font-size="14.00">se</text>
</g>
<!-- DIFFERENT11&#45;&gt;DIFFERENT9 -->
<g id="edge109" class="edge">
<title>DIFFERENT11&#45;&gt;DIFFERENT9</title>
<path fill="none" stroke="black" d="M999.21,-1076.09C1098.3,-1066.26 1292.69,-1043.27 1352,-1009.48 1388.75,-988.55 1420.79,-951.22 1440.22,-925.22"/>
<polygon fill="black" stroke="black" points="1442.84,-927.57 1445.91,-917.43 1437.19,-923.44 1442.84,-927.57"/>
<text xml:space="preserve" text-anchor="middle" x="1405.32" y="-983.93" font-family="Times,serif" font-size="14.00">u</text>
</g>
<!-- DIFFERENT11&#45;&gt;DIFFERENT10 -->
<g id="edge110" class="edge">
<title>DIFFERENT11&#45;&gt;DIFFERENT10</title>
<path fill="none" stroke="black" d="M880.61,-1073.53C856.86,-1068.13 830.33,-1059.09 809.75,-1043.98 801.12,-1037.65 793.97,-1028.56 788.39,-1019.64"/>
<polygon fill="black" stroke="black" points="791.51,-1018.06 783.51,-1011.11 785.43,-1021.53 791.51,-1018.06"/>
<text xml:space="preserve" text-anchor="middle" x="812.38" y="-1030.68" font-family="Times,serif" font-size="14.00">s</text>
</g>
<!-- DEADEND13&#45;&gt;DIFFERENT2 -->
<g id="edge112" class="edge">
<title>DEADEND13&#45;&gt;DIFFERENT2</title>
<path fill="none" stroke="black" d="M1148,-168.21C1148,-180.9 1148,-195.96 1148,-209"/>
<polygon fill="black" stroke="black" points="1144.5,-208.76 1148,-218.76 1151.5,-208.76 1144.5,-208.76"/>
<text xml:space="preserve" text-anchor="middle" x="1161.88" y="-189.18" font-family="Times,serif" font-size="14.00">n,out</text>
</g>
<!-- DEADEND13&#45;&gt;DEADEND13 -->
<g id="edge114" class="edge">
<title>DEADEND13&#45;&gt;DEADEND13</title>
<path fill="none" stroke="black" d="M1195.6,-149.24C1205.9,-148.26 1213.38,-144.93 1213.38,-139.23 1213.38,-135.94 1210.88,-133.44 1206.78,-131.72"/>
<polygon fill="black" stroke="black" points="1207.6,-128.32 1197.08,-129.55 1206.07,-135.15 1207.6,-128.32"/>
<text xml:space="preserve" text-anchor="middle" x="1216" y="-134.18" font-family="Times,serif" font-size="14.00">s</text>
</g>
<!-- ROUGHHEWN -->
<g id="node14" class="node">
<title>ROUGHHEWN</title>
<ellipse fill="none" stroke="black" cx="1148" cy="-28.99" rx="94.05" ry="28.99"/>
<text xml:space="preserve" text-anchor="middle" x="1148" y="-32.19" font-family="Times,serif" font-size="14.00">ROUGHHEWN</text>
<text xml:space="preserve" text-anchor="middle" x="1148" y="-15.69" font-family="Times,serif" font-size="14.00">Rough&#45;hewn corridor</text>
</g>
<!-- DEADEND13&#45;&gt;ROUGHHEWN -->
<g id="edge113" class="edge">
<title>DEADEND13&#45;&gt;ROUGHHEWN</title>
<path fill="none" stroke="black" d="M1141.43,-110.3C1140.32,-104.45 1139.33,-98.29 1138.75,-92.48 1138,-85.02 1138.32,-77.08 1139.17,-69.46"/>
<polygon fill="black" stroke="black" points="1142.61,-70.13 1140.61,-59.73 1135.69,-69.11 1142.61,-70.13"/>
<text xml:space="preserve" text-anchor="middle" x="1141.38" y="-79.18" font-family="Times,serif" font-size="14.00">s</text>
</g>
<!-- ROUGHHEWN&#45;&gt;DEADEND13 -->
<g id="edge115" class="edge">
<title>ROUGHHEWN&#45;&gt;DEADEND13</title>
<path fill="none" stroke="black" d="M1148,-58.38C1148,-70.72 1148,-85.38 1148,-98.75"/>
<polygon fill="black" stroke="black" points="1144.5,-98.56 1148,-108.56 1151.5,-98.56 1144.5,-98.56"/>
<text xml:space="preserve" text-anchor="middle" x="1151.38" y="-79.18" font-family="Times,serif" font-size="14.00">n</text>
</g>
</g>
</svg>
