<?xml version="1.0" encoding="UTF-8" standalone="no"?>
<!DOCTYPE svg PUBLIC "-//W3C//DTD SVG 1.1//EN"
 "http://www.w3.org/Graphics/SVG/1.1/DTD/svg11.dtd">
<!-- Generated by graphviz version 14.1.3 (20260303.0454)
 -->
<!-- Title: G Pages: 1 -->
<svg width="2005pt" height="939pt"
 viewBox="0.00 0.00 2005.00 939.00" xmlns="http://www.w3.org/2000/svg" xmlns:xlink="http://www.w3.org/1999/xlink">
<g id="graph0" class="graph" transform="scale(1 1) rotate(0) translate(4 934.73)">
<title>G</title>
<polygon fill="white" stroke="none" points="-4,4 -4,-934.73 2000.88,-934.73 2000.88,4 -4,4"/>
<!-- START -->
<g id="node1" class="node">
<title>START</title>
<polygon fill="none" stroke="black" points="1070.77,-922.48 958.02,-922.48 958.02,-881.48 1070.77,-881.48 1070.77,-922.48"/>
<text xml:space="preserve" text-anchor="middle" x="1014.39" y="-905.18" font-family="Times,serif" font-size="14.00">START</text>
<text xml:space="preserve" text-anchor="middle" x="1014.39" y="-888.68" font-family="Times,serif" font-size="14.00">Front of building.</text>
</g>
<!-- HILL -->
<g id="node2" class="node">
<title>HILL</title>
<polygon fill="none" stroke="black" points="415.77,-812.24 333.02,-812.24 333.02,-771.24 415.77,-771.24 415.77,-812.24"/>
<text xml:space="preserve" text-anchor="middle" x="374.39" y="-794.94" font-family="Times,serif" font-size="14.00">HILL</text>
<text xml:space="preserve" text-anchor="middle" x="374.39" y="-778.44" font-family="Times,serif" font-size="14.00">Hill in road.</text>
</g>
<!-- START&#45;&gt;HILL -->
<g id="edge1" class="edge">
<title>START&#45;&gt;HILL</title>
<path fill="none" stroke="black" d="M957.81,-900.67C833.65,-899.3 541.1,-892.13 450.14,-855.23 431.17,-847.54 413.33,-833.31 399.73,-820.37"/>
<polygon fill="black" stroke="black" points="402.49,-818.17 392.92,-813.62 397.56,-823.15 402.49,-818.17"/>
<text xml:space="preserve" text-anchor="middle" x="473.77" y="-841.93" font-family="Times,serif" font-size="14.00">road,w,u</text>
</g>
<!-- BUILDING -->
<g id="node3" class="node">
<title>BUILDING</title>
<polygon fill="none" stroke="black" points="1184.52,-820.49 1040.27,-820.49 1040.27,-762.99 1184.52,-762.99 1184.52,-820.49"/>
<text xml:space="preserve" text-anchor="middle" x="1112.39" y="-803.19" font-family="Times,serif" font-size="14.00">BUILDING</text>
<text xml:space="preserve" text-anchor="middle" x="1112.39" y="-786.69" font-family="Times,serif" font-size="14.00">Inside building.</text>
<text xml:space="preserve" text-anchor="middle" x="1112.39" y="-770.19" font-family="Times,serif" font-size="14.00">(keys,lamp,food,bottle)</text>
</g>
<!-- START&#45;&gt;BUILDING -->
<g id="edge2" class="edge">
<title>START&#45;&gt;BUILDING</title>
<path fill="none" stroke="black" d="M1065.24,-880.98C1076.89,-874.32 1088.24,-865.82 1096.39,-855.23 1101.61,-848.46 1105.13,-840.17 1107.52,-831.87"/>
<polygon fill="black" stroke="black" points="1110.92,-832.7 1109.77,-822.17 1104.1,-831.12 1110.92,-832.7"/>
<text xml:space="preserve" text-anchor="middle" x="1155.4" y="-841.93" font-family="Times,serif" font-size="14.00">enter,build,inwar,e</text>
</g>
<!-- VALLEY -->
<g id="node4" class="node">
<title>VALLEY</title>
<polygon fill="none" stroke="black" points="1056.64,-151.48 988.14,-151.48 988.14,-110.48 1056.64,-110.48 1056.64,-151.48"/>
<text xml:space="preserve" text-anchor="middle" x="1022.39" y="-134.18" font-family="Times,serif" font-size="14.00">VALLEY</text>
<text xml:space="preserve" text-anchor="middle" x="1022.39" y="-117.68" font-family="Times,serif" font-size="14.00">Valley.</text>
</g>
<!-- START&#45;&gt;VALLEY -->
<g id="edge3" class="edge">
<title>START&#45;&gt;VALLEY</title>
<path fill="none" stroke="black" d="M957.66,-898.39C846.9,-892.84 610.1,-878.41 581.39,-855.23 549.1,-829.17 471.62,-541.36 464.64,-500.45 459.97,-473.06 463.39,-465.74 463.39,-437.96 463.39,-437.96 463.39,-437.96 463.39,-231.97 463.39,-170.26 528.02,-186.32 587.39,-169.48 659.5,-149.03 879.77,-137.8 976.28,-133.75"/>
<polygon fill="black" stroke="black" points="976.33,-137.25 986.18,-133.34 976.04,-130.25 976.33,-137.25"/>
<text xml:space="preserve" text-anchor="middle" x="522.02" y="-487.15" font-family="Times,serif" font-size="14.00">downs,gully,strea,s,d</text>
</g>
<!-- GRATE -->
<g id="node8" class="node">
<title>GRATE</title>
<polygon fill="none" stroke="black" points="1090.64,-567.94 998.14,-567.94 998.14,-526.94 1090.64,-526.94 1090.64,-567.94"/>
<text xml:space="preserve" text-anchor="middle" x="1044.39" y="-550.64" font-family="Times,serif" font-size="14.00">GRATE</text>
<text xml:space="preserve" text-anchor="middle" x="1044.39" y="-534.14" font-family="Times,serif" font-size="14.00">Outside grate.</text>
</g>
<!-- START&#45;&gt;GRATE -->
<g id="edge5" class="edge">
<title>START&#45;&gt;GRATE</title>
<path fill="none" stroke="black" d="M1012.21,-881.3C1007.71,-836.19 999.21,-722.06 1016.39,-628.93 1019.54,-611.89 1025.67,-593.59 1031.39,-578.75"/>
<polygon fill="black" stroke="black" points="1034.6,-580.15 1035.07,-569.56 1028.1,-577.54 1034.6,-580.15"/>
<text xml:space="preserve" text-anchor="middle" x="1021.57" y="-731.45" font-family="Times,serif" font-size="14.00">depre</text>
</g>
<!-- FOREST1 -->
<g id="node15" class="node">
<title>FOREST1</title>
<ellipse fill="none" stroke="black" cx="1550.39" cy="-791.74" rx="51.62" ry="28.99"/>
<text xml:space="preserve" text-anchor="middle" x="1550.39" y="-794.94" font-family="Times,serif" font-size="14.00">FOREST1</text>
<text xml:space="preserve" text-anchor="middle" x="1550.39" y="-778.44" font-family="Times,serif" font-size="14.00">Forest.</text>
</g>
<!-- START&#45;&gt;FOREST1 -->
<g id="edge4" class="edge">
<title>START&#45;&gt;FOREST1</title>
<path fill="none" stroke="black" d="M1071.26,-899.43C1177.74,-895.85 1402.87,-884.94 1474.39,-855.23 1479.31,-853.19 1497.44,-838.33 1514.77,-823.61"/>
<polygon fill="black" stroke="black" points="1516.66,-826.6 1521.99,-817.44 1512.12,-821.27 1516.66,-826.6"/>
<text xml:space="preserve" text-anchor="middle" x="1514.01" y="-841.93" font-family="Times,serif" font-size="14.00">fores,n</text>
</g>
<!-- HILL&#45;&gt;START -->
<g id="edge6" class="edge">
<title>HILL&#45;&gt;START</title>
<path fill="none" stroke="black" d="M370.49,-812.47C368.98,-826.4 369.77,-844.45 380.89,-855.23 420.82,-893.92 791.1,-900.05 946.37,-900.9"/>
<polygon fill="black" stroke="black" points="946.09,-904.4 956.1,-900.95 946.12,-897.4 946.09,-904.4"/>
<text xml:space="preserve" text-anchor="middle" x="399.64" y="-841.93" font-family="Times,serif" font-size="14.00">build,e</text>
</g>
<!-- ROADEND -->
<g id="node5" class="node">
<title>ROADEND</title>
<polygon fill="none" stroke="black" points="221.52,-690.09 137.27,-690.09 137.27,-649.09 221.52,-649.09 221.52,-690.09"/>
<text xml:space="preserve" text-anchor="middle" x="179.39" y="-672.79" font-family="Times,serif" font-size="14.00">ROADEND</text>
<text xml:space="preserve" text-anchor="middle" x="179.39" y="-656.29" font-family="Times,serif" font-size="14.00">End of road.</text>
</g>
<!-- HILL&#45;&gt;ROADEND -->
<g id="edge7" class="edge">
<title>HILL&#45;&gt;ROADEND</title>
<path fill="none" stroke="black" d="M335.6,-770.79C306.33,-755.3 265.54,-732.73 231.39,-710.25 225.36,-706.27 219.11,-701.82 213.12,-697.38"/>
<polygon fill="black" stroke="black" points="215.3,-694.64 205.21,-691.39 211.07,-700.22 215.3,-694.64"/>
<text xml:space="preserve" text-anchor="middle" x="290.15" y="-731.45" font-family="Times,serif" font-size="14.00">w</text>
</g>
<!-- FOREST13 -->
<g id="node21" class="node">
<title>FOREST13</title>
<ellipse fill="none" stroke="black" cx="296.39" cy="-669.59" rx="56.39" ry="28.99"/>
<text xml:space="preserve" text-anchor="middle" x="296.39" y="-672.79" font-family="Times,serif" font-size="14.00">FOREST13</text>
<text xml:space="preserve" text-anchor="middle" x="296.39" y="-656.29" font-family="Times,serif" font-size="14.00">Forest.</text>
</g>
<!-- HILL&#45;&gt;FOREST13 -->
<g id="edge9" class="edge">
<title>HILL&#45;&gt;FOREST13</title>
<path fill="none" stroke="black" d="M339.53,-770.91C329.77,-763.81 320.03,-754.99 313.39,-744.75 306.7,-734.42 302.62,-721.78 300.15,-709.88"/>
<polygon fill="black" stroke="black" points="303.64,-709.55 298.49,-700.29 296.75,-710.74 303.64,-709.55"/>
<text xml:space="preserve" text-anchor="middle" x="331.39" y="-731.45" font-family="Times,serif" font-size="14.00">s,fores</text>
</g>
<!-- FOREST20 -->
<g id="node26" class="node">
<title>FOREST20</title>
<ellipse fill="none" stroke="black" cx="427.39" cy="-669.59" rx="56.39" ry="28.99"/>
<text xml:space="preserve" text-anchor="middle" x="427.39" y="-672.79" font-family="Times,serif" font-size="14.00">FOREST20</text>
<text xml:space="preserve" text-anchor="middle" x="427.39" y="-656.29" font-family="Times,serif" font-size="14.00">Forest.</text>
</g>
<!-- HILL&#45;&gt;FOREST20 -->
<g id="edge8" class="edge">
<title>HILL&#45;&gt;FOREST20</title>
<path fill="none" stroke="black" d="M390.26,-771.02C395.97,-763.2 402.07,-753.89 406.39,-744.75 411.54,-733.86 415.67,-721.46 418.85,-709.96"/>
<polygon fill="black" stroke="black" points="422.23,-710.87 421.34,-700.32 415.45,-709.12 422.23,-710.87"/>
<text xml:space="preserve" text-anchor="middle" x="416.17" y="-731.45" font-family="Times,serif" font-size="14.00">n</text>
</g>
<!-- BUILDING&#45;&gt;START -->
<g id="edge10" class="edge">
<title>BUILDING&#45;&gt;START</title>
<path fill="none" stroke="black" d="M1045.78,-820.74C1038.72,-825.88 1032.26,-831.85 1027.14,-838.73 1020.52,-847.64 1017.14,-859.16 1015.46,-869.86"/>
<polygon fill="black" stroke="black" points="1012.02,-869.17 1014.42,-879.49 1018.98,-869.93 1012.02,-869.17"/>
<text xml:space="preserve" text-anchor="middle" x="1059.77" y="-841.93" font-family="Times,serif" font-size="14.00">out,outdo,w</text>
</g>
<!-- BUILDING&#45;&gt;BUILDING -->
<g id="edge13" class="edge">
<title>BUILDING&#45;&gt;BUILDING</title>
<path fill="none" stroke="black" d="M1184.88,-801.09C1195.42,-799.6 1202.52,-796.49 1202.52,-791.74 1202.52,-788.92 1200.01,-786.68 1195.77,-785.01"/>
<polygon fill="black" stroke="black" points="1196.89,-781.68 1186.35,-782.75 1195.26,-788.48 1196.89,-781.68"/>
<text xml:space="preserve" text-anchor="middle" x="1234.77" y="-786.69" font-family="Times,serif" font-size="14.00">downs,strea</text>
</g>
<!-- DEBRIS -->
<g id="node10" class="node">
<title>DEBRIS</title>
<ellipse fill="none" stroke="black" cx="1331.39" cy="-669.59" rx="62.76" ry="40.66"/>
<text xml:space="preserve" text-anchor="middle" x="1331.39" y="-681.04" font-family="Times,serif" font-size="14.00">DEBRIS</text>
<text xml:space="preserve" text-anchor="middle" x="1331.39" y="-664.54" font-family="Times,serif" font-size="14.00">Debris room.</text>
<text xml:space="preserve" text-anchor="middle" x="1331.39" y="-648.04" font-family="Times,serif" font-size="14.00">(rod)</text>
</g>
<!-- BUILDING&#45;&gt;DEBRIS -->
<g id="edge11" class="edge">
<title>BUILDING&#45;&gt;DEBRIS</title>
<path fill="none" stroke="black" d="M1164.53,-762.57C1192.91,-747.19 1228.63,-727.76 1260.39,-710.25 1265.02,-707.7 1269.81,-705.05 1274.61,-702.38"/>
<polygon fill="black" stroke="black" points="1276.1,-705.56 1283.14,-697.64 1272.69,-699.44 1276.1,-705.56"/>
<text xml:space="preserve" text-anchor="middle" x="1240.05" y="-731.45" font-family="Times,serif" font-size="14.00">xyzzy</text>
</g>
<!-- Y2 -->
<g id="node14" class="node">
<title>Y2</title>
<ellipse fill="none" stroke="black" cx="1052.39" cy="-669.59" rx="27" ry="28.99"/>
<text xml:space="preserve" text-anchor="middle" x="1052.39" y="-672.79" font-family="Times,serif" font-size="14.00">Y2</text>
<text xml:space="preserve" text-anchor="middle" x="1052.39" y="-656.29" font-family="Times,serif" font-size="14.00">Y2.</text>
</g>
<!-- BUILDING&#45;&gt;Y2 -->
<g id="edge12" class="edge">
<title>BUILDING&#45;&gt;Y2</title>
<path fill="none" stroke="black" d="M1102.28,-762.62C1098.06,-751.71 1092.87,-739.23 1087.39,-728.25 1083.31,-720.07 1078.46,-711.52 1073.7,-703.59"/>
<polygon fill="black" stroke="black" points="1076.78,-701.91 1068.56,-695.23 1070.81,-705.58 1076.78,-701.91"/>
<text xml:space="preserve" text-anchor="middle" x="1109.76" y="-731.45" font-family="Times,serif" font-size="14.00">plugh</text>
</g>
<!-- VALLEY&#45;&gt;START -->
<g id="edge14" class="edge">
<title>VALLEY&#45;&gt;START</title>
<path fill="none" stroke="black" d="M987.94,-132.82C887.39,-136.18 601.39,-152.72 601.39,-231.97 601.39,-437.96 601.39,-437.96 601.39,-437.96 601.39,-559.11 547.31,-609.36 614.39,-710.25 690.14,-824.18 853.67,-871.86 946.47,-890.36"/>
<polygon fill="black" stroke="black" points="945.74,-893.78 956.22,-892.24 947.06,-886.91 945.74,-893.78"/>
<text xml:space="preserve" text-anchor="middle" x="632.78" y="-487.15" font-family="Times,serif" font-size="14.00">upstr,build,n</text>
</g>
<!-- SLIT -->
<g id="node7" class="node">
<title>SLIT</title>
<polygon fill="none" stroke="black" points="1174.77,-355.47 1062.02,-355.47 1062.02,-314.47 1174.77,-314.47 1174.77,-355.47"/>
<text xml:space="preserve" text-anchor="middle" x="1118.39" y="-338.17" font-family="Times,serif" font-size="14.00">SLIT</text>
<text xml:space="preserve" text-anchor="middle" x="1118.39" y="-321.67" font-family="Times,serif" font-size="14.00">Slit in streambed.</text>
</g>
<!-- VALLEY&#45;&gt;SLIT -->
<g id="edge17" class="edge">
<title>VALLEY&#45;&gt;SLIT</title>
<path fill="none" stroke="black" d="M1018.99,-151.75C1015.4,-178.39 1012.49,-226.55 1030.64,-261.97 1040.11,-280.44 1056.64,-295.9 1072.82,-307.7"/>
<polygon fill="black" stroke="black" points="1070.79,-310.55 1081,-313.36 1074.77,-304.79 1070.79,-310.55"/>
<text xml:space="preserve" text-anchor="middle" x="1058.02" y="-227.92" font-family="Times,serif" font-size="14.00">downs,s,d</text>
</g>
<!-- VALLEY&#45;&gt;GRATE -->
<g id="edge18" class="edge">
<title>VALLEY&#45;&gt;GRATE</title>
<path fill="none" stroke="black" d="M1057.1,-133.19C1154.85,-137.53 1425.39,-156.37 1425.39,-231.97 1425.39,-437.96 1425.39,-437.96 1425.39,-437.96 1425.39,-504.31 1208.91,-532.27 1102.31,-542.02"/>
<polygon fill="black" stroke="black" points="1102.27,-538.51 1092.62,-542.88 1102.89,-545.48 1102.27,-538.51"/>
<text xml:space="preserve" text-anchor="middle" x="1440.39" y="-329.92" font-family="Times,serif" font-size="14.00">depre</text>
</g>
<!-- FOREST6 -->
<g id="node16" class="node">
<title>FOREST6</title>
<ellipse fill="none" stroke="black" cx="1146.39" cy="-232.97" rx="51.62" ry="28.99"/>
<text xml:space="preserve" text-anchor="middle" x="1146.39" y="-236.17" font-family="Times,serif" font-size="14.00">FOREST6</text>
<text xml:space="preserve" text-anchor="middle" x="1146.39" y="-219.67" font-family="Times,serif" font-size="14.00">Forest.</text>
</g>
<!-- VALLEY&#45;&gt;FOREST6 -->
<g id="edge15" class="edge">
<title>VALLEY&#45;&gt;FOREST6</title>
<path fill="none" stroke="black" d="M1056.89,-151.78C1065.47,-157.17 1074.47,-163.26 1082.39,-169.48 1093.65,-178.33 1105.1,-188.91 1115.14,-198.82"/>
<polygon fill="black" stroke="black" points="1112.61,-201.24 1122.14,-205.87 1117.58,-196.31 1112.61,-201.24"/>
<text xml:space="preserve" text-anchor="middle" x="1119.43" y="-172.68" font-family="Times,serif" font-size="14.00">e,fores</text>
</g>
<!-- FOREST12 -->
<g id="node20" class="node">
<title>FOREST12</title>
<ellipse fill="none" stroke="black" cx="1022.39" cy="-28.99" rx="56.39" ry="28.99"/>
<text xml:space="preserve" text-anchor="middle" x="1022.39" y="-32.19" font-family="Times,serif" font-size="14.00">FOREST12</text>
<text xml:space="preserve" text-anchor="middle" x="1022.39" y="-15.69" font-family="Times,serif" font-size="14.00">Forest.</text>
</g>
<!-- VALLEY&#45;&gt;FOREST12 -->
<g id="edge16" class="edge">
<title>VALLEY&#45;&gt;FOREST12</title>
<path fill="none" stroke="black" d="M1013,-110.16C1010.79,-104.57 1008.76,-98.39 1007.64,-92.48 1006.18,-84.76 1006.64,-76.54 1008.08,-68.7"/>
<polygon fill="black" stroke="black" points="1011.47,-69.58 1010.42,-59.04 1004.66,-67.93 1011.47,-69.58"/>
<text xml:space="preserve" text-anchor="middle" x="1012.52" y="-79.18" font-family="Times,serif" font-size="14.00">w</text>
</g>
<!-- ROADEND&#45;&gt;START -->
<g id="edge20" class="edge">
<title>ROADEND&#45;&gt;START</title>
<path fill="none" stroke="black" d="M180.25,-690.28C181.76,-706.11 185.78,-728.33 196.39,-744.75 245.71,-821.05 280.58,-831.92 368.39,-855.23 475.98,-883.79 803.62,-895.54 946.53,-899.4"/>
<polygon fill="black" stroke="black" points="946.13,-902.89 956.22,-899.65 946.31,-895.89 946.13,-902.89"/>
<text xml:space="preserve" text-anchor="middle" x="281.83" y="-786.69" font-family="Times,serif" font-size="14.00">build</text>
</g>
<!-- ROADEND&#45;&gt;HILL -->
<g id="edge19" class="edge">
<title>ROADEND&#45;&gt;HILL</title>
<path fill="none" stroke="black" d="M183.51,-690.42C188,-707.21 196.85,-730.72 213.14,-744.75 243.27,-770.69 287.14,-782.04 321.52,-786.99"/>
<polygon fill="black" stroke="black" points="320.92,-790.44 331.28,-788.24 321.81,-783.49 320.92,-790.44"/>
<text xml:space="preserve" text-anchor="middle" x="235.27" y="-731.45" font-family="Times,serif" font-size="14.00">road,e,u</text>
</g>
<!-- FOREST14 -->
<g id="node22" class="node">
<title>FOREST14</title>
<ellipse fill="none" stroke="black" cx="318.39" cy="-547.44" rx="56.39" ry="28.99"/>
<text xml:space="preserve" text-anchor="middle" x="318.39" y="-550.64" font-family="Times,serif" font-size="14.00">FOREST14</text>
<text xml:space="preserve" text-anchor="middle" x="318.39" y="-534.14" font-family="Times,serif" font-size="14.00">Forest.</text>
</g>
<!-- ROADEND&#45;&gt;FOREST14 -->
<g id="edge21" class="edge">
<title>ROADEND&#45;&gt;FOREST14</title>
<path fill="none" stroke="black" d="M202.34,-648.75C223.87,-630.15 256.41,-602.02 281.56,-580.28"/>
<polygon fill="black" stroke="black" points="283.69,-583.06 288.97,-573.87 279.12,-577.76 283.69,-583.06"/>
<text xml:space="preserve" text-anchor="middle" x="279.34" y="-597.63" font-family="Times,serif" font-size="14.00">s,fores</text>
</g>
<!-- FOREST15 -->
<g id="node23" class="node">
<title>FOREST15</title>
<ellipse fill="none" stroke="black" cx="187.39" cy="-547.44" rx="56.39" ry="28.99"/>
<text xml:space="preserve" text-anchor="middle" x="187.39" y="-550.64" font-family="Times,serif" font-size="14.00">FOREST15</text>
<text xml:space="preserve" text-anchor="middle" x="187.39" y="-534.14" font-family="Times,serif" font-size="14.00">Forest.</text>
</g>
<!-- ROADEND&#45;&gt;FOREST15 -->
<g id="edge22" class="edge">
<title>ROADEND&#45;&gt;FOREST15</title>
<path fill="none" stroke="black" d="M170.81,-648.68C165.47,-633.71 160.37,-612.71 164.64,-594.43 165.3,-591.62 166.15,-588.79 167.14,-585.98"/>
<polygon fill="black" stroke="black" points="170.36,-587.37 170.94,-576.79 163.89,-584.69 170.36,-587.37"/>
<text xml:space="preserve" text-anchor="middle" x="169.52" y="-597.63" font-family="Times,serif" font-size="14.00">w</text>
</g>
<!-- FOREST21 -->
<g id="node27" class="node">
<title>FOREST21</title>
<ellipse fill="none" stroke="black" cx="56.39" cy="-547.44" rx="56.39" ry="28.99"/>
<text xml:space="preserve" text-anchor="middle" x="56.39" y="-550.64" font-family="Times,serif" font-size="14.00">FOREST21</text>
<text xml:space="preserve" text-anchor="middle" x="56.39" y="-534.14" font-family="Times,serif" font-size="14.00">Forest.</text>
</g>
<!-- ROADEND&#45;&gt;FOREST21 -->
<g id="edge23" class="edge">
<title>ROADEND&#45;&gt;FOREST21</title>
<path fill="none" stroke="black" d="M159.08,-648.75C140.32,-630.43 112.11,-602.87 90,-581.27"/>
<polygon fill="black" stroke="black" points="92.54,-578.85 82.94,-574.37 87.64,-583.86 92.54,-578.85"/>
<text xml:space="preserve" text-anchor="middle" x="121.27" y="-597.63" font-family="Times,serif" font-size="14.00">n</text>
</g>
<!-- CLIFF -->
<g id="node6" class="node">
<title>CLIFF</title>
<polygon fill="none" stroke="black" points="1805.39,-922.48 1751.39,-922.48 1751.39,-881.48 1805.39,-881.48 1805.39,-922.48"/>
<text xml:space="preserve" text-anchor="middle" x="1778.39" y="-905.18" font-family="Times,serif" font-size="14.00">CLIFF</text>
<text xml:space="preserve" text-anchor="middle" x="1778.39" y="-888.68" font-family="Times,serif" font-size="14.00">Cliff.</text>
</g>
<!-- FOREST17 -->
<g id="node24" class="node">
<title>FOREST17</title>
<ellipse fill="none" stroke="black" cx="1676.39" cy="-791.74" rx="56.39" ry="28.99"/>
<text xml:space="preserve" text-anchor="middle" x="1676.39" y="-794.94" font-family="Times,serif" font-size="14.00">FOREST17</text>
<text xml:space="preserve" text-anchor="middle" x="1676.39" y="-778.44" font-family="Times,serif" font-size="14.00">Forest.</text>
</g>
<!-- CLIFF&#45;&gt;FOREST17 -->
<g id="edge24" class="edge">
<title>CLIFF&#45;&gt;FOREST17</title>
<path fill="none" stroke="black" d="M1750.96,-894.37C1730.23,-887.91 1702.8,-875.94 1687.39,-855.23 1682.48,-848.62 1679.49,-840.54 1677.73,-832.42"/>
<polygon fill="black" stroke="black" points="1681.19,-831.89 1676.22,-822.54 1674.28,-832.96 1681.19,-831.89"/>
<text xml:space="preserve" text-anchor="middle" x="1705.39" y="-841.93" font-family="Times,serif" font-size="14.00">s,fores</text>
</g>
<!-- FOREST19 -->
<g id="node25" class="node">
<title>FOREST19</title>
<ellipse fill="none" stroke="black" cx="1807.39" cy="-791.74" rx="56.39" ry="28.99"/>
<text xml:space="preserve" text-anchor="middle" x="1807.39" y="-794.94" font-family="Times,serif" font-size="14.00">FOREST19</text>
<text xml:space="preserve" text-anchor="middle" x="1807.39" y="-778.44" font-family="Times,serif" font-size="14.00">Forest.</text>
</g>
<!-- CLIFF&#45;&gt;FOREST19 -->
<g id="edge25" class="edge">
<title>CLIFF&#45;&gt;FOREST19</title>
<path fill="none" stroke="black" d="M1777.51,-880.98C1777.49,-868.59 1778.43,-852.47 1782.39,-838.73 1783.24,-835.8 1784.29,-832.85 1785.48,-829.94"/>
<polygon fill="black" stroke="black" points="1788.59,-831.54 1789.64,-821 1782.25,-828.59 1788.59,-831.54"/>
<text xml:space="preserve" text-anchor="middle" x="1785.39" y="-841.93" font-family="Times,serif" font-size="14.00">e</text>
</g>
<!-- NOWHERE -->
<g id="node29" class="node">
<title>NOWHERE</title>
<ellipse fill="none" stroke="black" cx="1939.39" cy="-791.74" rx="57.49" ry="18"/>
<text xml:space="preserve" text-anchor="middle" x="1939.39" y="-786.69" font-family="Times,serif" font-size="14.00">NOWHERE</text>
</g>
<!-- CLIFF&#45;&gt;NOWHERE -->
<g id="edge26" class="edge">
<title>CLIFF&#45;&gt;NOWHERE</title>
<path fill="none" stroke="black" d="M1805.7,-882.62C1833.51,-863.92 1876.65,-834.92 1906.36,-814.95"/>
<polygon fill="black" stroke="black" points="1908.28,-817.88 1914.62,-809.39 1904.37,-812.07 1908.28,-817.88"/>
<text xml:space="preserve" text-anchor="middle" x="1882.78" y="-841.93" font-family="Times,serif" font-size="14.00">jump</text>
</g>
<!-- SLIT&#45;&gt;START -->
<g id="edge27" class="edge">
<title>SLIT&#45;&gt;START</title>
<path fill="none" stroke="black" d="M1174.98,-340.63C1272.85,-350.26 1463.39,-376.64 1463.39,-435.96 1463.39,-792.74 1463.39,-792.74 1463.39,-792.74 1463.39,-870.11 1208.26,-892.34 1082.63,-898.6"/>
<polygon fill="black" stroke="black" points="1082.59,-895.1 1072.77,-899.07 1082.92,-902.09 1082.59,-895.1"/>
<text xml:space="preserve" text-anchor="middle" x="1477.27" y="-597.63" font-family="Times,serif" font-size="14.00">build</text>
</g>
<!-- SLIT&#45;&gt;VALLEY -->
<g id="edge28" class="edge">
<title>SLIT&#45;&gt;VALLEY</title>
<path fill="none" stroke="black" d="M1061.75,-321.22C1030.35,-310.91 994.04,-292.84 975.64,-261.97 956.42,-229.72 978.19,-188.3 998,-160.99"/>
<polygon fill="black" stroke="black" points="1000.69,-163.25 1003.95,-153.16 995.11,-159.01 1000.69,-163.25"/>
<text xml:space="preserve" text-anchor="middle" x="994.02" y="-227.92" font-family="Times,serif" font-size="14.00">upstr,n</text>
</g>
<!-- SLIT&#45;&gt;GRATE -->
<g id="edge31" class="edge">
<title>SLIT&#45;&gt;GRATE</title>
<path fill="none" stroke="black" d="M1093.39,-355.84C1078.88,-368.95 1061.81,-387.45 1053.14,-407.97 1038.54,-442.53 1038.47,-486.29 1040.65,-515.27"/>
<polygon fill="black" stroke="black" points="1037.16,-515.56 1041.55,-525.2 1044.13,-514.93 1037.16,-515.56"/>
<text xml:space="preserve" text-anchor="middle" x="1103.77" y="-431.91" font-family="Times,serif" font-size="14.00">downs,bed,s,depre</text>
</g>
<!-- SLIT&#45;&gt;FOREST6 -->
<g id="edge29" class="edge">
<title>SLIT&#45;&gt;FOREST6</title>
<path fill="none" stroke="black" d="M1123.92,-314.21C1127.22,-302.44 1131.52,-287.1 1135.47,-272.98"/>
<polygon fill="black" stroke="black" points="1138.8,-274.05 1138.13,-263.47 1132.06,-272.16 1138.8,-274.05"/>
<text xml:space="preserve" text-anchor="middle" x="1151.61" y="-283.17" font-family="Times,serif" font-size="14.00">e,fores</text>
</g>
<!-- FOREST10 -->
<g id="node19" class="node">
<title>FOREST10</title>
<ellipse fill="none" stroke="black" cx="1341.39" cy="-436.96" rx="56.39" ry="28.99"/>
<text xml:space="preserve" text-anchor="middle" x="1341.39" y="-440.16" font-family="Times,serif" font-size="14.00">FOREST10</text>
<text xml:space="preserve" text-anchor="middle" x="1341.39" y="-423.66" font-family="Times,serif" font-size="14.00">Forest.</text>
</g>
<!-- SLIT&#45;&gt;FOREST10 -->
<g id="edge30" class="edge">
<title>SLIT&#45;&gt;FOREST10</title>
<path fill="none" stroke="black" d="M1162.82,-355.89C1199.17,-372.19 1250.65,-395.27 1289,-412.47"/>
<polygon fill="black" stroke="black" points="1287.51,-415.63 1298.07,-416.53 1290.37,-409.24 1287.51,-415.63"/>
<text xml:space="preserve" text-anchor="middle" x="1241.45" y="-376.67" font-family="Times,serif" font-size="14.00">w</text>
</g>
<!-- GRATE&#45;&gt;START -->
<g id="edge35" class="edge">
<title>GRATE&#45;&gt;START</title>
<path fill="none" stroke="black" d="M1090.89,-551.83C1178.95,-559.33 1364.72,-580.63 1403.39,-628.93 1425.98,-657.14 1418.37,-677.36 1403.39,-710.25 1347.37,-833.25 1178.33,-877.55 1082.54,-893.03"/>
<polygon fill="black" stroke="black" points="1082.07,-889.56 1072.73,-894.55 1083.14,-896.48 1082.07,-889.56"/>
<text xml:space="preserve" text-anchor="middle" x="1407.07" y="-731.45" font-family="Times,serif" font-size="14.00">build</text>
</g>
<!-- GRATE&#45;&gt;SLIT -->
<g id="edge36" class="edge">
<title>GRATE&#45;&gt;SLIT</title>
<path fill="none" stroke="black" d="M1017.26,-526.57C999.8,-512 978.62,-490.53 968.89,-465.95 959.41,-441.99 955.18,-429.79 968.89,-407.97 987.06,-379.05 1020.45,-361.48 1051.07,-350.94"/>
<polygon fill="black" stroke="black" points="1051.87,-354.36 1060.32,-347.97 1049.73,-347.7 1051.87,-354.36"/>
<text xml:space="preserve" text-anchor="middle" x="1002.64" y="-431.91" font-family="Times,serif" font-size="14.00">upstr,gully,n</text>
</g>
<!-- BELOWGRATE -->
<g id="node9" class="node">
<title>BELOWGRATE</title>
<ellipse fill="none" stroke="black" cx="827.39" cy="-436.96" rx="76.54" ry="28.99"/>
<text xml:space="preserve" text-anchor="middle" x="827.39" y="-440.16" font-family="Times,serif" font-size="14.00">BELOWGRATE</text>
<text xml:space="preserve" text-anchor="middle" x="827.39" y="-423.66" font-family="Times,serif" font-size="14.00">Below the grate.</text>
</g>
<!-- GRATE&#45;&gt;BELOWGRATE -->
<g id="edge37" class="edge">
<title>GRATE&#45;&gt;BELOWGRATE</title>
<path fill="none" stroke="black" d="M997.66,-544.31C935.01,-540.35 828.86,-529.46 804.89,-500.45 798.99,-493.31 799.01,-484.49 801.81,-475.76"/>
<polygon fill="black" stroke="black" points="805,-477.22 805.8,-466.65 798.58,-474.41 805,-477.22"/>
<text xml:space="preserve" text-anchor="middle" x="840.14" y="-487.15" font-family="Times,serif" font-size="14.00">enter,inwar,d</text>
</g>
<!-- FOREST7 -->
<g id="node17" class="node">
<title>FOREST7</title>
<ellipse fill="none" stroke="black" cx="1215.39" cy="-436.96" rx="51.62" ry="28.99"/>
<text xml:space="preserve" text-anchor="middle" x="1215.39" y="-440.16" font-family="Times,serif" font-size="14.00">FOREST7</text>
<text xml:space="preserve" text-anchor="middle" x="1215.39" y="-423.66" font-family="Times,serif" font-size="14.00">Forest.</text>
</g>
<!-- GRATE&#45;&gt;FOREST7 -->
<g id="edge32" class="edge">
<title>GRATE&#45;&gt;FOREST7</title>
<path fill="none" stroke="black" d="M1064.69,-526.53C1078.77,-513.39 1098.4,-496.36 1117.64,-483.95 1131.98,-474.69 1148.48,-466.21 1163.79,-459.11"/>
<polygon fill="black" stroke="black" points="1165.1,-462.36 1172.77,-455.05 1162.22,-455.98 1165.1,-462.36"/>
<text xml:space="preserve" text-anchor="middle" x="1136.02" y="-487.15" font-family="Times,serif" font-size="14.00">e,fores</text>
</g>
<!-- FOREST9 -->
<g id="node18" class="node">
<title>FOREST9</title>
<ellipse fill="none" stroke="black" cx="681.39" cy="-436.96" rx="51.62" ry="28.99"/>
<text xml:space="preserve" text-anchor="middle" x="681.39" y="-440.16" font-family="Times,serif" font-size="14.00">FOREST9</text>
<text xml:space="preserve" text-anchor="middle" x="681.39" y="-423.66" font-family="Times,serif" font-size="14.00">Forest.</text>
</g>
<!-- GRATE&#45;&gt;FOREST9 -->
<g id="edge34" class="edge">
<title>GRATE&#45;&gt;FOREST9</title>
<path fill="none" stroke="black" d="M997.92,-543.18C945.27,-538.36 857.57,-526.84 786.64,-500.45 764.08,-492.06 740.89,-478.86 722.03,-466.75"/>
<polygon fill="black" stroke="black" points="724.13,-463.94 713.85,-461.38 720.29,-469.79 724.13,-463.94"/>
<text xml:space="preserve" text-anchor="middle" x="791.52" y="-487.15" font-family="Times,serif" font-size="14.00">w</text>
</g>
<!-- GRATE&#45;&gt;FOREST10 -->
<g id="edge33" class="edge">
<title>GRATE&#45;&gt;FOREST10</title>
<path fill="none" stroke="black" d="M1090.96,-540.14C1131.97,-533.54 1192.73,-521.19 1242.39,-500.45 1262.81,-491.92 1283.76,-479.35 1301.1,-467.71"/>
<polygon fill="black" stroke="black" points="1302.82,-470.78 1309.09,-462.23 1298.86,-465 1302.82,-470.78"/>
<text xml:space="preserve" text-anchor="middle" x="1276.56" y="-487.15" font-family="Times,serif" font-size="14.00">s</text>
</g>
<!-- BELOWGRATE&#45;&gt;GRATE -->
<g id="edge38" class="edge">
<title>BELOWGRATE&#45;&gt;GRATE</title>
<path fill="none" stroke="black" d="M855.05,-464.32C870.81,-478.92 889.25,-495.16 898.64,-500.45 925.87,-515.78 958.89,-526.74 986.62,-534.1"/>
<polygon fill="black" stroke="black" points="985.72,-537.49 996.28,-536.57 987.46,-530.71 985.72,-537.49"/>
<text xml:space="preserve" text-anchor="middle" x="912.52" y="-487.15" font-family="Times,serif" font-size="14.00">out,u</text>
</g>
<!-- DEBRIS&#45;&gt;BUILDING -->
<g id="edge40" class="edge">
<title>DEBRIS&#45;&gt;BUILDING</title>
<path fill="none" stroke="black" d="M1303.71,-706.51C1291.67,-720.11 1276.61,-734.71 1260.39,-744.75 1240.82,-756.86 1217.8,-766.02 1195.83,-772.83"/>
<polygon fill="black" stroke="black" points="1194.85,-769.47 1186.25,-775.66 1196.83,-776.19 1194.85,-769.47"/>
<text xml:space="preserve" text-anchor="middle" x="1296.68" y="-731.45" font-family="Times,serif" font-size="14.00">xyzzy</text>
</g>
<!-- DEBRIS&#45;&gt;GRATE -->
<g id="edge39" class="edge">
<title>DEBRIS&#45;&gt;GRATE</title>
<path fill="none" stroke="black" d="M1285.33,-641.53C1277.13,-637.1 1268.59,-632.72 1260.39,-628.93 1207.82,-604.62 1145.65,-582.07 1101.54,-567.06"/>
<polygon fill="black" stroke="black" points="1102.76,-563.78 1092.16,-563.9 1100.52,-570.41 1102.76,-563.78"/>
<text xml:space="preserve" text-anchor="middle" x="1229.08" y="-597.63" font-family="Times,serif" font-size="14.00">depre</text>
</g>
<!-- AWKWARD -->
<g id="node11" class="node">
<title>AWKWARD</title>
<ellipse fill="none" stroke="black" cx="705.39" cy="-669.59" rx="81.85" ry="28.99"/>
<text xml:space="preserve" text-anchor="middle" x="705.39" y="-672.79" font-family="Times,serif" font-size="14.00">AWKWARD</text>
<text xml:space="preserve" text-anchor="middle" x="705.39" y="-656.29" font-family="Times,serif" font-size="14.00">Awkward canyon.</text>
</g>
<!-- AWKWARD&#45;&gt;GRATE -->
<g id="edge41" class="edge">
<title>AWKWARD&#45;&gt;GRATE</title>
<path fill="none" stroke="black" d="M754.64,-646.13C768.07,-640.27 782.7,-634.15 796.39,-628.93 860.82,-604.37 936.38,-580.54 987.01,-565.27"/>
<polygon fill="black" stroke="black" points="987.72,-568.71 996.29,-562.48 985.71,-562 987.72,-568.71"/>
<text xml:space="preserve" text-anchor="middle" x="905.98" y="-597.63" font-family="Times,serif" font-size="14.00">depre</text>
</g>
<!-- BIRDCHAMBER -->
<g id="node12" class="node">
<title>BIRDCHAMBER</title>
<ellipse fill="none" stroke="black" cx="887.39" cy="-669.59" rx="81.85" ry="40.66"/>
<text xml:space="preserve" text-anchor="middle" x="887.39" y="-681.04" font-family="Times,serif" font-size="14.00">BIRDCHAMBER</text>
<text xml:space="preserve" text-anchor="middle" x="887.39" y="-664.54" font-family="Times,serif" font-size="14.00">Bird chamber.</text>
<text xml:space="preserve" text-anchor="middle" x="887.39" y="-648.04" font-family="Times,serif" font-size="14.00">(bird)</text>
</g>
<!-- BIRDCHAMBER&#45;&gt;GRATE -->
<g id="edge42" class="edge">
<title>BIRDCHAMBER&#45;&gt;GRATE</title>
<path fill="none" stroke="black" d="M915.83,-631.25C926.67,-618.55 939.73,-604.94 953.39,-594.43 963.91,-586.34 976.08,-579.04 988.03,-572.76"/>
<polygon fill="black" stroke="black" points="989.27,-576.05 996.62,-568.42 986.11,-569.81 989.27,-576.05"/>
<text xml:space="preserve" text-anchor="middle" x="968.39" y="-597.63" font-family="Times,serif" font-size="14.00">depre</text>
</g>
<!-- PITTOP -->
<g id="node13" class="node">
<title>PITTOP</title>
<ellipse fill="none" stroke="black" cx="1174.39" cy="-669.59" rx="76.54" ry="28.99"/>
<text xml:space="preserve" text-anchor="middle" x="1174.39" y="-672.79" font-family="Times,serif" font-size="14.00">PITTOP</text>
<text xml:space="preserve" text-anchor="middle" x="1174.39" y="-656.29" font-family="Times,serif" font-size="14.00">Top of small pit.</text>
</g>
<!-- PITTOP&#45;&gt;GRATE -->
<g id="edge43" class="edge">
<title>PITTOP&#45;&gt;GRATE</title>
<path fill="none" stroke="black" d="M1145.86,-642.22C1124.71,-622.67 1095.94,-596.08 1074.43,-576.21"/>
<polygon fill="black" stroke="black" points="1076.83,-573.65 1067.11,-569.44 1072.08,-578.79 1076.83,-573.65"/>
<text xml:space="preserve" text-anchor="middle" x="1124.39" y="-597.63" font-family="Times,serif" font-size="14.00">depre</text>
</g>
<!-- Y2&#45;&gt;BUILDING -->
<g id="edge44" class="edge">
<title>Y2&#45;&gt;BUILDING</title>
<path fill="none" stroke="black" d="M1046.84,-698.35C1045.29,-712.88 1045.62,-730.55 1052.64,-744.75 1054.29,-748.09 1056.32,-751.26 1058.62,-754.26"/>
<polygon fill="black" stroke="black" points="1055.9,-756.47 1065.19,-761.57 1061.11,-751.8 1055.9,-756.47"/>
<text xml:space="preserve" text-anchor="middle" x="1068.02" y="-731.45" font-family="Times,serif" font-size="14.00">plugh</text>
</g>
<!-- FOREST1&#45;&gt;START -->
<g id="edge45" class="edge">
<title>FOREST1&#45;&gt;START</title>
<path fill="none" stroke="black" d="M1550.6,-821.11C1549.12,-833.39 1545.11,-846.85 1535.39,-855.23 1501.77,-884.21 1215.51,-895.61 1082.2,-899.38"/>
<polygon fill="black" stroke="black" points="1082.35,-895.88 1072.45,-899.65 1082.55,-902.87 1082.35,-895.88"/>
<text xml:space="preserve" text-anchor="middle" x="1548.94" y="-841.93" font-family="Times,serif" font-size="14.00">e</text>
</g>
<!-- FOREST6&#45;&gt;VALLEY -->
<g id="edge46" class="edge">
<title>FOREST6&#45;&gt;VALLEY</title>
<path fill="none" stroke="black" d="M1110.96,-211.54C1099.01,-204.06 1085.86,-195.17 1074.64,-185.98 1065.18,-178.24 1055.64,-168.92 1047.35,-160.23"/>
<polygon fill="black" stroke="black" points="1049.93,-157.86 1040.55,-152.93 1044.8,-162.63 1049.93,-157.86"/>
<text xml:space="preserve" text-anchor="middle" x="1078.02" y="-172.68" font-family="Times,serif" font-size="14.00">n</text>
</g>
<!-- FOREST6&#45;&gt;SLIT -->
<g id="edge47" class="edge">
<title>FOREST6&#45;&gt;SLIT</title>
<path fill="none" stroke="black" d="M1130.6,-261C1127.67,-267.07 1124.96,-273.6 1123.14,-279.97 1121.07,-287.21 1119.84,-295.21 1119.11,-302.77"/>
<polygon fill="black" stroke="black" points="1115.63,-302.42 1118.45,-312.63 1122.61,-302.89 1115.63,-302.42"/>
<text xml:space="preserve" text-anchor="middle" x="1125.77" y="-283.17" font-family="Times,serif" font-size="14.00">s</text>
</g>
<!-- FOREST7&#45;&gt;GRATE -->
<g id="edge48" class="edge">
<title>FOREST7&#45;&gt;GRATE</title>
<path fill="none" stroke="black" d="M1194.5,-463.78C1183.55,-476.09 1169.32,-490.31 1154.39,-500.45 1138.22,-511.44 1119,-520.58 1101.19,-527.74"/>
<polygon fill="black" stroke="black" points="1100.38,-524.3 1092.32,-531.18 1102.9,-530.83 1100.38,-524.3"/>
<text xml:space="preserve" text-anchor="middle" x="1176.44" y="-487.15" font-family="Times,serif" font-size="14.00">n</text>
</g>
<!-- FOREST9&#45;&gt;GRATE -->
<g id="edge49" class="edge">
<title>FOREST9&#45;&gt;GRATE</title>
<path fill="none" stroke="black" d="M700.94,-464.13C712.12,-477.16 727.26,-491.92 744.14,-500.45 785.5,-521.34 911.56,-535.22 986.54,-541.87"/>
<polygon fill="black" stroke="black" points="985.9,-545.33 996.16,-542.71 986.5,-538.35 985.9,-545.33"/>
<text xml:space="preserve" text-anchor="middle" x="746.77" y="-487.15" font-family="Times,serif" font-size="14.00">s</text>
</g>
<!-- FOREST10&#45;&gt;SLIT -->
<g id="edge50" class="edge">
<title>FOREST10&#45;&gt;SLIT</title>
<path fill="none" stroke="black" d="M1311.73,-411.92C1294.63,-399.03 1272.25,-383.74 1250.39,-373.47 1230.19,-363.97 1207.1,-356.41 1185.94,-350.63"/>
<polygon fill="black" stroke="black" points="1187.1,-347.32 1176.54,-348.15 1185.32,-354.09 1187.1,-347.32"/>
<text xml:space="preserve" text-anchor="middle" x="1282.5" y="-376.67" font-family="Times,serif" font-size="14.00">e</text>
</g>
<!-- FOREST10&#45;&gt;GRATE -->
<g id="edge51" class="edge">
<title>FOREST10&#45;&gt;GRATE</title>
<path fill="none" stroke="black" d="M1299.22,-456.49C1291.65,-459.71 1283.81,-462.98 1276.39,-465.95 1217.77,-489.43 1149.31,-512.68 1102.03,-528.11"/>
<polygon fill="black" stroke="black" points="1100.95,-524.78 1092.52,-531.2 1103.12,-531.44 1100.95,-524.78"/>
<text xml:space="preserve" text-anchor="middle" x="1228.78" y="-487.15" font-family="Times,serif" font-size="14.00">s</text>
</g>
<!-- FOREST12&#45;&gt;VALLEY -->
<g id="edge52" class="edge">
<title>FOREST12&#45;&gt;VALLEY</title>
<path fill="none" stroke="black" d="M1022.39,-58.42C1022.39,-71.09 1022.39,-86.05 1022.39,-99.01"/>
<polygon fill="black" stroke="black" points="1018.89,-98.71 1022.39,-108.71 1025.89,-98.71 1018.89,-98.71"/>
<text xml:space="preserve" text-anchor="middle" x="1025.02" y="-79.18" font-family="Times,serif" font-size="14.00">s</text>
</g>
<!-- FOREST13&#45;&gt;HILL -->
<g id="edge53" class="edge">
<title>FOREST13&#45;&gt;HILL</title>
<path fill="none" stroke="black" d="M323.1,-695.63C332.28,-705.2 342.07,-716.63 349.39,-728.25 355.63,-738.16 360.81,-749.88 364.82,-760.48"/>
<polygon fill="black" stroke="black" points="361.4,-761.32 368.04,-769.58 368,-758.98 361.4,-761.32"/>
<text xml:space="preserve" text-anchor="middle" x="360.74" y="-731.45" font-family="Times,serif" font-size="14.00">s</text>
</g>
<!-- FOREST14&#45;&gt;ROADEND -->
<g id="edge54" class="edge">
<title>FOREST14&#45;&gt;ROADEND</title>
<path fill="none" stroke="black" d="M278.35,-568.03C265.25,-575.38 251.08,-584.41 239.39,-594.43 224.13,-607.52 209.85,-624.87 199.05,-639.5"/>
<polygon fill="black" stroke="black" points="196.36,-637.26 193.37,-647.42 202.04,-641.34 196.36,-637.26"/>
<text xml:space="preserve" text-anchor="middle" x="242.39" y="-597.63" font-family="Times,serif" font-size="14.00">e</text>
</g>
<!-- FOREST15&#45;&gt;ROADEND -->
<g id="edge55" class="edge">
<title>FOREST15&#45;&gt;ROADEND</title>
<path fill="none" stroke="black" d="M185.5,-576.85C184.29,-595.01 182.72,-618.57 181.48,-637.27"/>
<polygon fill="black" stroke="black" points="177.99,-637.03 180.81,-647.24 184.97,-637.49 177.99,-637.03"/>
<text xml:space="preserve" text-anchor="middle" x="187.48" y="-597.63" font-family="Times,serif" font-size="14.00">n</text>
</g>
<!-- FOREST17&#45;&gt;CLIFF -->
<g id="edge56" class="edge">
<title>FOREST17&#45;&gt;CLIFF</title>
<path fill="none" stroke="black" d="M1702.59,-817.71C1709.45,-824.44 1716.79,-831.78 1723.39,-838.73 1733.64,-849.51 1744.55,-861.71 1753.94,-872.43"/>
<polygon fill="black" stroke="black" points="1751.22,-874.63 1760.42,-879.88 1756.5,-870.04 1751.22,-874.63"/>
<text xml:space="preserve" text-anchor="middle" x="1740.71" y="-841.93" font-family="Times,serif" font-size="14.00">n</text>
</g>
<!-- FOREST19&#45;&gt;CLIFF -->
<g id="edge57" class="edge">
<title>FOREST19&#45;&gt;CLIFF</title>
<path fill="none" stroke="black" d="M1799.92,-820.62C1795.84,-835.86 1790.77,-854.77 1786.58,-870.41"/>
<polygon fill="black" stroke="black" points="1783.31,-869.1 1784.1,-879.67 1790.07,-870.91 1783.31,-869.1"/>
<text xml:space="preserve" text-anchor="middle" x="1798" y="-841.93" font-family="Times,serif" font-size="14.00">n</text>
</g>
<!-- FOREST20&#45;&gt;HILL -->
<g id="edge58" class="edge">
<title>FOREST20&#45;&gt;HILL</title>
<path fill="none" stroke="black" d="M415.26,-698.1C407.03,-716.76 396.15,-741.41 387.69,-760.6"/>
<polygon fill="black" stroke="black" points="384.59,-758.95 383.75,-769.51 390.99,-761.78 384.59,-758.95"/>
<text xml:space="preserve" text-anchor="middle" x="403.89" y="-731.45" font-family="Times,serif" font-size="14.00">e</text>
</g>
<!-- FOREST21&#45;&gt;ROADEND -->
<g id="edge59" class="edge">
<title>FOREST21&#45;&gt;ROADEND</title>
<path fill="none" stroke="black" d="M68.92,-576.11C75.02,-587.7 83.1,-600.79 92.64,-610.93 104.02,-623.02 118.39,-633.86 132.15,-642.78"/>
<polygon fill="black" stroke="black" points="129.92,-645.51 140.25,-647.85 133.63,-639.58 129.92,-645.51"/>
<text xml:space="preserve" text-anchor="middle" x="97.52" y="-597.63" font-family="Times,serif" font-size="14.00">w</text>
</g>
<!-- LEDGE -->
<g id="node28" class="node">
<title>LEDGE</title>
<polygon fill="none" stroke="black" points="1969.52,-930.73 1909.27,-930.73 1909.27,-873.23 1969.52,-873.23 1969.52,-930.73"/>
<text xml:space="preserve" text-anchor="middle" x="1939.39" y="-913.43" font-family="Times,serif" font-size="14.00">LEDGE</text>
<text xml:space="preserve" text-anchor="middle" x="1939.39" y="-896.93" font-family="Times,serif" font-size="14.00">Ledge.</text>
<text xml:space="preserve" text-anchor="middle" x="1939.39" y="-880.43" font-family="Times,serif" font-size="14.00">(sapph)</text>
</g>
<!-- LEDGE&#45;&gt;NOWHERE -->
<g id="edge60" class="edge">
<title>LEDGE&#45;&gt;NOWHERE</title>
<path fill="none" stroke="black" d="M1939.39,-872.82C1939.39,-856.95 1939.39,-837.17 1939.39,-821.24"/>
<polygon fill="black" stroke="black" points="1942.89,-821.45 1939.39,-811.45 1935.89,-821.45 1942.89,-821.45"/>
<text xml:space="preserve" text-anchor="middle" x="1953.64" y="-841.93" font-family="Times,serif" font-size="14.00">jump</text>
</g>
</g>
</svg>
